<?xml version="1.0" encoding="utf-8" standalone="no"?>
<!DOCTYPE svg PUBLIC "-//W3C//DTD SVG 1.1//EN"
  "http://www.w3.org/Graphics/SVG/1.1/DTD/svg11.dtd">
<svg xmlns:xlink="http://www.w3.org/1999/xlink" width="526.442187pt" height="170.478875pt" viewBox="0 0 526.442187 170.478875" xmlns="http://www.w3.org/2000/svg" version="1.1">
 <metadata>
  <rdf:RDF xmlns:dc="http://purl.org/dc/elements/1.1/" xmlns:cc="http://creativecommons.org/ns#" xmlns:rdf="http://www.w3.org/1999/02/22-rdf-syntax-ns#">
   <cc:Work>
    <dc:type rdf:resource="http://purl.org/dc/dcmitype/StillImage"/>
    <dc:date>2024-09-18T10:48:44.409424</dc:date>
    <dc:format>image/svg+xml</dc:format>
    <dc:creator>
     <cc:Agent>
      <dc:title>Matplotlib v3.7.0, https://matplotlib.org/</dc:title>
     </cc:Agent>
    </dc:creator>
   </cc:Work>
  </rdf:RDF>
 </metadata>
 <defs>
  <style type="text/css">*{stroke-linejoin: round; stroke-linecap: butt}</style>
 </defs>
 <g id="figure_1">
  <g id="patch_1">
   <path d="M 0 170.478875 
L 526.442187 170.478875 
L 526.442187 0 
L 0 0 
z
" style="fill: #ffffff"/>
  </g>
  <g id="axes_1">
   <g id="patch_2">
    <path d="M 43.78125 132.922625 
L 322.78125 132.922625 
L 322.78125 24.202625 
L 43.78125 24.202625 
z
" style="fill: #ffffff"/>
   </g>
   <g id="PolyCollection_1">
    <path d="M 43.78125 127.822761 
L 43.78125 132.922625 
L 50.269622 132.922625 
L 56.757994 132.922625 
L 63.246366 132.922625 
L 69.734738 132.922625 
L 76.22311 132.922625 
L 82.711483 132.922625 
L 89.199855 132.922625 
L 95.688227 132.922625 
L 102.176599 132.922625 
L 108.664971 132.922625 
L 115.153343 132.922625 
L 121.641715 132.922625 
L 128.130087 132.922625 
L 134.618459 132.922625 
L 141.106831 132.922625 
L 147.595203 132.922625 
L 154.083576 132.922625 
L 160.571948 132.922625 
L 167.06032 132.922625 
L 173.548692 132.922625 
L 180.037064 132.922625 
L 186.525436 132.922625 
L 193.013808 132.922625 
L 199.50218 132.922625 
L 205.990552 132.922625 
L 212.478924 132.922625 
L 218.967297 132.922625 
L 225.455669 132.922625 
L 231.944041 132.922625 
L 238.432413 132.922625 
L 244.920785 132.922625 
L 251.409157 132.922625 
L 257.897529 132.922625 
L 264.385901 132.922625 
L 270.874273 132.922625 
L 277.362645 132.922625 
L 283.851017 132.922625 
L 290.33939 132.922625 
L 296.827762 132.922625 
L 303.316134 132.922625 
L 309.804506 132.922625 
L 316.292878 132.922625 
L 322.78125 132.922625 
L 322.78125 123.395552 
L 322.78125 123.395552 
L 316.292878 124.317276 
L 309.804506 121.415961 
L 303.316134 102.874664 
L 296.827762 122.193848 
L 290.33939 123.014927 
L 283.851017 122.043358 
L 277.362645 125.744209 
L 270.874273 121.407878 
L 264.385901 126.085053 
L 257.897529 125.848074 
L 251.409157 126.261586 
L 244.920785 123.722506 
L 238.432413 120.770586 
L 231.944041 125.251316 
L 225.455669 124.790072 
L 218.967297 118.378904 
L 212.478924 126.548915 
L 205.990552 121.927096 
L 199.50218 127.267286 
L 193.013808 127.949906 
L 186.525436 121.948528 
L 180.037064 127.139729 
L 173.548692 124.506558 
L 167.06032 126.001099 
L 160.571948 126.622096 
L 154.083576 101.820954 
L 147.595203 127.637449 
L 141.106831 127.364832 
L 134.618459 120.42451 
L 128.130087 128.012362 
L 121.641715 125.713523 
L 115.153343 127.343081 
L 108.664971 127.269179 
L 102.176599 124.660738 
L 95.688227 127.229751 
L 89.199855 128.98277 
L 82.711483 128.527024 
L 76.22311 126.11226 
L 69.734738 130.014456 
L 63.246366 128.344544 
L 56.757994 128.673254 
L 50.269622 129.766118 
L 43.78125 127.822761 
z
" clip-path="url(#pf7db408d6f)" style="fill: #0072b2; fill-opacity: 0.8"/>
   </g>
   <g id="PolyCollection_2">
    <path d="M 43.78125 126.571524 
L 43.78125 127.822761 
L 50.269622 129.766118 
L 56.757994 128.673254 
L 63.246366 128.344544 
L 69.734738 130.014456 
L 76.22311 126.11226 
L 82.711483 128.527024 
L 89.199855 128.98277 
L 95.688227 127.229751 
L 102.176599 124.660738 
L 108.664971 127.269179 
L 115.153343 127.343081 
L 121.641715 125.713523 
L 128.130087 128.012362 
L 134.618459 120.42451 
L 141.106831 127.364832 
L 147.595203 127.637449 
L 154.083576 101.820954 
L 160.571948 126.622096 
L 167.06032 126.001099 
L 173.548692 124.506558 
L 180.037064 127.139729 
L 186.525436 121.948528 
L 193.013808 127.949906 
L 199.50218 127.267286 
L 205.990552 121.927096 
L 212.478924 126.548915 
L 218.967297 118.378904 
L 225.455669 124.790072 
L 231.944041 125.251316 
L 238.432413 120.770586 
L 244.920785 123.722506 
L 251.409157 126.261586 
L 257.897529 125.848074 
L 264.385901 126.085053 
L 270.874273 121.407878 
L 277.362645 125.744209 
L 283.851017 122.043358 
L 290.33939 123.014927 
L 296.827762 122.193848 
L 303.316134 102.874664 
L 309.804506 121.415961 
L 316.292878 124.317276 
L 322.78125 123.395552 
L 322.78125 119.076115 
L 322.78125 119.076115 
L 316.292878 120.469237 
L 309.804506 116.345655 
L 303.316134 89.832774 
L 296.827762 117.609485 
L 290.33939 118.850074 
L 283.851017 117.546327 
L 277.362645 122.828672 
L 270.874273 116.814916 
L 264.385901 123.407941 
L 257.897529 123.128864 
L 251.409157 123.746931 
L 244.920785 120.311965 
L 238.432413 116.34285 
L 231.944041 122.502214 
L 225.455669 121.919665 
L 218.967297 113.314851 
L 212.478924 124.356051 
L 205.990552 118.185281 
L 199.50218 125.361033 
L 193.013808 126.287339 
L 186.525436 118.307608 
L 180.037064 125.233739 
L 173.548692 121.749043 
L 167.06032 123.746047 
L 160.571948 124.58034 
L 154.083576 91.795837 
L 147.595203 125.943296 
L 141.106831 125.593045 
L 134.618459 116.46452 
L 128.130087 126.466993 
L 121.641715 123.462382 
L 115.153343 125.616078 
L 108.664971 125.537126 
L 102.176599 122.157655 
L 95.688227 125.527197 
L 89.199855 127.822046 
L 82.711483 127.253921 
L 76.22311 124.178164 
L 69.734738 129.206594 
L 63.246366 127.104531 
L 56.757994 127.555068 
L 50.269622 128.96188 
L 43.78125 126.571524 
z
" clip-path="url(#pf7db408d6f)" style="fill: #009e73; fill-opacity: 0.8"/>
   </g>
   <g id="PolyCollection_3">
    <path d="M 43.78125 126.571524 
L 43.78125 126.571524 
L 50.269622 128.96188 
L 56.757994 127.555068 
L 63.246366 127.104531 
L 69.734738 129.206594 
L 76.22311 124.178164 
L 82.711483 127.253921 
L 89.199855 127.822046 
L 95.688227 125.527197 
L 102.176599 122.157655 
L 108.664971 125.537126 
L 115.153343 125.616078 
L 121.641715 123.462382 
L 128.130087 126.466993 
L 134.618459 116.46452 
L 141.106831 125.593045 
L 147.595203 125.943296 
L 154.083576 91.795837 
L 160.571948 124.58034 
L 167.06032 123.746047 
L 173.548692 121.749043 
L 180.037064 125.233739 
L 186.525436 118.307608 
L 193.013808 126.287339 
L 199.50218 125.361033 
L 205.990552 118.185281 
L 212.478924 124.356051 
L 218.967297 113.314851 
L 225.455669 121.919665 
L 231.944041 122.502214 
L 238.432413 116.34285 
L 244.920785 120.311965 
L 251.409157 123.746931 
L 257.897529 123.128864 
L 264.385901 123.407941 
L 270.874273 116.814916 
L 277.362645 122.828672 
L 283.851017 117.546327 
L 290.33939 118.850074 
L 296.827762 117.609485 
L 303.316134 89.832774 
L 309.804506 116.345655 
L 316.292878 120.469237 
L 322.78125 119.076115 
L 322.78125 119.076115 
L 322.78125 119.076115 
L 316.292878 120.469237 
L 309.804506 116.345655 
L 303.316134 89.832774 
L 296.827762 117.609485 
L 290.33939 118.850074 
L 283.851017 117.546327 
L 277.362645 122.828672 
L 270.874273 116.814916 
L 264.385901 123.407941 
L 257.897529 123.128864 
L 251.409157 123.746931 
L 244.920785 120.311965 
L 238.432413 116.34285 
L 231.944041 122.502214 
L 225.455669 121.919665 
L 218.967297 113.314851 
L 212.478924 124.356051 
L 205.990552 118.185281 
L 199.50218 125.361033 
L 193.013808 126.287339 
L 186.525436 118.307608 
L 180.037064 125.233739 
L 173.548692 121.749043 
L 167.06032 123.746047 
L 160.571948 124.58034 
L 154.083576 91.795837 
L 147.595203 125.943296 
L 141.106831 125.593045 
L 134.618459 116.46452 
L 128.130087 126.466993 
L 121.641715 123.462382 
L 115.153343 125.616078 
L 108.664971 125.537126 
L 102.176599 122.157655 
L 95.688227 125.527197 
L 89.199855 127.822046 
L 82.711483 127.253921 
L 76.22311 124.178164 
L 69.734738 129.206594 
L 63.246366 127.104531 
L 56.757994 127.555068 
L 50.269622 128.96188 
L 43.78125 126.571524 
z
" clip-path="url(#pf7db408d6f)" style="fill: #d55e00; fill-opacity: 0.8"/>
   </g>
   <g id="PolyCollection_4">
    <path d="M 43.78125 126.571524 
L 43.78125 126.571524 
L 50.269622 128.96188 
L 56.757994 127.555068 
L 63.246366 127.104531 
L 69.734738 129.206594 
L 76.22311 124.178164 
L 82.711483 127.253921 
L 89.199855 127.822046 
L 95.688227 125.527197 
L 102.176599 122.157655 
L 108.664971 125.537126 
L 115.153343 125.616078 
L 121.641715 123.462382 
L 128.130087 126.466993 
L 134.618459 116.46452 
L 141.106831 125.593045 
L 147.595203 125.943296 
L 154.083576 91.795837 
L 160.571948 124.58034 
L 167.06032 123.746047 
L 173.548692 121.749043 
L 180.037064 125.233739 
L 186.525436 118.307608 
L 193.013808 126.287339 
L 199.50218 125.361033 
L 205.990552 118.185281 
L 212.478924 124.356051 
L 218.967297 113.314851 
L 225.455669 121.919665 
L 231.944041 122.502214 
L 238.432413 116.34285 
L 244.920785 120.311965 
L 251.409157 123.746931 
L 257.897529 123.128864 
L 264.385901 123.407941 
L 270.874273 116.814916 
L 277.362645 122.828672 
L 283.851017 117.546327 
L 290.33939 118.850074 
L 296.827762 117.609485 
L 303.316134 89.832774 
L 309.804506 116.345655 
L 316.292878 120.469237 
L 322.78125 119.076115 
L 322.78125 119.076115 
L 322.78125 119.076115 
L 316.292878 120.469237 
L 309.804506 116.345655 
L 303.316134 89.832774 
L 296.827762 117.609485 
L 290.33939 118.850074 
L 283.851017 117.546327 
L 277.362645 122.828672 
L 270.874273 116.814916 
L 264.385901 123.407941 
L 257.897529 123.128864 
L 251.409157 123.746931 
L 244.920785 120.311965 
L 238.432413 116.34285 
L 231.944041 122.502214 
L 225.455669 121.919665 
L 218.967297 113.314851 
L 212.478924 124.356051 
L 205.990552 118.185281 
L 199.50218 125.361033 
L 193.013808 126.287339 
L 186.525436 118.307608 
L 180.037064 125.233739 
L 173.548692 121.749043 
L 167.06032 123.746047 
L 160.571948 124.58034 
L 154.083576 91.795837 
L 147.595203 125.943296 
L 141.106831 125.593045 
L 134.618459 116.46452 
L 128.130087 126.466993 
L 121.641715 123.462382 
L 115.153343 125.616078 
L 108.664971 125.537126 
L 102.176599 122.157655 
L 95.688227 125.527197 
L 89.199855 127.822046 
L 82.711483 127.253921 
L 76.22311 124.178164 
L 69.734738 129.206594 
L 63.246366 127.104531 
L 56.757994 127.555068 
L 50.269622 128.96188 
L 43.78125 126.571524 
z
" clip-path="url(#pf7db408d6f)" style="fill: #cc79a7; fill-opacity: 0.8"/>
   </g>
   <g id="PolyCollection_5">
    <path d="M 43.78125 107.778861 
L 43.78125 126.571524 
L 50.269622 128.96188 
L 56.757994 127.555068 
L 63.246366 127.104531 
L 69.734738 129.206594 
L 76.22311 124.178164 
L 82.711483 127.253921 
L 89.199855 127.822046 
L 95.688227 125.527197 
L 102.176599 122.157655 
L 108.664971 125.537126 
L 115.153343 125.616078 
L 121.641715 123.462382 
L 128.130087 126.466993 
L 134.618459 116.46452 
L 141.106831 125.593045 
L 147.595203 125.943296 
L 154.083576 91.795837 
L 160.571948 124.58034 
L 167.06032 123.746047 
L 173.548692 121.749043 
L 180.037064 125.233739 
L 186.525436 118.307608 
L 193.013808 126.287339 
L 199.50218 125.361033 
L 205.990552 118.185281 
L 212.478924 124.356051 
L 218.967297 113.314851 
L 225.455669 121.919665 
L 231.944041 122.502214 
L 238.432413 116.34285 
L 244.920785 120.311965 
L 251.409157 123.746931 
L 257.897529 123.128864 
L 264.385901 123.407941 
L 270.874273 116.814916 
L 277.362645 122.828672 
L 283.851017 117.546327 
L 290.33939 118.850074 
L 296.827762 117.609485 
L 303.316134 89.832774 
L 309.804506 116.345655 
L 316.292878 120.469237 
L 322.78125 119.076115 
L 322.78125 88.516973 
L 322.78125 88.516973 
L 316.292878 85.037275 
L 309.804506 84.807814 
L 303.316134 55.564763 
L 296.827762 92.417611 
L 290.33939 92.218645 
L 283.851017 92.009134 
L 277.362645 97.149739 
L 270.874273 88.90914 
L 264.385901 97.728142 
L 257.897529 91.545538 
L 251.409157 99.854676 
L 244.920785 99.006536 
L 238.432413 93.583739 
L 231.944041 98.088226 
L 225.455669 94.587402 
L 218.967297 88.430667 
L 212.478924 99.300172 
L 205.990552 94.986968 
L 199.50218 93.749037 
L 193.013808 104.425133 
L 186.525436 94.10091 
L 180.037064 104.711425 
L 173.548692 96.213222 
L 167.06032 98.337517 
L 160.571948 102.478542 
L 154.083576 64.955231 
L 147.595203 107.000959 
L 141.106831 106.145437 
L 134.618459 94.607529 
L 128.130087 109.044152 
L 121.641715 106.466962 
L 115.153343 108.677202 
L 108.664971 110.348792 
L 102.176599 104.703771 
L 95.688227 106.318115 
L 89.199855 111.906976 
L 82.711483 106.517419 
L 76.22311 109.358188 
L 69.734738 112.224104 
L 63.246366 107.014547 
L 56.757994 111.510038 
L 50.269622 109.210553 
L 43.78125 107.778861 
z
" clip-path="url(#pf7db408d6f)" style="fill: #f0e442; fill-opacity: 0.8"/>
   </g>
   <g id="PolyCollection_6">
    <path d="M 43.78125 98.743622 
L 43.78125 107.778861 
L 50.269622 109.210553 
L 56.757994 111.510038 
L 63.246366 107.014547 
L 69.734738 112.224104 
L 76.22311 109.358188 
L 82.711483 106.517419 
L 89.199855 111.906976 
L 95.688227 106.318115 
L 102.176599 104.703771 
L 108.664971 110.348792 
L 115.153343 108.677202 
L 121.641715 106.466962 
L 128.130087 109.044152 
L 134.618459 94.607529 
L 141.106831 106.145437 
L 147.595203 107.000959 
L 154.083576 64.955231 
L 160.571948 102.478542 
L 167.06032 98.337517 
L 173.548692 96.213222 
L 180.037064 104.711425 
L 186.525436 94.10091 
L 193.013808 104.425133 
L 199.50218 93.749037 
L 205.990552 94.986968 
L 212.478924 99.300172 
L 218.967297 88.430667 
L 225.455669 94.587402 
L 231.944041 98.088226 
L 238.432413 93.583739 
L 244.920785 99.006536 
L 251.409157 99.854676 
L 257.897529 91.545538 
L 264.385901 97.728142 
L 270.874273 88.90914 
L 277.362645 97.149739 
L 283.851017 92.009134 
L 290.33939 92.218645 
L 296.827762 92.417611 
L 303.316134 55.564763 
L 309.804506 84.807814 
L 316.292878 85.037275 
L 322.78125 88.516973 
L 322.78125 59.95844 
L 322.78125 59.95844 
L 316.292878 57.255618 
L 309.804506 57.834097 
L 303.316134 29.379768 
L 296.827762 66.978884 
L 290.33939 67.519138 
L 283.851017 68.065809 
L 277.362645 73.97587 
L 270.874273 66.449987 
L 264.385901 75.999084 
L 257.897529 70.516875 
L 251.409157 79.489984 
L 244.920785 79.282176 
L 238.432413 74.459231 
L 231.944041 79.529162 
L 225.455669 76.555108 
L 218.967297 70.882763 
L 212.478924 82.197839 
L 205.990552 78.299564 
L 199.50218 77.433488 
L 193.013808 88.456976 
L 186.525436 78.471484 
L 180.037064 89.421856 
L 173.548692 81.270065 
L 167.06032 83.746849 
L 160.571948 88.243554 
L 154.083576 51.071871 
L 147.595203 93.459444 
L 141.106831 92.935388 
L 134.618459 81.721192 
L 128.130087 96.482487 
L 121.641715 94.22409 
L 115.153343 96.747866 
L 108.664971 98.713949 
L 102.176599 93.357874 
L 95.688227 95.253874 
L 89.199855 101.118558 
L 82.711483 96.003694 
L 76.22311 99.094674 
L 69.734738 102.184252 
L 63.246366 97.205806 
L 56.757994 101.932654 
L 50.269622 99.868569 
L 43.78125 98.743622 
z
" clip-path="url(#pf7db408d6f)" style="fill: #56b4e9; fill-opacity: 0.8"/>
   </g>
   <g id="patch_3">
    <path d="M 47.674273 132.922625 
L 52.864971 132.922625 
L 52.864971 116.826243 
L 47.674273 116.826243 
z
" clip-path="url(#pf7db408d6f)" style="fill: url(#h0bcee6f57b); stroke: #ffffff; stroke-linejoin: miter"/>
   </g>
   <g id="patch_4">
    <path d="M 209.883576 132.922625 
L 215.074273 132.922625 
L 215.074273 116.584506 
L 209.883576 116.584506 
z
" clip-path="url(#pf7db408d6f)" style="fill: url(#h0bcee6f57b); stroke: #ffffff; stroke-linejoin: miter"/>
   </g>
   <g id="patch_5">
    <path d="M 294.232413 132.922625 
L 299.42311 132.922625 
L 299.42311 114.66674 
L 294.232413 114.66674 
z
" clip-path="url(#pf7db408d6f)" style="fill: url(#h0bcee6f57b); stroke: #ffffff; stroke-linejoin: miter"/>
   </g>
   <g id="patch_6">
    <path d="M 47.674273 116.826243 
L 52.864971 116.826243 
L 52.864971 106.392008 
L 47.674273 106.392008 
z
" clip-path="url(#pf7db408d6f)" style="stroke: #ffffff; stroke-linejoin: miter"/>
   </g>
   <g id="patch_7">
    <path d="M 209.883576 116.584506 
L 215.074273 116.584506 
L 215.074273 106.524513 
L 209.883576 106.524513 
z
" clip-path="url(#pf7db408d6f)" style="stroke: #ffffff; stroke-linejoin: miter"/>
   </g>
   <g id="patch_8">
    <path d="M 294.232413 114.66674 
L 299.42311 114.66674 
L 299.42311 106.746747 
L 294.232413 106.746747 
z
" clip-path="url(#pf7db408d6f)" style="stroke: #ffffff; stroke-linejoin: miter"/>
   </g>
   <g id="matplotlib.axis_1">
    <g id="xtick_1">
     <g id="line2d_1">
      <defs>
       <path id="md66c5e043a" d="M 0 0 
L 0 3.5 
" style="stroke: #000000; stroke-width: 0.8"/>
      </defs>
      <g>
       <use xlink:href="#md66c5e043a" x="50.269622" y="132.922625" style="stroke: #000000; stroke-width: 0.8"/>
      </g>
     </g>
     <g id="text_1">
      <!-- 1975 -->
      <g transform="translate(37.544622 147.521062) scale(0.1 -0.1)">
       <defs>
        <path id="DejaVuSans-31" d="M 794 531 
L 1825 531 
L 1825 4091 
L 703 3866 
L 703 4441 
L 1819 4666 
L 2450 4666 
L 2450 531 
L 3481 531 
L 3481 0 
L 794 0 
L 794 531 
z
" transform="scale(0.015625)"/>
        <path id="DejaVuSans-39" d="M 703 97 
L 703 672 
Q 941 559 1184 500 
Q 1428 441 1663 441 
Q 2288 441 2617 861 
Q 2947 1281 2994 2138 
Q 2813 1869 2534 1725 
Q 2256 1581 1919 1581 
Q 1219 1581 811 2004 
Q 403 2428 403 3163 
Q 403 3881 828 4315 
Q 1253 4750 1959 4750 
Q 2769 4750 3195 4129 
Q 3622 3509 3622 2328 
Q 3622 1225 3098 567 
Q 2575 -91 1691 -91 
Q 1453 -91 1209 -44 
Q 966 3 703 97 
z
M 1959 2075 
Q 2384 2075 2632 2365 
Q 2881 2656 2881 3163 
Q 2881 3666 2632 3958 
Q 2384 4250 1959 4250 
Q 1534 4250 1286 3958 
Q 1038 3666 1038 3163 
Q 1038 2656 1286 2365 
Q 1534 2075 1959 2075 
z
" transform="scale(0.015625)"/>
        <path id="DejaVuSans-37" d="M 525 4666 
L 3525 4666 
L 3525 4397 
L 1831 0 
L 1172 0 
L 2766 4134 
L 525 4134 
L 525 4666 
z
" transform="scale(0.015625)"/>
        <path id="DejaVuSans-35" d="M 691 4666 
L 3169 4666 
L 3169 4134 
L 1269 4134 
L 1269 2991 
Q 1406 3038 1543 3061 
Q 1681 3084 1819 3084 
Q 2600 3084 3056 2656 
Q 3513 2228 3513 1497 
Q 3513 744 3044 326 
Q 2575 -91 1722 -91 
Q 1428 -91 1123 -41 
Q 819 9 494 109 
L 494 744 
Q 775 591 1075 516 
Q 1375 441 1709 441 
Q 2250 441 2565 725 
Q 2881 1009 2881 1497 
Q 2881 1984 2565 2268 
Q 2250 2553 1709 2553 
Q 1456 2553 1204 2497 
Q 953 2441 691 2322 
L 691 4666 
z
" transform="scale(0.015625)"/>
       </defs>
       <use xlink:href="#DejaVuSans-31"/>
       <use xlink:href="#DejaVuSans-39" x="63.623047"/>
       <use xlink:href="#DejaVuSans-37" x="127.246094"/>
       <use xlink:href="#DejaVuSans-35" x="190.869141"/>
      </g>
     </g>
    </g>
    <g id="xtick_2">
     <g id="line2d_2">
      <g>
       <use xlink:href="#md66c5e043a" x="82.711483" y="132.922625" style="stroke: #000000; stroke-width: 0.8"/>
      </g>
     </g>
     <g id="text_2">
      <!-- 1980 -->
      <g transform="translate(69.986483 147.521062) scale(0.1 -0.1)">
       <defs>
        <path id="DejaVuSans-38" d="M 2034 2216 
Q 1584 2216 1326 1975 
Q 1069 1734 1069 1313 
Q 1069 891 1326 650 
Q 1584 409 2034 409 
Q 2484 409 2743 651 
Q 3003 894 3003 1313 
Q 3003 1734 2745 1975 
Q 2488 2216 2034 2216 
z
M 1403 2484 
Q 997 2584 770 2862 
Q 544 3141 544 3541 
Q 544 4100 942 4425 
Q 1341 4750 2034 4750 
Q 2731 4750 3128 4425 
Q 3525 4100 3525 3541 
Q 3525 3141 3298 2862 
Q 3072 2584 2669 2484 
Q 3125 2378 3379 2068 
Q 3634 1759 3634 1313 
Q 3634 634 3220 271 
Q 2806 -91 2034 -91 
Q 1263 -91 848 271 
Q 434 634 434 1313 
Q 434 1759 690 2068 
Q 947 2378 1403 2484 
z
M 1172 3481 
Q 1172 3119 1398 2916 
Q 1625 2713 2034 2713 
Q 2441 2713 2670 2916 
Q 2900 3119 2900 3481 
Q 2900 3844 2670 4047 
Q 2441 4250 2034 4250 
Q 1625 4250 1398 4047 
Q 1172 3844 1172 3481 
z
" transform="scale(0.015625)"/>
        <path id="DejaVuSans-30" d="M 2034 4250 
Q 1547 4250 1301 3770 
Q 1056 3291 1056 2328 
Q 1056 1369 1301 889 
Q 1547 409 2034 409 
Q 2525 409 2770 889 
Q 3016 1369 3016 2328 
Q 3016 3291 2770 3770 
Q 2525 4250 2034 4250 
z
M 2034 4750 
Q 2819 4750 3233 4129 
Q 3647 3509 3647 2328 
Q 3647 1150 3233 529 
Q 2819 -91 2034 -91 
Q 1250 -91 836 529 
Q 422 1150 422 2328 
Q 422 3509 836 4129 
Q 1250 4750 2034 4750 
z
" transform="scale(0.015625)"/>
       </defs>
       <use xlink:href="#DejaVuSans-31"/>
       <use xlink:href="#DejaVuSans-39" x="63.623047"/>
       <use xlink:href="#DejaVuSans-38" x="127.246094"/>
       <use xlink:href="#DejaVuSans-30" x="190.869141"/>
      </g>
     </g>
    </g>
    <g id="xtick_3">
     <g id="line2d_3">
      <g>
       <use xlink:href="#md66c5e043a" x="115.153343" y="132.922625" style="stroke: #000000; stroke-width: 0.8"/>
      </g>
     </g>
     <g id="text_3">
      <!-- 1985 -->
      <g transform="translate(102.428343 147.521062) scale(0.1 -0.1)">
       <use xlink:href="#DejaVuSans-31"/>
       <use xlink:href="#DejaVuSans-39" x="63.623047"/>
       <use xlink:href="#DejaVuSans-38" x="127.246094"/>
       <use xlink:href="#DejaVuSans-35" x="190.869141"/>
      </g>
     </g>
    </g>
    <g id="xtick_4">
     <g id="line2d_4">
      <g>
       <use xlink:href="#md66c5e043a" x="147.595203" y="132.922625" style="stroke: #000000; stroke-width: 0.8"/>
      </g>
     </g>
     <g id="text_4">
      <!-- 1990 -->
      <g transform="translate(134.870203 147.521062) scale(0.1 -0.1)">
       <use xlink:href="#DejaVuSans-31"/>
       <use xlink:href="#DejaVuSans-39" x="63.623047"/>
       <use xlink:href="#DejaVuSans-39" x="127.246094"/>
       <use xlink:href="#DejaVuSans-30" x="190.869141"/>
      </g>
     </g>
    </g>
    <g id="xtick_5">
     <g id="line2d_5">
      <g>
       <use xlink:href="#md66c5e043a" x="180.037064" y="132.922625" style="stroke: #000000; stroke-width: 0.8"/>
      </g>
     </g>
     <g id="text_5">
      <!-- 1995 -->
      <g transform="translate(167.312064 147.521062) scale(0.1 -0.1)">
       <use xlink:href="#DejaVuSans-31"/>
       <use xlink:href="#DejaVuSans-39" x="63.623047"/>
       <use xlink:href="#DejaVuSans-39" x="127.246094"/>
       <use xlink:href="#DejaVuSans-35" x="190.869141"/>
      </g>
     </g>
    </g>
    <g id="xtick_6">
     <g id="line2d_6">
      <g>
       <use xlink:href="#md66c5e043a" x="212.478924" y="132.922625" style="stroke: #000000; stroke-width: 0.8"/>
      </g>
     </g>
     <g id="text_6">
      <!-- 2000 -->
      <g transform="translate(199.753924 147.521062) scale(0.1 -0.1)">
       <defs>
        <path id="DejaVuSans-32" d="M 1228 531 
L 3431 531 
L 3431 0 
L 469 0 
L 469 531 
Q 828 903 1448 1529 
Q 2069 2156 2228 2338 
Q 2531 2678 2651 2914 
Q 2772 3150 2772 3378 
Q 2772 3750 2511 3984 
Q 2250 4219 1831 4219 
Q 1534 4219 1204 4116 
Q 875 4013 500 3803 
L 500 4441 
Q 881 4594 1212 4672 
Q 1544 4750 1819 4750 
Q 2544 4750 2975 4387 
Q 3406 4025 3406 3419 
Q 3406 3131 3298 2873 
Q 3191 2616 2906 2266 
Q 2828 2175 2409 1742 
Q 1991 1309 1228 531 
z
" transform="scale(0.015625)"/>
       </defs>
       <use xlink:href="#DejaVuSans-32"/>
       <use xlink:href="#DejaVuSans-30" x="63.623047"/>
       <use xlink:href="#DejaVuSans-30" x="127.246094"/>
       <use xlink:href="#DejaVuSans-30" x="190.869141"/>
      </g>
     </g>
    </g>
    <g id="xtick_7">
     <g id="line2d_7">
      <g>
       <use xlink:href="#md66c5e043a" x="244.920785" y="132.922625" style="stroke: #000000; stroke-width: 0.8"/>
      </g>
     </g>
     <g id="text_7">
      <!-- 2005 -->
      <g transform="translate(232.195785 147.521062) scale(0.1 -0.1)">
       <use xlink:href="#DejaVuSans-32"/>
       <use xlink:href="#DejaVuSans-30" x="63.623047"/>
       <use xlink:href="#DejaVuSans-30" x="127.246094"/>
       <use xlink:href="#DejaVuSans-35" x="190.869141"/>
      </g>
     </g>
    </g>
    <g id="xtick_8">
     <g id="line2d_8">
      <g>
       <use xlink:href="#md66c5e043a" x="277.362645" y="132.922625" style="stroke: #000000; stroke-width: 0.8"/>
      </g>
     </g>
     <g id="text_8">
      <!-- 2010 -->
      <g transform="translate(264.637645 147.521062) scale(0.1 -0.1)">
       <use xlink:href="#DejaVuSans-32"/>
       <use xlink:href="#DejaVuSans-30" x="63.623047"/>
       <use xlink:href="#DejaVuSans-31" x="127.246094"/>
       <use xlink:href="#DejaVuSans-30" x="190.869141"/>
      </g>
     </g>
    </g>
    <g id="xtick_9">
     <g id="line2d_9">
      <g>
       <use xlink:href="#md66c5e043a" x="309.804506" y="132.922625" style="stroke: #000000; stroke-width: 0.8"/>
      </g>
     </g>
     <g id="text_9">
      <!-- 2015 -->
      <g transform="translate(297.079506 147.521062) scale(0.1 -0.1)">
       <use xlink:href="#DejaVuSans-32"/>
       <use xlink:href="#DejaVuSans-30" x="63.623047"/>
       <use xlink:href="#DejaVuSans-31" x="127.246094"/>
       <use xlink:href="#DejaVuSans-35" x="190.869141"/>
      </g>
     </g>
    </g>
    <g id="text_10">
     <!-- Year -->
     <g transform="translate(172.69375 161.199187) scale(0.1 -0.1)">
      <defs>
       <path id="DejaVuSans-59" d="M -13 4666 
L 666 4666 
L 1959 2747 
L 3244 4666 
L 3922 4666 
L 2272 2222 
L 2272 0 
L 1638 0 
L 1638 2222 
L -13 4666 
z
" transform="scale(0.015625)"/>
       <path id="DejaVuSans-65" d="M 3597 1894 
L 3597 1613 
L 953 1613 
Q 991 1019 1311 708 
Q 1631 397 2203 397 
Q 2534 397 2845 478 
Q 3156 559 3463 722 
L 3463 178 
Q 3153 47 2828 -22 
Q 2503 -91 2169 -91 
Q 1331 -91 842 396 
Q 353 884 353 1716 
Q 353 2575 817 3079 
Q 1281 3584 2069 3584 
Q 2775 3584 3186 3129 
Q 3597 2675 3597 1894 
z
M 3022 2063 
Q 3016 2534 2758 2815 
Q 2500 3097 2075 3097 
Q 1594 3097 1305 2825 
Q 1016 2553 972 2059 
L 3022 2063 
z
" transform="scale(0.015625)"/>
       <path id="DejaVuSans-61" d="M 2194 1759 
Q 1497 1759 1228 1600 
Q 959 1441 959 1056 
Q 959 750 1161 570 
Q 1363 391 1709 391 
Q 2188 391 2477 730 
Q 2766 1069 2766 1631 
L 2766 1759 
L 2194 1759 
z
M 3341 1997 
L 3341 0 
L 2766 0 
L 2766 531 
Q 2569 213 2275 61 
Q 1981 -91 1556 -91 
Q 1019 -91 701 211 
Q 384 513 384 1019 
Q 384 1609 779 1909 
Q 1175 2209 1959 2209 
L 2766 2209 
L 2766 2266 
Q 2766 2663 2505 2880 
Q 2244 3097 1772 3097 
Q 1472 3097 1187 3025 
Q 903 2953 641 2809 
L 641 3341 
Q 956 3463 1253 3523 
Q 1550 3584 1831 3584 
Q 2591 3584 2966 3190 
Q 3341 2797 3341 1997 
z
" transform="scale(0.015625)"/>
       <path id="DejaVuSans-72" d="M 2631 2963 
Q 2534 3019 2420 3045 
Q 2306 3072 2169 3072 
Q 1681 3072 1420 2755 
Q 1159 2438 1159 1844 
L 1159 0 
L 581 0 
L 581 3500 
L 1159 3500 
L 1159 2956 
Q 1341 3275 1631 3429 
Q 1922 3584 2338 3584 
Q 2397 3584 2469 3576 
Q 2541 3569 2628 3553 
L 2631 2963 
z
" transform="scale(0.015625)"/>
      </defs>
      <use xlink:href="#DejaVuSans-59"/>
      <use xlink:href="#DejaVuSans-65" x="47.833984"/>
      <use xlink:href="#DejaVuSans-61" x="109.357422"/>
      <use xlink:href="#DejaVuSans-72" x="170.636719"/>
     </g>
    </g>
   </g>
   <g id="matplotlib.axis_2">
    <g id="ytick_1">
     <g id="line2d_10">
      <defs>
       <path id="m02de18a777" d="M 0 0 
L -3.5 0 
" style="stroke: #000000; stroke-width: 0.8"/>
      </defs>
      <g>
       <use xlink:href="#m02de18a777" x="43.78125" y="132.922625" style="stroke: #000000; stroke-width: 0.8"/>
      </g>
     </g>
     <g id="text_11">
      <!-- 0.0 -->
      <g transform="translate(20.878125 136.721844) scale(0.1 -0.1)">
       <defs>
        <path id="DejaVuSans-2e" d="M 684 794 
L 1344 794 
L 1344 0 
L 684 0 
L 684 794 
z
" transform="scale(0.015625)"/>
       </defs>
       <use xlink:href="#DejaVuSans-30"/>
       <use xlink:href="#DejaVuSans-2e" x="63.623047"/>
       <use xlink:href="#DejaVuSans-30" x="95.410156"/>
      </g>
     </g>
    </g>
    <g id="ytick_2">
     <g id="line2d_11">
      <g>
       <use xlink:href="#m02de18a777" x="43.78125" y="92.596979" style="stroke: #000000; stroke-width: 0.8"/>
      </g>
     </g>
     <g id="text_12">
      <!-- 0.5 -->
      <g transform="translate(20.878125 96.396198) scale(0.1 -0.1)">
       <use xlink:href="#DejaVuSans-30"/>
       <use xlink:href="#DejaVuSans-2e" x="63.623047"/>
       <use xlink:href="#DejaVuSans-35" x="95.410156"/>
      </g>
     </g>
    </g>
    <g id="ytick_3">
     <g id="line2d_12">
      <g>
       <use xlink:href="#m02de18a777" x="43.78125" y="52.271334" style="stroke: #000000; stroke-width: 0.8"/>
      </g>
     </g>
     <g id="text_13">
      <!-- 1.0 -->
      <g transform="translate(20.878125 56.070553) scale(0.1 -0.1)">
       <use xlink:href="#DejaVuSans-31"/>
       <use xlink:href="#DejaVuSans-2e" x="63.623047"/>
       <use xlink:href="#DejaVuSans-30" x="95.410156"/>
      </g>
     </g>
    </g>
    <g id="text_14">
     <!-- Area (ha) -->
     <g transform="translate(14.798438 101.789969) rotate(-90) scale(0.1 -0.1)">
      <defs>
       <path id="DejaVuSans-41" d="M 2188 4044 
L 1331 1722 
L 3047 1722 
L 2188 4044 
z
M 1831 4666 
L 2547 4666 
L 4325 0 
L 3669 0 
L 3244 1197 
L 1141 1197 
L 716 0 
L 50 0 
L 1831 4666 
z
" transform="scale(0.015625)"/>
       <path id="DejaVuSans-20" transform="scale(0.015625)"/>
       <path id="DejaVuSans-28" d="M 1984 4856 
Q 1566 4138 1362 3434 
Q 1159 2731 1159 2009 
Q 1159 1288 1364 580 
Q 1569 -128 1984 -844 
L 1484 -844 
Q 1016 -109 783 600 
Q 550 1309 550 2009 
Q 550 2706 781 3412 
Q 1013 4119 1484 4856 
L 1984 4856 
z
" transform="scale(0.015625)"/>
       <path id="DejaVuSans-68" d="M 3513 2113 
L 3513 0 
L 2938 0 
L 2938 2094 
Q 2938 2591 2744 2837 
Q 2550 3084 2163 3084 
Q 1697 3084 1428 2787 
Q 1159 2491 1159 1978 
L 1159 0 
L 581 0 
L 581 4863 
L 1159 4863 
L 1159 2956 
Q 1366 3272 1645 3428 
Q 1925 3584 2291 3584 
Q 2894 3584 3203 3211 
Q 3513 2838 3513 2113 
z
" transform="scale(0.015625)"/>
       <path id="DejaVuSans-29" d="M 513 4856 
L 1013 4856 
Q 1481 4119 1714 3412 
Q 1947 2706 1947 2009 
Q 1947 1309 1714 600 
Q 1481 -109 1013 -844 
L 513 -844 
Q 928 -128 1133 580 
Q 1338 1288 1338 2009 
Q 1338 2731 1133 3434 
Q 928 4138 513 4856 
z
" transform="scale(0.015625)"/>
      </defs>
      <use xlink:href="#DejaVuSans-41"/>
      <use xlink:href="#DejaVuSans-72" x="68.408203"/>
      <use xlink:href="#DejaVuSans-65" x="107.271484"/>
      <use xlink:href="#DejaVuSans-61" x="168.794922"/>
      <use xlink:href="#DejaVuSans-20" x="230.074219"/>
      <use xlink:href="#DejaVuSans-28" x="261.861328"/>
      <use xlink:href="#DejaVuSans-68" x="300.875"/>
      <use xlink:href="#DejaVuSans-61" x="364.253906"/>
      <use xlink:href="#DejaVuSans-29" x="425.533203"/>
     </g>
    </g>
    <g id="text_15">
     <!-- 1e7 -->
     <g transform="translate(43.78125 21.202625) scale(0.1 -0.1)">
      <use xlink:href="#DejaVuSans-31"/>
      <use xlink:href="#DejaVuSans-65" x="63.623047"/>
      <use xlink:href="#DejaVuSans-37" x="125.146484"/>
     </g>
    </g>
   </g>
   <g id="line2d_13">
    <path d="M 43.78125 104.725321 
L 322.78125 104.725321 
" clip-path="url(#pf7db408d6f)" style="fill: none; stroke-dasharray: 1.5,2.475; stroke-dashoffset: 0; stroke: #000000; stroke-width: 1.5"/>
   </g>
   <g id="patch_9">
    <path d="M 43.78125 132.922625 
L 43.78125 24.202625 
" style="fill: none; stroke: #000000; stroke-width: 0.8; stroke-linejoin: miter; stroke-linecap: square"/>
   </g>
   <g id="patch_10">
    <path d="M 322.78125 132.922625 
L 322.78125 24.202625 
" style="fill: none; stroke: #000000; stroke-width: 0.8; stroke-linejoin: miter; stroke-linecap: square"/>
   </g>
   <g id="patch_11">
    <path d="M 43.78125 132.922625 
L 322.78125 132.922625 
" style="fill: none; stroke: #000000; stroke-width: 0.8; stroke-linejoin: miter; stroke-linecap: square"/>
   </g>
   <g id="patch_12">
    <path d="M 43.78125 24.202625 
L 322.78125 24.202625 
" style="fill: none; stroke: #000000; stroke-width: 0.8; stroke-linejoin: miter; stroke-linecap: square"/>
   </g>
   <g id="text_16">
    <!-- groundnut -->
    <g transform="translate(152.098125 18.202625) scale(0.12 -0.12)">
     <defs>
      <path id="DejaVuSans-67" d="M 2906 1791 
Q 2906 2416 2648 2759 
Q 2391 3103 1925 3103 
Q 1463 3103 1205 2759 
Q 947 2416 947 1791 
Q 947 1169 1205 825 
Q 1463 481 1925 481 
Q 2391 481 2648 825 
Q 2906 1169 2906 1791 
z
M 3481 434 
Q 3481 -459 3084 -895 
Q 2688 -1331 1869 -1331 
Q 1566 -1331 1297 -1286 
Q 1028 -1241 775 -1147 
L 775 -588 
Q 1028 -725 1275 -790 
Q 1522 -856 1778 -856 
Q 2344 -856 2625 -561 
Q 2906 -266 2906 331 
L 2906 616 
Q 2728 306 2450 153 
Q 2172 0 1784 0 
Q 1141 0 747 490 
Q 353 981 353 1791 
Q 353 2603 747 3093 
Q 1141 3584 1784 3584 
Q 2172 3584 2450 3431 
Q 2728 3278 2906 2969 
L 2906 3500 
L 3481 3500 
L 3481 434 
z
" transform="scale(0.015625)"/>
      <path id="DejaVuSans-6f" d="M 1959 3097 
Q 1497 3097 1228 2736 
Q 959 2375 959 1747 
Q 959 1119 1226 758 
Q 1494 397 1959 397 
Q 2419 397 2687 759 
Q 2956 1122 2956 1747 
Q 2956 2369 2687 2733 
Q 2419 3097 1959 3097 
z
M 1959 3584 
Q 2709 3584 3137 3096 
Q 3566 2609 3566 1747 
Q 3566 888 3137 398 
Q 2709 -91 1959 -91 
Q 1206 -91 779 398 
Q 353 888 353 1747 
Q 353 2609 779 3096 
Q 1206 3584 1959 3584 
z
" transform="scale(0.015625)"/>
      <path id="DejaVuSans-75" d="M 544 1381 
L 544 3500 
L 1119 3500 
L 1119 1403 
Q 1119 906 1312 657 
Q 1506 409 1894 409 
Q 2359 409 2629 706 
Q 2900 1003 2900 1516 
L 2900 3500 
L 3475 3500 
L 3475 0 
L 2900 0 
L 2900 538 
Q 2691 219 2414 64 
Q 2138 -91 1772 -91 
Q 1169 -91 856 284 
Q 544 659 544 1381 
z
M 1991 3584 
L 1991 3584 
z
" transform="scale(0.015625)"/>
      <path id="DejaVuSans-6e" d="M 3513 2113 
L 3513 0 
L 2938 0 
L 2938 2094 
Q 2938 2591 2744 2837 
Q 2550 3084 2163 3084 
Q 1697 3084 1428 2787 
Q 1159 2491 1159 1978 
L 1159 0 
L 581 0 
L 581 3500 
L 1159 3500 
L 1159 2956 
Q 1366 3272 1645 3428 
Q 1925 3584 2291 3584 
Q 2894 3584 3203 3211 
Q 3513 2838 3513 2113 
z
" transform="scale(0.015625)"/>
      <path id="DejaVuSans-64" d="M 2906 2969 
L 2906 4863 
L 3481 4863 
L 3481 0 
L 2906 0 
L 2906 525 
Q 2725 213 2448 61 
Q 2172 -91 1784 -91 
Q 1150 -91 751 415 
Q 353 922 353 1747 
Q 353 2572 751 3078 
Q 1150 3584 1784 3584 
Q 2172 3584 2448 3432 
Q 2725 3281 2906 2969 
z
M 947 1747 
Q 947 1113 1208 752 
Q 1469 391 1925 391 
Q 2381 391 2643 752 
Q 2906 1113 2906 1747 
Q 2906 2381 2643 2742 
Q 2381 3103 1925 3103 
Q 1469 3103 1208 2742 
Q 947 2381 947 1747 
z
" transform="scale(0.015625)"/>
      <path id="DejaVuSans-74" d="M 1172 4494 
L 1172 3500 
L 2356 3500 
L 2356 3053 
L 1172 3053 
L 1172 1153 
Q 1172 725 1289 603 
Q 1406 481 1766 481 
L 2356 481 
L 2356 0 
L 1766 0 
Q 1100 0 847 248 
Q 594 497 594 1153 
L 594 3053 
L 172 3053 
L 172 3500 
L 594 3500 
L 594 4494 
L 1172 4494 
z
" transform="scale(0.015625)"/>
     </defs>
     <use xlink:href="#DejaVuSans-67"/>
     <use xlink:href="#DejaVuSans-72" x="63.476562"/>
     <use xlink:href="#DejaVuSans-6f" x="102.339844"/>
     <use xlink:href="#DejaVuSans-75" x="163.521484"/>
     <use xlink:href="#DejaVuSans-6e" x="226.900391"/>
     <use xlink:href="#DejaVuSans-64" x="290.279297"/>
     <use xlink:href="#DejaVuSans-6e" x="353.755859"/>
     <use xlink:href="#DejaVuSans-75" x="417.134766"/>
     <use xlink:href="#DejaVuSans-74" x="480.513672"/>
    </g>
   </g>
   <g id="legend_1">
    <g id="patch_13">
     <path d="M 329.78125 128.18125 
L 517.242188 128.18125 
Q 519.242188 128.18125 519.242188 126.18125 
L 519.242188 9.2 
Q 519.242188 7.2 517.242188 7.2 
L 329.78125 7.2 
Q 327.78125 7.2 327.78125 9.2 
L 327.78125 126.18125 
Q 327.78125 128.18125 329.78125 128.18125 
z
" style="fill: #ffffff; opacity: 0.8; stroke: #cccccc; stroke-linejoin: miter"/>
    </g>
    <g id="patch_14">
     <path d="M 331.78125 18.798438 
L 351.78125 18.798438 
L 351.78125 11.798438 
L 331.78125 11.798438 
z
" style="fill: #0072b2; fill-opacity: 0.8"/>
    </g>
    <g id="text_17">
     <!-- crop_subs -->
     <g transform="translate(359.78125 18.798438) scale(0.1 -0.1)">
      <defs>
       <path id="DejaVuSans-63" d="M 3122 3366 
L 3122 2828 
Q 2878 2963 2633 3030 
Q 2388 3097 2138 3097 
Q 1578 3097 1268 2742 
Q 959 2388 959 1747 
Q 959 1106 1268 751 
Q 1578 397 2138 397 
Q 2388 397 2633 464 
Q 2878 531 3122 666 
L 3122 134 
Q 2881 22 2623 -34 
Q 2366 -91 2075 -91 
Q 1284 -91 818 406 
Q 353 903 353 1747 
Q 353 2603 823 3093 
Q 1294 3584 2113 3584 
Q 2378 3584 2631 3529 
Q 2884 3475 3122 3366 
z
" transform="scale(0.015625)"/>
       <path id="DejaVuSans-70" d="M 1159 525 
L 1159 -1331 
L 581 -1331 
L 581 3500 
L 1159 3500 
L 1159 2969 
Q 1341 3281 1617 3432 
Q 1894 3584 2278 3584 
Q 2916 3584 3314 3078 
Q 3713 2572 3713 1747 
Q 3713 922 3314 415 
Q 2916 -91 2278 -91 
Q 1894 -91 1617 61 
Q 1341 213 1159 525 
z
M 3116 1747 
Q 3116 2381 2855 2742 
Q 2594 3103 2138 3103 
Q 1681 3103 1420 2742 
Q 1159 2381 1159 1747 
Q 1159 1113 1420 752 
Q 1681 391 2138 391 
Q 2594 391 2855 752 
Q 3116 1113 3116 1747 
z
" transform="scale(0.015625)"/>
       <path id="DejaVuSans-5f" d="M 3263 -1063 
L 3263 -1509 
L -63 -1509 
L -63 -1063 
L 3263 -1063 
z
" transform="scale(0.015625)"/>
       <path id="DejaVuSans-73" d="M 2834 3397 
L 2834 2853 
Q 2591 2978 2328 3040 
Q 2066 3103 1784 3103 
Q 1356 3103 1142 2972 
Q 928 2841 928 2578 
Q 928 2378 1081 2264 
Q 1234 2150 1697 2047 
L 1894 2003 
Q 2506 1872 2764 1633 
Q 3022 1394 3022 966 
Q 3022 478 2636 193 
Q 2250 -91 1575 -91 
Q 1294 -91 989 -36 
Q 684 19 347 128 
L 347 722 
Q 666 556 975 473 
Q 1284 391 1588 391 
Q 1994 391 2212 530 
Q 2431 669 2431 922 
Q 2431 1156 2273 1281 
Q 2116 1406 1581 1522 
L 1381 1569 
Q 847 1681 609 1914 
Q 372 2147 372 2553 
Q 372 3047 722 3315 
Q 1072 3584 1716 3584 
Q 2034 3584 2315 3537 
Q 2597 3491 2834 3397 
z
" transform="scale(0.015625)"/>
       <path id="DejaVuSans-62" d="M 3116 1747 
Q 3116 2381 2855 2742 
Q 2594 3103 2138 3103 
Q 1681 3103 1420 2742 
Q 1159 2381 1159 1747 
Q 1159 1113 1420 752 
Q 1681 391 2138 391 
Q 2594 391 2855 752 
Q 3116 1113 3116 1747 
z
M 1159 2969 
Q 1341 3281 1617 3432 
Q 1894 3584 2278 3584 
Q 2916 3584 3314 3078 
Q 3713 2572 3713 1747 
Q 3713 922 3314 415 
Q 2916 -91 2278 -91 
Q 1894 -91 1617 61 
Q 1341 213 1159 525 
L 1159 0 
L 581 0 
L 581 4863 
L 1159 4863 
L 1159 2969 
z
" transform="scale(0.015625)"/>
      </defs>
      <use xlink:href="#DejaVuSans-63"/>
      <use xlink:href="#DejaVuSans-72" x="54.980469"/>
      <use xlink:href="#DejaVuSans-6f" x="93.84375"/>
      <use xlink:href="#DejaVuSans-70" x="155.025391"/>
      <use xlink:href="#DejaVuSans-5f" x="218.501953"/>
      <use xlink:href="#DejaVuSans-73" x="268.501953"/>
      <use xlink:href="#DejaVuSans-75" x="320.601562"/>
      <use xlink:href="#DejaVuSans-62" x="383.980469"/>
      <use xlink:href="#DejaVuSans-73" x="447.457031"/>
     </g>
    </g>
    <g id="patch_15">
     <path d="M 331.78125 33.754688 
L 351.78125 33.754688 
L 351.78125 26.754688 
L 331.78125 26.754688 
z
" style="fill: #009e73; fill-opacity: 0.8"/>
    </g>
    <g id="text_18">
     <!-- crop_mark -->
     <g transform="translate(359.78125 33.754688) scale(0.1 -0.1)">
      <defs>
       <path id="DejaVuSans-6d" d="M 3328 2828 
Q 3544 3216 3844 3400 
Q 4144 3584 4550 3584 
Q 5097 3584 5394 3201 
Q 5691 2819 5691 2113 
L 5691 0 
L 5113 0 
L 5113 2094 
Q 5113 2597 4934 2840 
Q 4756 3084 4391 3084 
Q 3944 3084 3684 2787 
Q 3425 2491 3425 1978 
L 3425 0 
L 2847 0 
L 2847 2094 
Q 2847 2600 2669 2842 
Q 2491 3084 2119 3084 
Q 1678 3084 1418 2786 
Q 1159 2488 1159 1978 
L 1159 0 
L 581 0 
L 581 3500 
L 1159 3500 
L 1159 2956 
Q 1356 3278 1631 3431 
Q 1906 3584 2284 3584 
Q 2666 3584 2933 3390 
Q 3200 3197 3328 2828 
z
" transform="scale(0.015625)"/>
       <path id="DejaVuSans-6b" d="M 581 4863 
L 1159 4863 
L 1159 1991 
L 2875 3500 
L 3609 3500 
L 1753 1863 
L 3688 0 
L 2938 0 
L 1159 1709 
L 1159 0 
L 581 0 
L 581 4863 
z
" transform="scale(0.015625)"/>
      </defs>
      <use xlink:href="#DejaVuSans-63"/>
      <use xlink:href="#DejaVuSans-72" x="54.980469"/>
      <use xlink:href="#DejaVuSans-6f" x="93.84375"/>
      <use xlink:href="#DejaVuSans-70" x="155.025391"/>
      <use xlink:href="#DejaVuSans-5f" x="218.501953"/>
      <use xlink:href="#DejaVuSans-6d" x="268.501953"/>
      <use xlink:href="#DejaVuSans-61" x="365.914062"/>
      <use xlink:href="#DejaVuSans-72" x="427.193359"/>
      <use xlink:href="#DejaVuSans-6b" x="468.306641"/>
     </g>
    </g>
    <g id="patch_16">
     <path d="M 331.78125 48.710938 
L 351.78125 48.710938 
L 351.78125 41.710938 
L 331.78125 41.710938 
z
" style="fill: #d55e00; fill-opacity: 0.8"/>
    </g>
    <g id="text_19">
     <!-- fal -->
     <g transform="translate(359.78125 48.710938) scale(0.1 -0.1)">
      <defs>
       <path id="DejaVuSans-66" d="M 2375 4863 
L 2375 4384 
L 1825 4384 
Q 1516 4384 1395 4259 
Q 1275 4134 1275 3809 
L 1275 3500 
L 2222 3500 
L 2222 3053 
L 1275 3053 
L 1275 0 
L 697 0 
L 697 3053 
L 147 3053 
L 147 3500 
L 697 3500 
L 697 3744 
Q 697 4328 969 4595 
Q 1241 4863 1831 4863 
L 2375 4863 
z
" transform="scale(0.015625)"/>
       <path id="DejaVuSans-6c" d="M 603 4863 
L 1178 4863 
L 1178 0 
L 603 0 
L 603 4863 
z
" transform="scale(0.015625)"/>
      </defs>
      <use xlink:href="#DejaVuSans-66"/>
      <use xlink:href="#DejaVuSans-61" x="35.205078"/>
      <use xlink:href="#DejaVuSans-6c" x="96.484375"/>
     </g>
    </g>
    <g id="patch_17">
     <path d="M 331.78125 63.389063 
L 351.78125 63.389063 
L 351.78125 56.389063 
L 331.78125 56.389063 
z
" style="fill: #cc79a7; fill-opacity: 0.8"/>
    </g>
    <g id="text_20">
     <!-- un -->
     <g transform="translate(359.78125 63.389063) scale(0.1 -0.1)">
      <use xlink:href="#DejaVuSans-75"/>
      <use xlink:href="#DejaVuSans-6e" x="63.378906"/>
     </g>
    </g>
    <g id="patch_18">
     <path d="M 331.78125 78.067188 
L 351.78125 78.067188 
L 351.78125 71.067188 
L 331.78125 71.067188 
z
" style="fill: #f0e442; fill-opacity: 0.8"/>
    </g>
    <g id="text_21">
     <!-- past -->
     <g transform="translate(359.78125 78.067188) scale(0.1 -0.1)">
      <use xlink:href="#DejaVuSans-70"/>
      <use xlink:href="#DejaVuSans-61" x="63.476562"/>
      <use xlink:href="#DejaVuSans-73" x="124.755859"/>
      <use xlink:href="#DejaVuSans-74" x="176.855469"/>
     </g>
    </g>
    <g id="patch_19">
     <path d="M 331.78125 92.745313 
L 351.78125 92.745313 
L 351.78125 85.745313 
L 331.78125 85.745313 
z
" style="fill: #56b4e9; fill-opacity: 0.8"/>
    </g>
    <g id="text_22">
     <!-- veg -->
     <g transform="translate(359.78125 92.745313) scale(0.1 -0.1)">
      <defs>
       <path id="DejaVuSans-76" d="M 191 3500 
L 800 3500 
L 1894 563 
L 2988 3500 
L 3597 3500 
L 2284 0 
L 1503 0 
L 191 3500 
z
" transform="scale(0.015625)"/>
      </defs>
      <use xlink:href="#DejaVuSans-76"/>
      <use xlink:href="#DejaVuSans-65" x="59.179688"/>
      <use xlink:href="#DejaVuSans-67" x="120.703125"/>
     </g>
    </g>
    <g id="patch_20">
     <path d="M 331.78125 107.423438 
L 351.78125 107.423438 
L 351.78125 100.423438 
L 331.78125 100.423438 
z
" style="fill: url(#h0bcee6f57b); stroke: #ffffff; stroke-linejoin: miter"/>
    </g>
    <g id="text_23">
     <!-- croplands -->
     <g transform="translate(359.78125 107.423438) scale(0.1 -0.1)">
      <use xlink:href="#DejaVuSans-63"/>
      <use xlink:href="#DejaVuSans-72" x="54.980469"/>
      <use xlink:href="#DejaVuSans-6f" x="93.84375"/>
      <use xlink:href="#DejaVuSans-70" x="155.025391"/>
      <use xlink:href="#DejaVuSans-6c" x="218.501953"/>
      <use xlink:href="#DejaVuSans-61" x="246.285156"/>
      <use xlink:href="#DejaVuSans-6e" x="307.564453"/>
      <use xlink:href="#DejaVuSans-64" x="370.943359"/>
      <use xlink:href="#DejaVuSans-73" x="434.419922"/>
     </g>
    </g>
    <g id="patch_21">
     <path d="M 331.78125 122.101562 
L 351.78125 122.101562 
L 351.78125 115.101562 
L 331.78125 115.101562 
z
" style="stroke: #ffffff; stroke-linejoin: miter"/>
    </g>
    <g id="text_24">
     <!-- forests, steppes, and savannas -->
     <g transform="translate(359.78125 122.101562) scale(0.1 -0.1)">
      <defs>
       <path id="DejaVuSans-2c" d="M 750 794 
L 1409 794 
L 1409 256 
L 897 -744 
L 494 -744 
L 750 256 
L 750 794 
z
" transform="scale(0.015625)"/>
      </defs>
      <use xlink:href="#DejaVuSans-66"/>
      <use xlink:href="#DejaVuSans-6f" x="35.205078"/>
      <use xlink:href="#DejaVuSans-72" x="96.386719"/>
      <use xlink:href="#DejaVuSans-65" x="135.25"/>
      <use xlink:href="#DejaVuSans-73" x="196.773438"/>
      <use xlink:href="#DejaVuSans-74" x="248.873047"/>
      <use xlink:href="#DejaVuSans-73" x="288.082031"/>
      <use xlink:href="#DejaVuSans-2c" x="340.181641"/>
      <use xlink:href="#DejaVuSans-20" x="371.96875"/>
      <use xlink:href="#DejaVuSans-73" x="403.755859"/>
      <use xlink:href="#DejaVuSans-74" x="455.855469"/>
      <use xlink:href="#DejaVuSans-65" x="495.064453"/>
      <use xlink:href="#DejaVuSans-70" x="556.587891"/>
      <use xlink:href="#DejaVuSans-70" x="620.064453"/>
      <use xlink:href="#DejaVuSans-65" x="683.541016"/>
      <use xlink:href="#DejaVuSans-73" x="745.064453"/>
      <use xlink:href="#DejaVuSans-2c" x="797.164062"/>
      <use xlink:href="#DejaVuSans-20" x="828.951172"/>
      <use xlink:href="#DejaVuSans-61" x="860.738281"/>
      <use xlink:href="#DejaVuSans-6e" x="922.017578"/>
      <use xlink:href="#DejaVuSans-64" x="985.396484"/>
      <use xlink:href="#DejaVuSans-20" x="1048.873047"/>
      <use xlink:href="#DejaVuSans-73" x="1080.660156"/>
      <use xlink:href="#DejaVuSans-61" x="1132.759766"/>
      <use xlink:href="#DejaVuSans-76" x="1194.039062"/>
      <use xlink:href="#DejaVuSans-61" x="1253.21875"/>
      <use xlink:href="#DejaVuSans-6e" x="1314.498047"/>
      <use xlink:href="#DejaVuSans-6e" x="1377.876953"/>
      <use xlink:href="#DejaVuSans-61" x="1441.255859"/>
      <use xlink:href="#DejaVuSans-73" x="1502.535156"/>
     </g>
    </g>
   </g>
  </g>
 </g>
 <defs>
  <clipPath id="pf7db408d6f">
   <rect x="43.78125" y="24.202625" width="279" height="108.72"/>
  </clipPath>
 </defs>
 <defs>
  <pattern id="h0bcee6f57b" patternUnits="userSpaceOnUse" x="0" y="0" width="72" height="72">
   <rect x="0" y="0" width="73" height="73" fill="#ffffff"/>
   <path d="M -36 36 
L 36 -36 
M -33.6 38.4 
L 38.4 -33.6 
M -31.2 40.8 
L 40.8 -31.2 
M -28.8 43.2 
L 43.2 -28.8 
M -26.4 45.6 
L 45.6 -26.4 
M -24 48 
L 48 -24 
M -21.6 50.4 
L 50.4 -21.6 
M -19.2 52.8 
L 52.8 -19.2 
M -16.8 55.2 
L 55.2 -16.8 
M -14.4 57.6 
L 57.6 -14.4 
M -12 60 
L 60 -12 
M -9.6 62.4 
L 62.4 -9.6 
M -7.2 64.8 
L 64.8 -7.2 
M -4.8 67.2 
L 67.2 -4.8 
M -2.4 69.6 
L 69.6 -2.4 
M 0 72 
L 72 0 
M 2.4 74.4 
L 74.4 2.4 
M 4.8 76.8 
L 76.8 4.8 
M 7.2 79.2 
L 79.2 7.2 
M 9.6 81.6 
L 81.6 9.6 
M 12 84 
L 84 12 
M 14.4 86.4 
L 86.4 14.4 
M 16.8 88.8 
L 88.8 16.8 
M 19.2 91.2 
L 91.2 19.2 
M 21.6 93.6 
L 93.6 21.6 
M 24 96 
L 96 24 
M 26.4 98.4 
L 98.4 26.4 
M 28.8 100.8 
L 100.8 28.8 
M 31.2 103.2 
L 103.2 31.2 
M 33.6 105.6 
L 105.6 33.6 
M 36 108 
L 108 36 
" style="fill: #000000; stroke: #000000; stroke-width: 1.0; stroke-linecap: butt; stroke-linejoin: miter"/>
  </pattern>
 </defs>
</svg>
