<?xml version="1.0" encoding="utf-8" standalone="no"?>
<!DOCTYPE svg PUBLIC "-//W3C//DTD SVG 1.1//EN"
  "http://www.w3.org/Graphics/SVG/1.1/DTD/svg11.dtd">
<svg xmlns:xlink="http://www.w3.org/1999/xlink" width="526.442187pt" height="170.478875pt" viewBox="0 0 526.442187 170.478875" xmlns="http://www.w3.org/2000/svg" version="1.1">
 <metadata>
  <rdf:RDF xmlns:dc="http://purl.org/dc/elements/1.1/" xmlns:cc="http://creativecommons.org/ns#" xmlns:rdf="http://www.w3.org/1999/02/22-rdf-syntax-ns#">
   <cc:Work>
    <dc:type rdf:resource="http://purl.org/dc/dcmitype/StillImage"/>
    <dc:date>2024-08-14T09:49:42.333875</dc:date>
    <dc:format>image/svg+xml</dc:format>
    <dc:creator>
     <cc:Agent>
      <dc:title>Matplotlib v3.7.0, https://matplotlib.org/</dc:title>
     </cc:Agent>
    </dc:creator>
   </cc:Work>
  </rdf:RDF>
 </metadata>
 <defs>
  <style type="text/css">*{stroke-linejoin: round; stroke-linecap: butt}</style>
 </defs>
 <g id="figure_1">
  <g id="patch_1">
   <path d="M 0 170.478875 
L 526.442187 170.478875 
L 526.442187 0 
L 0 0 
z
" style="fill: #ffffff"/>
  </g>
  <g id="axes_1">
   <g id="patch_2">
    <path d="M 43.78125 132.922625 
L 322.78125 132.922625 
L 322.78125 24.202625 
L 43.78125 24.202625 
z
" style="fill: #ffffff"/>
   </g>
   <g id="PolyCollection_1">
    <path d="M 43.78125 127.920789 
L 43.78125 132.922625 
L 48.510064 132.922625 
L 53.238877 132.922625 
L 57.967691 132.922625 
L 62.696504 132.922625 
L 67.425318 132.922625 
L 72.154131 132.922625 
L 76.882945 132.922625 
L 81.611758 132.922625 
L 86.340572 132.922625 
L 91.069386 132.922625 
L 95.798199 132.922625 
L 100.527013 132.922625 
L 105.255826 132.922625 
L 109.98464 132.922625 
L 114.713453 132.922625 
L 119.442267 132.922625 
L 124.171081 132.922625 
L 128.899894 132.922625 
L 133.628708 132.922625 
L 138.357521 132.922625 
L 143.086335 132.922625 
L 147.815148 132.922625 
L 152.543962 132.922625 
L 157.272775 132.922625 
L 162.001589 132.922625 
L 166.730403 132.922625 
L 171.459216 132.922625 
L 176.18803 132.922625 
L 180.916843 132.922625 
L 185.645657 132.922625 
L 190.37447 132.922625 
L 195.103284 132.922625 
L 199.832097 132.922625 
L 204.560911 132.922625 
L 209.289725 132.922625 
L 214.018538 132.922625 
L 218.747352 132.922625 
L 223.476165 132.922625 
L 228.204979 132.922625 
L 232.933792 132.922625 
L 237.662606 132.922625 
L 242.391419 132.922625 
L 247.120233 132.922625 
L 251.849047 132.922625 
L 256.57786 132.922625 
L 261.306674 132.922625 
L 266.035487 132.922625 
L 270.764301 132.922625 
L 275.493114 132.922625 
L 280.221928 132.922625 
L 284.950742 132.922625 
L 289.679555 132.922625 
L 294.408369 132.922625 
L 299.137182 132.922625 
L 303.865996 132.922625 
L 308.594809 132.922625 
L 313.323623 132.922625 
L 318.052436 132.922625 
L 322.78125 132.922625 
L 322.78125 127.572739 
L 322.78125 127.572739 
L 318.052436 126.944586 
L 313.323623 127.207362 
L 308.594809 126.676862 
L 303.865996 126.229805 
L 299.137182 126.487394 
L 294.408369 125.123792 
L 289.679555 125.379749 
L 284.950742 126.134072 
L 280.221928 124.537369 
L 275.493114 126.293539 
L 270.764301 126.079616 
L 266.035487 126.446395 
L 261.306674 122.608451 
L 256.57786 124.612028 
L 251.849047 126.959547 
L 247.120233 125.715773 
L 242.391419 126.607457 
L 237.662606 122.572602 
L 232.933792 125.494178 
L 228.204979 125.596741 
L 223.476165 125.681931 
L 218.747352 123.68583 
L 214.018538 124.498772 
L 209.289725 125.137119 
L 204.560911 126.306509 
L 199.832097 125.495075 
L 195.103284 126.369106 
L 190.37447 126.243708 
L 185.645657 126.617746 
L 180.916843 126.580163 
L 176.18803 127.137098 
L 171.459216 126.230516 
L 166.730403 127.398863 
L 162.001589 126.970074 
L 157.272775 127.528073 
L 152.543962 125.874205 
L 147.815148 125.581507 
L 143.086335 126.920563 
L 138.357521 128.488295 
L 133.628708 125.755532 
L 128.899894 126.69236 
L 124.171081 128.398564 
L 119.442267 125.64052 
L 114.713453 127.786559 
L 109.98464 127.875085 
L 105.255826 128.172567 
L 100.527013 126.122401 
L 95.798199 123.788639 
L 91.069386 127.858563 
L 86.340572 126.078839 
L 81.611758 128.353847 
L 76.882945 126.127645 
L 72.154131 128.08885 
L 67.425318 127.235595 
L 62.696504 127.890541 
L 57.967691 127.98124 
L 53.238877 127.94621 
L 48.510064 127.77835 
L 43.78125 127.920789 
z
" clip-path="url(#p1374ea3e7e)" style="fill: #0072b2; fill-opacity: 0.8"/>
   </g>
   <g id="PolyCollection_2">
    <path d="M 43.78125 126.373672 
L 43.78125 127.920789 
L 48.510064 127.77835 
L 53.238877 127.94621 
L 57.967691 127.98124 
L 62.696504 127.890541 
L 67.425318 127.235595 
L 72.154131 128.08885 
L 76.882945 126.127645 
L 81.611758 128.353847 
L 86.340572 126.078839 
L 91.069386 127.858563 
L 95.798199 123.788639 
L 100.527013 126.122401 
L 105.255826 128.172567 
L 109.98464 127.875085 
L 114.713453 127.786559 
L 119.442267 125.64052 
L 124.171081 128.398564 
L 128.899894 126.69236 
L 133.628708 125.755532 
L 138.357521 128.488295 
L 143.086335 126.920563 
L 147.815148 125.581507 
L 152.543962 125.874205 
L 157.272775 127.528073 
L 162.001589 126.970074 
L 166.730403 127.398863 
L 171.459216 126.230516 
L 176.18803 127.137098 
L 180.916843 126.580163 
L 185.645657 126.617746 
L 190.37447 126.243708 
L 195.103284 126.369106 
L 199.832097 125.495075 
L 204.560911 126.306509 
L 209.289725 125.137119 
L 214.018538 124.498772 
L 218.747352 123.68583 
L 223.476165 125.681931 
L 228.204979 125.596741 
L 232.933792 125.494178 
L 237.662606 122.572602 
L 242.391419 126.607457 
L 247.120233 125.715773 
L 251.849047 126.959547 
L 256.57786 124.612028 
L 261.306674 122.608451 
L 266.035487 126.446395 
L 270.764301 126.079616 
L 275.493114 126.293539 
L 280.221928 124.537369 
L 284.950742 126.134072 
L 289.679555 125.379749 
L 294.408369 125.123792 
L 299.137182 126.487394 
L 303.865996 126.229805 
L 308.594809 126.676862 
L 313.323623 127.207362 
L 318.052436 126.944586 
L 322.78125 127.572739 
L 322.78125 122.616149 
L 322.78125 122.616149 
L 318.052436 121.508763 
L 313.323623 122.106816 
L 308.594809 121.20291 
L 303.865996 120.466526 
L 299.137182 121.042897 
L 294.408369 118.637886 
L 289.679555 119.211278 
L 284.950742 120.674917 
L 280.221928 117.905365 
L 275.493114 121.137958 
L 270.764301 120.846759 
L 266.035487 121.57795 
L 261.306674 114.984843 
L 256.57786 118.569748 
L 251.849047 122.697375 
L 247.120233 120.649869 
L 242.391419 122.243142 
L 237.662606 115.505486 
L 232.933792 120.451354 
L 228.204979 120.651884 
L 223.476165 120.824288 
L 218.747352 117.525802 
L 214.018538 118.912624 
L 209.289725 120.006122 
L 204.560911 121.971823 
L 199.832097 120.656981 
L 195.103284 122.125875 
L 190.37447 121.944992 
L 185.645657 122.584199 
L 180.916843 122.547383 
L 176.18803 123.47958 
L 171.459216 122.024812 
L 166.730403 123.976941 
L 162.001589 123.339282 
L 157.272775 124.288042 
L 152.543962 121.706409 
L 147.815148 121.305826 
L 143.086335 123.477661 
L 138.357521 125.983587 
L 133.628708 121.768652 
L 128.899894 123.280025 
L 124.171081 125.958089 
L 119.442267 121.771891 
L 114.713453 125.099756 
L 109.98464 125.311774 
L 105.255826 125.841982 
L 100.527013 122.898915 
L 95.798199 119.601866 
L 91.069386 125.615808 
L 86.340572 123.14815 
L 81.611758 126.467589 
L 76.882945 123.421014 
L 72.154131 126.231735 
L 67.425318 125.128343 
L 62.696504 126.092405 
L 57.967691 126.278157 
L 53.238877 126.291619 
L 48.510064 126.128574 
L 43.78125 126.373672 
z
" clip-path="url(#p1374ea3e7e)" style="fill: #009e73; fill-opacity: 0.8"/>
   </g>
   <g id="PolyCollection_3">
    <path d="M 43.78125 112.797402 
L 43.78125 126.373672 
L 48.510064 126.128574 
L 53.238877 126.291619 
L 57.967691 126.278157 
L 62.696504 126.092405 
L 67.425318 125.128343 
L 72.154131 126.231735 
L 76.882945 123.421014 
L 81.611758 126.467589 
L 86.340572 123.14815 
L 91.069386 125.615808 
L 95.798199 119.601866 
L 100.527013 122.898915 
L 105.255826 125.841982 
L 109.98464 125.311774 
L 114.713453 125.099756 
L 119.442267 121.771891 
L 124.171081 125.958089 
L 128.899894 123.280025 
L 133.628708 121.768652 
L 138.357521 125.983587 
L 143.086335 123.477661 
L 147.815148 121.305826 
L 152.543962 121.706409 
L 157.272775 124.288042 
L 162.001589 123.339282 
L 166.730403 123.976941 
L 171.459216 122.024812 
L 176.18803 123.47958 
L 180.916843 122.547383 
L 185.645657 122.584199 
L 190.37447 121.944992 
L 195.103284 122.125875 
L 199.832097 120.656981 
L 204.560911 121.971823 
L 209.289725 120.006122 
L 214.018538 118.912624 
L 218.747352 117.525802 
L 223.476165 120.824288 
L 228.204979 120.651884 
L 232.933792 120.451354 
L 237.662606 115.505486 
L 242.391419 122.243142 
L 247.120233 120.649869 
L 251.849047 122.697375 
L 256.57786 118.569748 
L 261.306674 114.984843 
L 266.035487 121.57795 
L 270.764301 120.846759 
L 275.493114 121.137958 
L 280.221928 117.905365 
L 284.950742 120.674917 
L 289.679555 119.211278 
L 294.408369 118.637886 
L 299.137182 121.042897 
L 303.865996 120.466526 
L 308.594809 121.20291 
L 313.323623 122.106816 
L 318.052436 121.508763 
L 322.78125 122.616149 
L 322.78125 115.959892 
L 322.78125 115.959892 
L 318.052436 118.84823 
L 313.323623 119.290318 
L 308.594809 118.504068 
L 303.865996 117.065863 
L 299.137182 117.191972 
L 294.408369 115.539351 
L 289.679555 115.119528 
L 284.950742 115.38663 
L 280.221928 113.850422 
L 275.493114 114.022478 
L 270.764301 115.121253 
L 266.035487 114.417181 
L 261.306674 109.458572 
L 256.57786 114.378065 
L 251.849047 119.695192 
L 247.120233 117.087 
L 242.391419 112.563675 
L 237.662606 109.932984 
L 232.933792 114.993327 
L 228.204979 111.514601 
L 223.476165 109.208605 
L 218.747352 112.861078 
L 214.018538 111.313512 
L 209.289725 107.010569 
L 204.560911 108.906696 
L 199.832097 104.901866 
L 195.103284 111.086377 
L 190.37447 111.52778 
L 185.645657 109.314932 
L 180.916843 109.206768 
L 176.18803 107.571682 
L 171.459216 102.911991 
L 166.730403 109.751606 
L 162.001589 107.331174 
L 157.272775 109.090864 
L 152.543962 104.942977 
L 147.815148 104.951653 
L 143.086335 107.529665 
L 138.357521 114.153978 
L 133.628708 102.553059 
L 128.899894 105.121882 
L 124.171081 113.616626 
L 119.442267 104.368648 
L 114.713453 111.503215 
L 109.98464 111.462423 
L 105.255826 113.87866 
L 100.527013 107.200692 
L 95.798199 95.701739 
L 91.069386 113.014317 
L 86.340572 105.051844 
L 81.611758 113.33272 
L 76.882945 107.017606 
L 72.154131 112.532034 
L 67.425318 110.298734 
L 62.696504 112.472143 
L 57.967691 112.677874 
L 53.238877 112.635433 
L 48.510064 112.198825 
L 43.78125 112.797402 
z
" clip-path="url(#p1374ea3e7e)" style="fill: #d55e00; fill-opacity: 0.8"/>
   </g>
   <g id="PolyCollection_4">
    <path d="M 43.78125 112.797402 
L 43.78125 112.797402 
L 48.510064 112.198825 
L 53.238877 112.635433 
L 57.967691 112.677874 
L 62.696504 112.472143 
L 67.425318 110.298734 
L 72.154131 112.532034 
L 76.882945 107.017606 
L 81.611758 113.33272 
L 86.340572 105.051844 
L 91.069386 113.014317 
L 95.798199 95.701739 
L 100.527013 107.200692 
L 105.255826 113.87866 
L 109.98464 111.462423 
L 114.713453 111.503215 
L 119.442267 104.368648 
L 124.171081 113.616626 
L 128.899894 105.121882 
L 133.628708 102.553059 
L 138.357521 114.153978 
L 143.086335 107.529665 
L 147.815148 104.951653 
L 152.543962 104.942977 
L 157.272775 109.090864 
L 162.001589 107.331174 
L 166.730403 109.751606 
L 171.459216 102.911991 
L 176.18803 107.571682 
L 180.916843 109.206768 
L 185.645657 109.314932 
L 190.37447 111.52778 
L 195.103284 111.086377 
L 199.832097 104.901866 
L 204.560911 108.906696 
L 209.289725 107.010569 
L 214.018538 111.313512 
L 218.747352 112.861078 
L 223.476165 109.208605 
L 228.204979 111.514601 
L 232.933792 114.993327 
L 237.662606 109.932984 
L 242.391419 112.563675 
L 247.120233 117.087 
L 251.849047 119.695192 
L 256.57786 114.378065 
L 261.306674 109.458572 
L 266.035487 114.417181 
L 270.764301 115.121253 
L 275.493114 114.022478 
L 280.221928 113.850422 
L 284.950742 115.38663 
L 289.679555 115.119528 
L 294.408369 115.539351 
L 299.137182 117.191972 
L 303.865996 117.065863 
L 308.594809 118.504068 
L 313.323623 119.290318 
L 318.052436 118.84823 
L 322.78125 115.959892 
L 322.78125 114.366623 
L 322.78125 114.366623 
L 318.052436 118.84823 
L 313.323623 119.290318 
L 308.594809 118.504068 
L 303.865996 117.065863 
L 299.137182 117.191972 
L 294.408369 115.539351 
L 289.679555 115.119528 
L 284.950742 114.346876 
L 280.221928 113.850422 
L 275.493114 112.584348 
L 270.764301 114.136571 
L 266.035487 112.895117 
L 261.306674 109.458572 
L 256.57786 114.378065 
L 251.849047 119.048143 
L 247.120233 117.087 
L 242.391419 110.609278 
L 237.662606 109.932984 
L 232.933792 114.173322 
L 228.204979 109.986872 
L 223.476165 107.231848 
L 218.747352 112.861078 
L 214.018538 111.313512 
L 209.289725 107.010569 
L 204.560911 107.513841 
L 199.832097 102.81171 
L 195.103284 110.449864 
L 190.37447 111.52778 
L 185.645657 108.171051 
L 180.916843 109.206768 
L 176.18803 101.483537 
L 171.459216 99.730157 
L 166.730403 106.46773 
L 162.001589 102.588763 
L 157.272775 98.052564 
L 152.543962 102.041726 
L 147.815148 104.951653 
L 143.086335 103.330479 
L 138.357521 100.758701 
L 133.628708 97.110605 
L 128.899894 96.506265 
L 124.171081 99.009413 
L 119.442267 104.368648 
L 114.713453 101.468246 
L 109.98464 97.308318 
L 105.255826 102.361665 
L 100.527013 102.401752 
L 95.798199 95.701739 
L 91.069386 103.376932 
L 86.340572 102.933252 
L 81.611758 93.255292 
L 76.882945 107.017606 
L 72.154131 103.409406 
L 67.425318 110.298734 
L 62.696504 112.472143 
L 57.967691 112.374155 
L 53.238877 111.555377 
L 48.510064 112.198825 
L 43.78125 112.797402 
z
" clip-path="url(#p1374ea3e7e)" style="fill: #cc79a7; fill-opacity: 0.8"/>
   </g>
   <g id="PolyCollection_5">
    <path d="M 43.78125 90.382541 
L 43.78125 112.797402 
L 48.510064 112.198825 
L 53.238877 111.555377 
L 57.967691 112.374155 
L 62.696504 112.472143 
L 67.425318 110.298734 
L 72.154131 103.409406 
L 76.882945 107.017606 
L 81.611758 93.255292 
L 86.340572 102.933252 
L 91.069386 103.376932 
L 95.798199 95.701739 
L 100.527013 102.401752 
L 105.255826 102.361665 
L 109.98464 97.308318 
L 114.713453 101.468246 
L 119.442267 104.368648 
L 124.171081 99.009413 
L 128.899894 96.506265 
L 133.628708 97.110605 
L 138.357521 100.758701 
L 143.086335 103.330479 
L 147.815148 104.951653 
L 152.543962 102.041726 
L 157.272775 98.052564 
L 162.001589 102.588763 
L 166.730403 106.46773 
L 171.459216 99.730157 
L 176.18803 101.483537 
L 180.916843 109.206768 
L 185.645657 108.171051 
L 190.37447 111.52778 
L 195.103284 110.449864 
L 199.832097 102.81171 
L 204.560911 107.513841 
L 209.289725 107.010569 
L 214.018538 111.313512 
L 218.747352 112.861078 
L 223.476165 107.231848 
L 228.204979 109.986872 
L 232.933792 114.173322 
L 237.662606 109.932984 
L 242.391419 110.609278 
L 247.120233 117.087 
L 251.849047 119.048143 
L 256.57786 114.378065 
L 261.306674 109.458572 
L 266.035487 112.895117 
L 270.764301 114.136571 
L 275.493114 112.584348 
L 280.221928 113.850422 
L 284.950742 114.346876 
L 289.679555 115.119528 
L 294.408369 115.539351 
L 299.137182 117.191972 
L 303.865996 117.065863 
L 308.594809 118.504068 
L 313.323623 119.290318 
L 318.052436 118.84823 
L 322.78125 114.366623 
L 322.78125 61.014426 
L 322.78125 61.014426 
L 318.052436 58.973917 
L 313.323623 59.951969 
L 308.594809 58.629473 
L 303.865996 59.607147 
L 299.137182 60.62587 
L 294.408369 55.468795 
L 289.679555 59.450846 
L 284.950742 61.014426 
L 280.221928 57.173285 
L 275.493114 61.014426 
L 270.764301 61.014426 
L 266.035487 61.014426 
L 261.306674 56.942654 
L 256.57786 57.014254 
L 251.849047 60.358014 
L 247.120233 58.133693 
L 242.391419 61.014426 
L 237.662606 55.943747 
L 232.933792 60.473436 
L 228.204979 61.014426 
L 223.476165 61.014426 
L 218.747352 57.693039 
L 214.018538 60.503782 
L 209.289725 62.454441 
L 204.560911 62.799837 
L 199.832097 62.799837 
L 195.103284 62.799837 
L 190.37447 62.799837 
L 185.645657 63.583298 
L 180.916843 63.583298 
L 176.18803 63.912478 
L 171.459216 63.912478 
L 166.730403 63.912478 
L 162.001589 63.912478 
L 157.272775 63.912478 
L 152.543962 63.912478 
L 147.815148 63.912478 
L 143.086335 64.62029 
L 138.357521 64.62029 
L 133.628708 64.62029 
L 128.899894 64.62029 
L 124.171081 64.62029 
L 119.442267 64.62029 
L 114.713453 66.134472 
L 109.98464 66.134472 
L 105.255826 66.134472 
L 100.527013 66.134472 
L 95.798199 65.685141 
L 91.069386 68.461512 
L 86.340572 68.461512 
L 81.611758 68.461512 
L 76.882945 68.461512 
L 72.154131 79.987482 
L 67.425318 79.987482 
L 62.696504 86.058898 
L 57.967691 88.867361 
L 53.238877 88.867361 
L 48.510064 88.867361 
L 43.78125 90.382541 
z
" clip-path="url(#p1374ea3e7e)" style="fill: #f0e442; fill-opacity: 0.8"/>
   </g>
   <g id="PolyCollection_6">
    <path d="M 43.78125 34.925399 
L 43.78125 90.382541 
L 48.510064 88.867361 
L 53.238877 88.867361 
L 57.967691 88.867361 
L 62.696504 86.058898 
L 67.425318 79.987482 
L 72.154131 79.987482 
L 76.882945 68.461512 
L 81.611758 68.461512 
L 86.340572 68.461512 
L 91.069386 68.461512 
L 95.798199 65.685141 
L 100.527013 66.134472 
L 105.255826 66.134472 
L 109.98464 66.134472 
L 114.713453 66.134472 
L 119.442267 64.62029 
L 124.171081 64.62029 
L 128.899894 64.62029 
L 133.628708 64.62029 
L 138.357521 64.62029 
L 143.086335 64.62029 
L 147.815148 63.912478 
L 152.543962 63.912478 
L 157.272775 63.912478 
L 162.001589 63.912478 
L 166.730403 63.912478 
L 171.459216 63.912478 
L 176.18803 63.912478 
L 180.916843 63.583298 
L 185.645657 63.583298 
L 190.37447 62.799837 
L 195.103284 62.799837 
L 199.832097 62.799837 
L 204.560911 62.799837 
L 209.289725 62.454441 
L 214.018538 60.503782 
L 218.747352 57.693039 
L 223.476165 61.014426 
L 228.204979 61.014426 
L 232.933792 60.473436 
L 237.662606 55.943747 
L 242.391419 61.014426 
L 247.120233 58.133693 
L 251.849047 60.358014 
L 256.57786 57.014254 
L 261.306674 56.942654 
L 266.035487 61.014426 
L 270.764301 61.014426 
L 275.493114 61.014426 
L 280.221928 57.173285 
L 284.950742 61.014426 
L 289.679555 59.450846 
L 294.408369 55.468795 
L 299.137182 60.62587 
L 303.865996 59.607147 
L 308.594809 58.629473 
L 313.323623 59.951969 
L 318.052436 58.973917 
L 322.78125 61.014426 
L 322.78125 34.925399 
L 322.78125 34.925399 
L 318.052436 32.88489 
L 313.323623 33.862942 
L 308.594809 32.540447 
L 303.865996 33.51812 
L 299.137182 34.536843 
L 294.408369 29.379768 
L 289.679555 33.361819 
L 284.950742 34.925399 
L 280.221928 31.084258 
L 275.493114 34.925399 
L 270.764301 34.925399 
L 266.035487 34.925399 
L 261.306674 30.853628 
L 256.57786 30.925227 
L 251.849047 34.268987 
L 247.120233 32.044666 
L 242.391419 34.925399 
L 237.662606 29.854721 
L 232.933792 34.384409 
L 228.204979 34.925399 
L 223.476165 34.925399 
L 218.747352 31.604012 
L 214.018538 33.691951 
L 209.289725 34.773675 
L 204.560911 34.925399 
L 199.832097 34.925399 
L 195.103284 34.925399 
L 190.37447 34.925399 
L 185.645657 34.925399 
L 180.916843 34.925399 
L 176.18803 34.925399 
L 171.459216 34.925399 
L 166.730403 34.925399 
L 162.001589 34.925399 
L 157.272775 34.925399 
L 152.543962 34.925399 
L 147.815148 34.925399 
L 143.086335 34.925399 
L 138.357521 34.925399 
L 133.628708 34.925399 
L 128.899894 34.925399 
L 124.171081 34.925399 
L 119.442267 34.925399 
L 114.713453 34.925399 
L 109.98464 34.925399 
L 105.255826 34.925399 
L 100.527013 34.925399 
L 95.798199 34.476068 
L 91.069386 34.925399 
L 86.340572 34.925399 
L 81.611758 34.925399 
L 76.882945 34.925399 
L 72.154131 34.925399 
L 67.425318 34.925399 
L 62.696504 34.925399 
L 57.967691 34.925399 
L 53.238877 34.925399 
L 48.510064 34.925399 
L 43.78125 34.925399 
z
" clip-path="url(#p1374ea3e7e)" style="fill: #56b4e9; fill-opacity: 0.8"/>
   </g>
   <g id="patch_3">
    <path d="M 108.093114 132.922625 
L 111.876165 132.922625 
L 111.876165 115.787744 
L 108.093114 115.787744 
z
" clip-path="url(#p1374ea3e7e)" style="fill: url(#h3719a908c8); stroke: #ffffff; stroke-linejoin: miter"/>
   </g>
   <g id="patch_4">
    <path d="M 226.313453 132.922625 
L 230.096504 132.922625 
L 230.096504 115.492526 
L 226.313453 115.492526 
z
" clip-path="url(#p1374ea3e7e)" style="fill: url(#h3719a908c8); stroke: #ffffff; stroke-linejoin: miter"/>
   </g>
   <g id="patch_5">
    <path d="M 287.78803 132.922625 
L 291.571081 132.922625 
L 291.571081 111.078502 
L 287.78803 111.078502 
z
" clip-path="url(#p1374ea3e7e)" style="fill: url(#h3719a908c8); stroke: #ffffff; stroke-linejoin: miter"/>
   </g>
   <g id="patch_6">
    <path d="M 108.093114 115.787744 
L 111.876165 115.787744 
L 111.876165 38.232863 
L 108.093114 38.232863 
z
" clip-path="url(#p1374ea3e7e)" style="stroke: #ffffff; stroke-linejoin: miter"/>
   </g>
   <g id="patch_7">
    <path d="M 226.313453 115.492526 
L 230.096504 115.492526 
L 230.096504 38.847732 
L 226.313453 38.847732 
z
" clip-path="url(#p1374ea3e7e)" style="stroke: #ffffff; stroke-linejoin: miter"/>
   </g>
   <g id="patch_8">
    <path d="M 287.78803 111.078502 
L 291.571081 111.078502 
L 291.571081 39.375053 
L 287.78803 39.375053 
z
" clip-path="url(#p1374ea3e7e)" style="stroke: #ffffff; stroke-linejoin: miter"/>
   </g>
   <g id="matplotlib.axis_1">
    <g id="xtick_1">
     <g id="line2d_1">
      <defs>
       <path id="me61191dafa" d="M 0 0 
L 0 3.5 
" style="stroke: #000000; stroke-width: 0.8"/>
      </defs>
      <g>
       <use xlink:href="#me61191dafa" x="86.340572" y="132.922625" style="stroke: #000000; stroke-width: 0.8"/>
      </g>
     </g>
     <g id="text_1">
      <!-- 1970 -->
      <g transform="translate(73.615572 147.521062) scale(0.1 -0.1)">
       <defs>
        <path id="DejaVuSans-31" d="M 794 531 
L 1825 531 
L 1825 4091 
L 703 3866 
L 703 4441 
L 1819 4666 
L 2450 4666 
L 2450 531 
L 3481 531 
L 3481 0 
L 794 0 
L 794 531 
z
" transform="scale(0.015625)"/>
        <path id="DejaVuSans-39" d="M 703 97 
L 703 672 
Q 941 559 1184 500 
Q 1428 441 1663 441 
Q 2288 441 2617 861 
Q 2947 1281 2994 2138 
Q 2813 1869 2534 1725 
Q 2256 1581 1919 1581 
Q 1219 1581 811 2004 
Q 403 2428 403 3163 
Q 403 3881 828 4315 
Q 1253 4750 1959 4750 
Q 2769 4750 3195 4129 
Q 3622 3509 3622 2328 
Q 3622 1225 3098 567 
Q 2575 -91 1691 -91 
Q 1453 -91 1209 -44 
Q 966 3 703 97 
z
M 1959 2075 
Q 2384 2075 2632 2365 
Q 2881 2656 2881 3163 
Q 2881 3666 2632 3958 
Q 2384 4250 1959 4250 
Q 1534 4250 1286 3958 
Q 1038 3666 1038 3163 
Q 1038 2656 1286 2365 
Q 1534 2075 1959 2075 
z
" transform="scale(0.015625)"/>
        <path id="DejaVuSans-37" d="M 525 4666 
L 3525 4666 
L 3525 4397 
L 1831 0 
L 1172 0 
L 2766 4134 
L 525 4134 
L 525 4666 
z
" transform="scale(0.015625)"/>
        <path id="DejaVuSans-30" d="M 2034 4250 
Q 1547 4250 1301 3770 
Q 1056 3291 1056 2328 
Q 1056 1369 1301 889 
Q 1547 409 2034 409 
Q 2525 409 2770 889 
Q 3016 1369 3016 2328 
Q 3016 3291 2770 3770 
Q 2525 4250 2034 4250 
z
M 2034 4750 
Q 2819 4750 3233 4129 
Q 3647 3509 3647 2328 
Q 3647 1150 3233 529 
Q 2819 -91 2034 -91 
Q 1250 -91 836 529 
Q 422 1150 422 2328 
Q 422 3509 836 4129 
Q 1250 4750 2034 4750 
z
" transform="scale(0.015625)"/>
       </defs>
       <use xlink:href="#DejaVuSans-31"/>
       <use xlink:href="#DejaVuSans-39" x="63.623047"/>
       <use xlink:href="#DejaVuSans-37" x="127.246094"/>
       <use xlink:href="#DejaVuSans-30" x="190.869141"/>
      </g>
     </g>
    </g>
    <g id="xtick_2">
     <g id="line2d_2">
      <g>
       <use xlink:href="#me61191dafa" x="133.628708" y="132.922625" style="stroke: #000000; stroke-width: 0.8"/>
      </g>
     </g>
     <g id="text_2">
      <!-- 1980 -->
      <g transform="translate(120.903708 147.521062) scale(0.1 -0.1)">
       <defs>
        <path id="DejaVuSans-38" d="M 2034 2216 
Q 1584 2216 1326 1975 
Q 1069 1734 1069 1313 
Q 1069 891 1326 650 
Q 1584 409 2034 409 
Q 2484 409 2743 651 
Q 3003 894 3003 1313 
Q 3003 1734 2745 1975 
Q 2488 2216 2034 2216 
z
M 1403 2484 
Q 997 2584 770 2862 
Q 544 3141 544 3541 
Q 544 4100 942 4425 
Q 1341 4750 2034 4750 
Q 2731 4750 3128 4425 
Q 3525 4100 3525 3541 
Q 3525 3141 3298 2862 
Q 3072 2584 2669 2484 
Q 3125 2378 3379 2068 
Q 3634 1759 3634 1313 
Q 3634 634 3220 271 
Q 2806 -91 2034 -91 
Q 1263 -91 848 271 
Q 434 634 434 1313 
Q 434 1759 690 2068 
Q 947 2378 1403 2484 
z
M 1172 3481 
Q 1172 3119 1398 2916 
Q 1625 2713 2034 2713 
Q 2441 2713 2670 2916 
Q 2900 3119 2900 3481 
Q 2900 3844 2670 4047 
Q 2441 4250 2034 4250 
Q 1625 4250 1398 4047 
Q 1172 3844 1172 3481 
z
" transform="scale(0.015625)"/>
       </defs>
       <use xlink:href="#DejaVuSans-31"/>
       <use xlink:href="#DejaVuSans-39" x="63.623047"/>
       <use xlink:href="#DejaVuSans-38" x="127.246094"/>
       <use xlink:href="#DejaVuSans-30" x="190.869141"/>
      </g>
     </g>
    </g>
    <g id="xtick_3">
     <g id="line2d_3">
      <g>
       <use xlink:href="#me61191dafa" x="180.916843" y="132.922625" style="stroke: #000000; stroke-width: 0.8"/>
      </g>
     </g>
     <g id="text_3">
      <!-- 1990 -->
      <g transform="translate(168.191843 147.521062) scale(0.1 -0.1)">
       <use xlink:href="#DejaVuSans-31"/>
       <use xlink:href="#DejaVuSans-39" x="63.623047"/>
       <use xlink:href="#DejaVuSans-39" x="127.246094"/>
       <use xlink:href="#DejaVuSans-30" x="190.869141"/>
      </g>
     </g>
    </g>
    <g id="xtick_4">
     <g id="line2d_4">
      <g>
       <use xlink:href="#me61191dafa" x="228.204979" y="132.922625" style="stroke: #000000; stroke-width: 0.8"/>
      </g>
     </g>
     <g id="text_4">
      <!-- 2000 -->
      <g transform="translate(215.479979 147.521062) scale(0.1 -0.1)">
       <defs>
        <path id="DejaVuSans-32" d="M 1228 531 
L 3431 531 
L 3431 0 
L 469 0 
L 469 531 
Q 828 903 1448 1529 
Q 2069 2156 2228 2338 
Q 2531 2678 2651 2914 
Q 2772 3150 2772 3378 
Q 2772 3750 2511 3984 
Q 2250 4219 1831 4219 
Q 1534 4219 1204 4116 
Q 875 4013 500 3803 
L 500 4441 
Q 881 4594 1212 4672 
Q 1544 4750 1819 4750 
Q 2544 4750 2975 4387 
Q 3406 4025 3406 3419 
Q 3406 3131 3298 2873 
Q 3191 2616 2906 2266 
Q 2828 2175 2409 1742 
Q 1991 1309 1228 531 
z
" transform="scale(0.015625)"/>
       </defs>
       <use xlink:href="#DejaVuSans-32"/>
       <use xlink:href="#DejaVuSans-30" x="63.623047"/>
       <use xlink:href="#DejaVuSans-30" x="127.246094"/>
       <use xlink:href="#DejaVuSans-30" x="190.869141"/>
      </g>
     </g>
    </g>
    <g id="xtick_5">
     <g id="line2d_5">
      <g>
       <use xlink:href="#me61191dafa" x="275.493114" y="132.922625" style="stroke: #000000; stroke-width: 0.8"/>
      </g>
     </g>
     <g id="text_5">
      <!-- 2010 -->
      <g transform="translate(262.768114 147.521062) scale(0.1 -0.1)">
       <use xlink:href="#DejaVuSans-32"/>
       <use xlink:href="#DejaVuSans-30" x="63.623047"/>
       <use xlink:href="#DejaVuSans-31" x="127.246094"/>
       <use xlink:href="#DejaVuSans-30" x="190.869141"/>
      </g>
     </g>
    </g>
    <g id="xtick_6">
     <g id="line2d_6">
      <g>
       <use xlink:href="#me61191dafa" x="322.78125" y="132.922625" style="stroke: #000000; stroke-width: 0.8"/>
      </g>
     </g>
     <g id="text_6">
      <!-- 2020 -->
      <g transform="translate(310.05625 147.521062) scale(0.1 -0.1)">
       <use xlink:href="#DejaVuSans-32"/>
       <use xlink:href="#DejaVuSans-30" x="63.623047"/>
       <use xlink:href="#DejaVuSans-32" x="127.246094"/>
       <use xlink:href="#DejaVuSans-30" x="190.869141"/>
      </g>
     </g>
    </g>
    <g id="text_7">
     <!-- Year -->
     <g transform="translate(172.69375 161.199187) scale(0.1 -0.1)">
      <defs>
       <path id="DejaVuSans-59" d="M -13 4666 
L 666 4666 
L 1959 2747 
L 3244 4666 
L 3922 4666 
L 2272 2222 
L 2272 0 
L 1638 0 
L 1638 2222 
L -13 4666 
z
" transform="scale(0.015625)"/>
       <path id="DejaVuSans-65" d="M 3597 1894 
L 3597 1613 
L 953 1613 
Q 991 1019 1311 708 
Q 1631 397 2203 397 
Q 2534 397 2845 478 
Q 3156 559 3463 722 
L 3463 178 
Q 3153 47 2828 -22 
Q 2503 -91 2169 -91 
Q 1331 -91 842 396 
Q 353 884 353 1716 
Q 353 2575 817 3079 
Q 1281 3584 2069 3584 
Q 2775 3584 3186 3129 
Q 3597 2675 3597 1894 
z
M 3022 2063 
Q 3016 2534 2758 2815 
Q 2500 3097 2075 3097 
Q 1594 3097 1305 2825 
Q 1016 2553 972 2059 
L 3022 2063 
z
" transform="scale(0.015625)"/>
       <path id="DejaVuSans-61" d="M 2194 1759 
Q 1497 1759 1228 1600 
Q 959 1441 959 1056 
Q 959 750 1161 570 
Q 1363 391 1709 391 
Q 2188 391 2477 730 
Q 2766 1069 2766 1631 
L 2766 1759 
L 2194 1759 
z
M 3341 1997 
L 3341 0 
L 2766 0 
L 2766 531 
Q 2569 213 2275 61 
Q 1981 -91 1556 -91 
Q 1019 -91 701 211 
Q 384 513 384 1019 
Q 384 1609 779 1909 
Q 1175 2209 1959 2209 
L 2766 2209 
L 2766 2266 
Q 2766 2663 2505 2880 
Q 2244 3097 1772 3097 
Q 1472 3097 1187 3025 
Q 903 2953 641 2809 
L 641 3341 
Q 956 3463 1253 3523 
Q 1550 3584 1831 3584 
Q 2591 3584 2966 3190 
Q 3341 2797 3341 1997 
z
" transform="scale(0.015625)"/>
       <path id="DejaVuSans-72" d="M 2631 2963 
Q 2534 3019 2420 3045 
Q 2306 3072 2169 3072 
Q 1681 3072 1420 2755 
Q 1159 2438 1159 1844 
L 1159 0 
L 581 0 
L 581 3500 
L 1159 3500 
L 1159 2956 
Q 1341 3275 1631 3429 
Q 1922 3584 2338 3584 
Q 2397 3584 2469 3576 
Q 2541 3569 2628 3553 
L 2631 2963 
z
" transform="scale(0.015625)"/>
      </defs>
      <use xlink:href="#DejaVuSans-59"/>
      <use xlink:href="#DejaVuSans-65" x="47.833984"/>
      <use xlink:href="#DejaVuSans-61" x="109.357422"/>
      <use xlink:href="#DejaVuSans-72" x="170.636719"/>
     </g>
    </g>
   </g>
   <g id="matplotlib.axis_2">
    <g id="ytick_1">
     <g id="line2d_7">
      <defs>
       <path id="meafd01e1ea" d="M 0 0 
L -3.5 0 
" style="stroke: #000000; stroke-width: 0.8"/>
      </defs>
      <g>
       <use xlink:href="#meafd01e1ea" x="43.78125" y="132.922625" style="stroke: #000000; stroke-width: 0.8"/>
      </g>
     </g>
     <g id="text_8">
      <!-- 0.0 -->
      <g transform="translate(20.878125 136.721844) scale(0.1 -0.1)">
       <defs>
        <path id="DejaVuSans-2e" d="M 684 794 
L 1344 794 
L 1344 0 
L 684 0 
L 684 794 
z
" transform="scale(0.015625)"/>
       </defs>
       <use xlink:href="#DejaVuSans-30"/>
       <use xlink:href="#DejaVuSans-2e" x="63.623047"/>
       <use xlink:href="#DejaVuSans-30" x="95.410156"/>
      </g>
     </g>
    </g>
    <g id="ytick_2">
     <g id="line2d_8">
      <g>
       <use xlink:href="#meafd01e1ea" x="43.78125" y="107.472766" style="stroke: #000000; stroke-width: 0.8"/>
      </g>
     </g>
     <g id="text_9">
      <!-- 0.5 -->
      <g transform="translate(20.878125 111.271985) scale(0.1 -0.1)">
       <defs>
        <path id="DejaVuSans-35" d="M 691 4666 
L 3169 4666 
L 3169 4134 
L 1269 4134 
L 1269 2991 
Q 1406 3038 1543 3061 
Q 1681 3084 1819 3084 
Q 2600 3084 3056 2656 
Q 3513 2228 3513 1497 
Q 3513 744 3044 326 
Q 2575 -91 1722 -91 
Q 1428 -91 1123 -41 
Q 819 9 494 109 
L 494 744 
Q 775 591 1075 516 
Q 1375 441 1709 441 
Q 2250 441 2565 725 
Q 2881 1009 2881 1497 
Q 2881 1984 2565 2268 
Q 2250 2553 1709 2553 
Q 1456 2553 1204 2497 
Q 953 2441 691 2322 
L 691 4666 
z
" transform="scale(0.015625)"/>
       </defs>
       <use xlink:href="#DejaVuSans-30"/>
       <use xlink:href="#DejaVuSans-2e" x="63.623047"/>
       <use xlink:href="#DejaVuSans-35" x="95.410156"/>
      </g>
     </g>
    </g>
    <g id="ytick_3">
     <g id="line2d_9">
      <g>
       <use xlink:href="#meafd01e1ea" x="43.78125" y="82.022908" style="stroke: #000000; stroke-width: 0.8"/>
      </g>
     </g>
     <g id="text_10">
      <!-- 1.0 -->
      <g transform="translate(20.878125 85.822127) scale(0.1 -0.1)">
       <use xlink:href="#DejaVuSans-31"/>
       <use xlink:href="#DejaVuSans-2e" x="63.623047"/>
       <use xlink:href="#DejaVuSans-30" x="95.410156"/>
      </g>
     </g>
    </g>
    <g id="ytick_4">
     <g id="line2d_10">
      <g>
       <use xlink:href="#meafd01e1ea" x="43.78125" y="56.573049" style="stroke: #000000; stroke-width: 0.8"/>
      </g>
     </g>
     <g id="text_11">
      <!-- 1.5 -->
      <g transform="translate(20.878125 60.372268) scale(0.1 -0.1)">
       <use xlink:href="#DejaVuSans-31"/>
       <use xlink:href="#DejaVuSans-2e" x="63.623047"/>
       <use xlink:href="#DejaVuSans-35" x="95.410156"/>
      </g>
     </g>
    </g>
    <g id="ytick_5">
     <g id="line2d_11">
      <g>
       <use xlink:href="#meafd01e1ea" x="43.78125" y="31.123191" style="stroke: #000000; stroke-width: 0.8"/>
      </g>
     </g>
     <g id="text_12">
      <!-- 2.0 -->
      <g transform="translate(20.878125 34.922409) scale(0.1 -0.1)">
       <use xlink:href="#DejaVuSans-32"/>
       <use xlink:href="#DejaVuSans-2e" x="63.623047"/>
       <use xlink:href="#DejaVuSans-30" x="95.410156"/>
      </g>
     </g>
    </g>
    <g id="text_13">
     <!-- Area (ha) -->
     <g transform="translate(14.798438 101.789969) rotate(-90) scale(0.1 -0.1)">
      <defs>
       <path id="DejaVuSans-41" d="M 2188 4044 
L 1331 1722 
L 3047 1722 
L 2188 4044 
z
M 1831 4666 
L 2547 4666 
L 4325 0 
L 3669 0 
L 3244 1197 
L 1141 1197 
L 716 0 
L 50 0 
L 1831 4666 
z
" transform="scale(0.015625)"/>
       <path id="DejaVuSans-20" transform="scale(0.015625)"/>
       <path id="DejaVuSans-28" d="M 1984 4856 
Q 1566 4138 1362 3434 
Q 1159 2731 1159 2009 
Q 1159 1288 1364 580 
Q 1569 -128 1984 -844 
L 1484 -844 
Q 1016 -109 783 600 
Q 550 1309 550 2009 
Q 550 2706 781 3412 
Q 1013 4119 1484 4856 
L 1984 4856 
z
" transform="scale(0.015625)"/>
       <path id="DejaVuSans-68" d="M 3513 2113 
L 3513 0 
L 2938 0 
L 2938 2094 
Q 2938 2591 2744 2837 
Q 2550 3084 2163 3084 
Q 1697 3084 1428 2787 
Q 1159 2491 1159 1978 
L 1159 0 
L 581 0 
L 581 4863 
L 1159 4863 
L 1159 2956 
Q 1366 3272 1645 3428 
Q 1925 3584 2291 3584 
Q 2894 3584 3203 3211 
Q 3513 2838 3513 2113 
z
" transform="scale(0.015625)"/>
       <path id="DejaVuSans-29" d="M 513 4856 
L 1013 4856 
Q 1481 4119 1714 3412 
Q 1947 2706 1947 2009 
Q 1947 1309 1714 600 
Q 1481 -109 1013 -844 
L 513 -844 
Q 928 -128 1133 580 
Q 1338 1288 1338 2009 
Q 1338 2731 1133 3434 
Q 928 4138 513 4856 
z
" transform="scale(0.015625)"/>
      </defs>
      <use xlink:href="#DejaVuSans-41"/>
      <use xlink:href="#DejaVuSans-72" x="68.408203"/>
      <use xlink:href="#DejaVuSans-65" x="107.271484"/>
      <use xlink:href="#DejaVuSans-61" x="168.794922"/>
      <use xlink:href="#DejaVuSans-20" x="230.074219"/>
      <use xlink:href="#DejaVuSans-28" x="261.861328"/>
      <use xlink:href="#DejaVuSans-68" x="300.875"/>
      <use xlink:href="#DejaVuSans-61" x="364.253906"/>
      <use xlink:href="#DejaVuSans-29" x="425.533203"/>
     </g>
    </g>
    <g id="text_14">
     <!-- 1e7 -->
     <g transform="translate(43.78125 21.202625) scale(0.1 -0.1)">
      <use xlink:href="#DejaVuSans-31"/>
      <use xlink:href="#DejaVuSans-65" x="63.623047"/>
      <use xlink:href="#DejaVuSans-37" x="125.146484"/>
     </g>
    </g>
   </g>
   <g id="line2d_12">
    <path d="M 43.78125 34.925399 
L 322.78125 34.925399 
" clip-path="url(#p1374ea3e7e)" style="fill: none; stroke-dasharray: 1.5,2.475; stroke-dashoffset: 0; stroke: #000000; stroke-width: 1.5"/>
   </g>
   <g id="patch_9">
    <path d="M 43.78125 132.922625 
L 43.78125 24.202625 
" style="fill: none; stroke: #000000; stroke-width: 0.8; stroke-linejoin: miter; stroke-linecap: square"/>
   </g>
   <g id="patch_10">
    <path d="M 322.78125 132.922625 
L 322.78125 24.202625 
" style="fill: none; stroke: #000000; stroke-width: 0.8; stroke-linejoin: miter; stroke-linecap: square"/>
   </g>
   <g id="patch_11">
    <path d="M 43.78125 132.922625 
L 322.78125 132.922625 
" style="fill: none; stroke: #000000; stroke-width: 0.8; stroke-linejoin: miter; stroke-linecap: square"/>
   </g>
   <g id="patch_12">
    <path d="M 43.78125 24.202625 
L 322.78125 24.202625 
" style="fill: none; stroke: #000000; stroke-width: 0.8; stroke-linejoin: miter; stroke-linecap: square"/>
   </g>
   <g id="text_15">
    <!-- senegal -->
    <g transform="translate(159.816563 18.202625) scale(0.12 -0.12)">
     <defs>
      <path id="DejaVuSans-73" d="M 2834 3397 
L 2834 2853 
Q 2591 2978 2328 3040 
Q 2066 3103 1784 3103 
Q 1356 3103 1142 2972 
Q 928 2841 928 2578 
Q 928 2378 1081 2264 
Q 1234 2150 1697 2047 
L 1894 2003 
Q 2506 1872 2764 1633 
Q 3022 1394 3022 966 
Q 3022 478 2636 193 
Q 2250 -91 1575 -91 
Q 1294 -91 989 -36 
Q 684 19 347 128 
L 347 722 
Q 666 556 975 473 
Q 1284 391 1588 391 
Q 1994 391 2212 530 
Q 2431 669 2431 922 
Q 2431 1156 2273 1281 
Q 2116 1406 1581 1522 
L 1381 1569 
Q 847 1681 609 1914 
Q 372 2147 372 2553 
Q 372 3047 722 3315 
Q 1072 3584 1716 3584 
Q 2034 3584 2315 3537 
Q 2597 3491 2834 3397 
z
" transform="scale(0.015625)"/>
      <path id="DejaVuSans-6e" d="M 3513 2113 
L 3513 0 
L 2938 0 
L 2938 2094 
Q 2938 2591 2744 2837 
Q 2550 3084 2163 3084 
Q 1697 3084 1428 2787 
Q 1159 2491 1159 1978 
L 1159 0 
L 581 0 
L 581 3500 
L 1159 3500 
L 1159 2956 
Q 1366 3272 1645 3428 
Q 1925 3584 2291 3584 
Q 2894 3584 3203 3211 
Q 3513 2838 3513 2113 
z
" transform="scale(0.015625)"/>
      <path id="DejaVuSans-67" d="M 2906 1791 
Q 2906 2416 2648 2759 
Q 2391 3103 1925 3103 
Q 1463 3103 1205 2759 
Q 947 2416 947 1791 
Q 947 1169 1205 825 
Q 1463 481 1925 481 
Q 2391 481 2648 825 
Q 2906 1169 2906 1791 
z
M 3481 434 
Q 3481 -459 3084 -895 
Q 2688 -1331 1869 -1331 
Q 1566 -1331 1297 -1286 
Q 1028 -1241 775 -1147 
L 775 -588 
Q 1028 -725 1275 -790 
Q 1522 -856 1778 -856 
Q 2344 -856 2625 -561 
Q 2906 -266 2906 331 
L 2906 616 
Q 2728 306 2450 153 
Q 2172 0 1784 0 
Q 1141 0 747 490 
Q 353 981 353 1791 
Q 353 2603 747 3093 
Q 1141 3584 1784 3584 
Q 2172 3584 2450 3431 
Q 2728 3278 2906 2969 
L 2906 3500 
L 3481 3500 
L 3481 434 
z
" transform="scale(0.015625)"/>
      <path id="DejaVuSans-6c" d="M 603 4863 
L 1178 4863 
L 1178 0 
L 603 0 
L 603 4863 
z
" transform="scale(0.015625)"/>
     </defs>
     <use xlink:href="#DejaVuSans-73"/>
     <use xlink:href="#DejaVuSans-65" x="52.099609"/>
     <use xlink:href="#DejaVuSans-6e" x="113.623047"/>
     <use xlink:href="#DejaVuSans-65" x="177.001953"/>
     <use xlink:href="#DejaVuSans-67" x="238.525391"/>
     <use xlink:href="#DejaVuSans-61" x="302.001953"/>
     <use xlink:href="#DejaVuSans-6c" x="363.28125"/>
    </g>
   </g>
   <g id="legend_1">
    <g id="patch_13">
     <path d="M 329.78125 128.18125 
L 517.242188 128.18125 
Q 519.242188 128.18125 519.242188 126.18125 
L 519.242188 9.2 
Q 519.242188 7.2 517.242188 7.2 
L 329.78125 7.2 
Q 327.78125 7.2 327.78125 9.2 
L 327.78125 126.18125 
Q 327.78125 128.18125 329.78125 128.18125 
z
" style="fill: #ffffff; opacity: 0.8; stroke: #cccccc; stroke-linejoin: miter"/>
    </g>
    <g id="patch_14">
     <path d="M 331.78125 18.798438 
L 351.78125 18.798438 
L 351.78125 11.798438 
L 331.78125 11.798438 
z
" style="fill: #0072b2; fill-opacity: 0.8"/>
    </g>
    <g id="text_16">
     <!-- crop_subs -->
     <g transform="translate(359.78125 18.798438) scale(0.1 -0.1)">
      <defs>
       <path id="DejaVuSans-63" d="M 3122 3366 
L 3122 2828 
Q 2878 2963 2633 3030 
Q 2388 3097 2138 3097 
Q 1578 3097 1268 2742 
Q 959 2388 959 1747 
Q 959 1106 1268 751 
Q 1578 397 2138 397 
Q 2388 397 2633 464 
Q 2878 531 3122 666 
L 3122 134 
Q 2881 22 2623 -34 
Q 2366 -91 2075 -91 
Q 1284 -91 818 406 
Q 353 903 353 1747 
Q 353 2603 823 3093 
Q 1294 3584 2113 3584 
Q 2378 3584 2631 3529 
Q 2884 3475 3122 3366 
z
" transform="scale(0.015625)"/>
       <path id="DejaVuSans-6f" d="M 1959 3097 
Q 1497 3097 1228 2736 
Q 959 2375 959 1747 
Q 959 1119 1226 758 
Q 1494 397 1959 397 
Q 2419 397 2687 759 
Q 2956 1122 2956 1747 
Q 2956 2369 2687 2733 
Q 2419 3097 1959 3097 
z
M 1959 3584 
Q 2709 3584 3137 3096 
Q 3566 2609 3566 1747 
Q 3566 888 3137 398 
Q 2709 -91 1959 -91 
Q 1206 -91 779 398 
Q 353 888 353 1747 
Q 353 2609 779 3096 
Q 1206 3584 1959 3584 
z
" transform="scale(0.015625)"/>
       <path id="DejaVuSans-70" d="M 1159 525 
L 1159 -1331 
L 581 -1331 
L 581 3500 
L 1159 3500 
L 1159 2969 
Q 1341 3281 1617 3432 
Q 1894 3584 2278 3584 
Q 2916 3584 3314 3078 
Q 3713 2572 3713 1747 
Q 3713 922 3314 415 
Q 2916 -91 2278 -91 
Q 1894 -91 1617 61 
Q 1341 213 1159 525 
z
M 3116 1747 
Q 3116 2381 2855 2742 
Q 2594 3103 2138 3103 
Q 1681 3103 1420 2742 
Q 1159 2381 1159 1747 
Q 1159 1113 1420 752 
Q 1681 391 2138 391 
Q 2594 391 2855 752 
Q 3116 1113 3116 1747 
z
" transform="scale(0.015625)"/>
       <path id="DejaVuSans-5f" d="M 3263 -1063 
L 3263 -1509 
L -63 -1509 
L -63 -1063 
L 3263 -1063 
z
" transform="scale(0.015625)"/>
       <path id="DejaVuSans-75" d="M 544 1381 
L 544 3500 
L 1119 3500 
L 1119 1403 
Q 1119 906 1312 657 
Q 1506 409 1894 409 
Q 2359 409 2629 706 
Q 2900 1003 2900 1516 
L 2900 3500 
L 3475 3500 
L 3475 0 
L 2900 0 
L 2900 538 
Q 2691 219 2414 64 
Q 2138 -91 1772 -91 
Q 1169 -91 856 284 
Q 544 659 544 1381 
z
M 1991 3584 
L 1991 3584 
z
" transform="scale(0.015625)"/>
       <path id="DejaVuSans-62" d="M 3116 1747 
Q 3116 2381 2855 2742 
Q 2594 3103 2138 3103 
Q 1681 3103 1420 2742 
Q 1159 2381 1159 1747 
Q 1159 1113 1420 752 
Q 1681 391 2138 391 
Q 2594 391 2855 752 
Q 3116 1113 3116 1747 
z
M 1159 2969 
Q 1341 3281 1617 3432 
Q 1894 3584 2278 3584 
Q 2916 3584 3314 3078 
Q 3713 2572 3713 1747 
Q 3713 922 3314 415 
Q 2916 -91 2278 -91 
Q 1894 -91 1617 61 
Q 1341 213 1159 525 
L 1159 0 
L 581 0 
L 581 4863 
L 1159 4863 
L 1159 2969 
z
" transform="scale(0.015625)"/>
      </defs>
      <use xlink:href="#DejaVuSans-63"/>
      <use xlink:href="#DejaVuSans-72" x="54.980469"/>
      <use xlink:href="#DejaVuSans-6f" x="93.84375"/>
      <use xlink:href="#DejaVuSans-70" x="155.025391"/>
      <use xlink:href="#DejaVuSans-5f" x="218.501953"/>
      <use xlink:href="#DejaVuSans-73" x="268.501953"/>
      <use xlink:href="#DejaVuSans-75" x="320.601562"/>
      <use xlink:href="#DejaVuSans-62" x="383.980469"/>
      <use xlink:href="#DejaVuSans-73" x="447.457031"/>
     </g>
    </g>
    <g id="patch_15">
     <path d="M 331.78125 33.754688 
L 351.78125 33.754688 
L 351.78125 26.754688 
L 331.78125 26.754688 
z
" style="fill: #009e73; fill-opacity: 0.8"/>
    </g>
    <g id="text_17">
     <!-- crop_mark -->
     <g transform="translate(359.78125 33.754688) scale(0.1 -0.1)">
      <defs>
       <path id="DejaVuSans-6d" d="M 3328 2828 
Q 3544 3216 3844 3400 
Q 4144 3584 4550 3584 
Q 5097 3584 5394 3201 
Q 5691 2819 5691 2113 
L 5691 0 
L 5113 0 
L 5113 2094 
Q 5113 2597 4934 2840 
Q 4756 3084 4391 3084 
Q 3944 3084 3684 2787 
Q 3425 2491 3425 1978 
L 3425 0 
L 2847 0 
L 2847 2094 
Q 2847 2600 2669 2842 
Q 2491 3084 2119 3084 
Q 1678 3084 1418 2786 
Q 1159 2488 1159 1978 
L 1159 0 
L 581 0 
L 581 3500 
L 1159 3500 
L 1159 2956 
Q 1356 3278 1631 3431 
Q 1906 3584 2284 3584 
Q 2666 3584 2933 3390 
Q 3200 3197 3328 2828 
z
" transform="scale(0.015625)"/>
       <path id="DejaVuSans-6b" d="M 581 4863 
L 1159 4863 
L 1159 1991 
L 2875 3500 
L 3609 3500 
L 1753 1863 
L 3688 0 
L 2938 0 
L 1159 1709 
L 1159 0 
L 581 0 
L 581 4863 
z
" transform="scale(0.015625)"/>
      </defs>
      <use xlink:href="#DejaVuSans-63"/>
      <use xlink:href="#DejaVuSans-72" x="54.980469"/>
      <use xlink:href="#DejaVuSans-6f" x="93.84375"/>
      <use xlink:href="#DejaVuSans-70" x="155.025391"/>
      <use xlink:href="#DejaVuSans-5f" x="218.501953"/>
      <use xlink:href="#DejaVuSans-6d" x="268.501953"/>
      <use xlink:href="#DejaVuSans-61" x="365.914062"/>
      <use xlink:href="#DejaVuSans-72" x="427.193359"/>
      <use xlink:href="#DejaVuSans-6b" x="468.306641"/>
     </g>
    </g>
    <g id="patch_16">
     <path d="M 331.78125 48.710938 
L 351.78125 48.710938 
L 351.78125 41.710938 
L 331.78125 41.710938 
z
" style="fill: #d55e00; fill-opacity: 0.8"/>
    </g>
    <g id="text_18">
     <!-- fal -->
     <g transform="translate(359.78125 48.710938) scale(0.1 -0.1)">
      <defs>
       <path id="DejaVuSans-66" d="M 2375 4863 
L 2375 4384 
L 1825 4384 
Q 1516 4384 1395 4259 
Q 1275 4134 1275 3809 
L 1275 3500 
L 2222 3500 
L 2222 3053 
L 1275 3053 
L 1275 0 
L 697 0 
L 697 3053 
L 147 3053 
L 147 3500 
L 697 3500 
L 697 3744 
Q 697 4328 969 4595 
Q 1241 4863 1831 4863 
L 2375 4863 
z
" transform="scale(0.015625)"/>
      </defs>
      <use xlink:href="#DejaVuSans-66"/>
      <use xlink:href="#DejaVuSans-61" x="35.205078"/>
      <use xlink:href="#DejaVuSans-6c" x="96.484375"/>
     </g>
    </g>
    <g id="patch_17">
     <path d="M 331.78125 63.389063 
L 351.78125 63.389063 
L 351.78125 56.389063 
L 331.78125 56.389063 
z
" style="fill: #cc79a7; fill-opacity: 0.8"/>
    </g>
    <g id="text_19">
     <!-- un -->
     <g transform="translate(359.78125 63.389063) scale(0.1 -0.1)">
      <use xlink:href="#DejaVuSans-75"/>
      <use xlink:href="#DejaVuSans-6e" x="63.378906"/>
     </g>
    </g>
    <g id="patch_18">
     <path d="M 331.78125 78.067188 
L 351.78125 78.067188 
L 351.78125 71.067188 
L 331.78125 71.067188 
z
" style="fill: #f0e442; fill-opacity: 0.8"/>
    </g>
    <g id="text_20">
     <!-- past -->
     <g transform="translate(359.78125 78.067188) scale(0.1 -0.1)">
      <defs>
       <path id="DejaVuSans-74" d="M 1172 4494 
L 1172 3500 
L 2356 3500 
L 2356 3053 
L 1172 3053 
L 1172 1153 
Q 1172 725 1289 603 
Q 1406 481 1766 481 
L 2356 481 
L 2356 0 
L 1766 0 
Q 1100 0 847 248 
Q 594 497 594 1153 
L 594 3053 
L 172 3053 
L 172 3500 
L 594 3500 
L 594 4494 
L 1172 4494 
z
" transform="scale(0.015625)"/>
      </defs>
      <use xlink:href="#DejaVuSans-70"/>
      <use xlink:href="#DejaVuSans-61" x="63.476562"/>
      <use xlink:href="#DejaVuSans-73" x="124.755859"/>
      <use xlink:href="#DejaVuSans-74" x="176.855469"/>
     </g>
    </g>
    <g id="patch_19">
     <path d="M 331.78125 92.745313 
L 351.78125 92.745313 
L 351.78125 85.745313 
L 331.78125 85.745313 
z
" style="fill: #56b4e9; fill-opacity: 0.8"/>
    </g>
    <g id="text_21">
     <!-- veg -->
     <g transform="translate(359.78125 92.745313) scale(0.1 -0.1)">
      <defs>
       <path id="DejaVuSans-76" d="M 191 3500 
L 800 3500 
L 1894 563 
L 2988 3500 
L 3597 3500 
L 2284 0 
L 1503 0 
L 191 3500 
z
" transform="scale(0.015625)"/>
      </defs>
      <use xlink:href="#DejaVuSans-76"/>
      <use xlink:href="#DejaVuSans-65" x="59.179688"/>
      <use xlink:href="#DejaVuSans-67" x="120.703125"/>
     </g>
    </g>
    <g id="patch_20">
     <path d="M 331.78125 107.423438 
L 351.78125 107.423438 
L 351.78125 100.423438 
L 331.78125 100.423438 
z
" style="fill: url(#h3719a908c8); stroke: #ffffff; stroke-linejoin: miter"/>
    </g>
    <g id="text_22">
     <!-- croplands -->
     <g transform="translate(359.78125 107.423438) scale(0.1 -0.1)">
      <defs>
       <path id="DejaVuSans-64" d="M 2906 2969 
L 2906 4863 
L 3481 4863 
L 3481 0 
L 2906 0 
L 2906 525 
Q 2725 213 2448 61 
Q 2172 -91 1784 -91 
Q 1150 -91 751 415 
Q 353 922 353 1747 
Q 353 2572 751 3078 
Q 1150 3584 1784 3584 
Q 2172 3584 2448 3432 
Q 2725 3281 2906 2969 
z
M 947 1747 
Q 947 1113 1208 752 
Q 1469 391 1925 391 
Q 2381 391 2643 752 
Q 2906 1113 2906 1747 
Q 2906 2381 2643 2742 
Q 2381 3103 1925 3103 
Q 1469 3103 1208 2742 
Q 947 2381 947 1747 
z
" transform="scale(0.015625)"/>
      </defs>
      <use xlink:href="#DejaVuSans-63"/>
      <use xlink:href="#DejaVuSans-72" x="54.980469"/>
      <use xlink:href="#DejaVuSans-6f" x="93.84375"/>
      <use xlink:href="#DejaVuSans-70" x="155.025391"/>
      <use xlink:href="#DejaVuSans-6c" x="218.501953"/>
      <use xlink:href="#DejaVuSans-61" x="246.285156"/>
      <use xlink:href="#DejaVuSans-6e" x="307.564453"/>
      <use xlink:href="#DejaVuSans-64" x="370.943359"/>
      <use xlink:href="#DejaVuSans-73" x="434.419922"/>
     </g>
    </g>
    <g id="patch_21">
     <path d="M 331.78125 122.101562 
L 351.78125 122.101562 
L 351.78125 115.101562 
L 331.78125 115.101562 
z
" style="stroke: #ffffff; stroke-linejoin: miter"/>
    </g>
    <g id="text_23">
     <!-- forests, steppes, and savannas -->
     <g transform="translate(359.78125 122.101562) scale(0.1 -0.1)">
      <defs>
       <path id="DejaVuSans-2c" d="M 750 794 
L 1409 794 
L 1409 256 
L 897 -744 
L 494 -744 
L 750 256 
L 750 794 
z
" transform="scale(0.015625)"/>
      </defs>
      <use xlink:href="#DejaVuSans-66"/>
      <use xlink:href="#DejaVuSans-6f" x="35.205078"/>
      <use xlink:href="#DejaVuSans-72" x="96.386719"/>
      <use xlink:href="#DejaVuSans-65" x="135.25"/>
      <use xlink:href="#DejaVuSans-73" x="196.773438"/>
      <use xlink:href="#DejaVuSans-74" x="248.873047"/>
      <use xlink:href="#DejaVuSans-73" x="288.082031"/>
      <use xlink:href="#DejaVuSans-2c" x="340.181641"/>
      <use xlink:href="#DejaVuSans-20" x="371.96875"/>
      <use xlink:href="#DejaVuSans-73" x="403.755859"/>
      <use xlink:href="#DejaVuSans-74" x="455.855469"/>
      <use xlink:href="#DejaVuSans-65" x="495.064453"/>
      <use xlink:href="#DejaVuSans-70" x="556.587891"/>
      <use xlink:href="#DejaVuSans-70" x="620.064453"/>
      <use xlink:href="#DejaVuSans-65" x="683.541016"/>
      <use xlink:href="#DejaVuSans-73" x="745.064453"/>
      <use xlink:href="#DejaVuSans-2c" x="797.164062"/>
      <use xlink:href="#DejaVuSans-20" x="828.951172"/>
      <use xlink:href="#DejaVuSans-61" x="860.738281"/>
      <use xlink:href="#DejaVuSans-6e" x="922.017578"/>
      <use xlink:href="#DejaVuSans-64" x="985.396484"/>
      <use xlink:href="#DejaVuSans-20" x="1048.873047"/>
      <use xlink:href="#DejaVuSans-73" x="1080.660156"/>
      <use xlink:href="#DejaVuSans-61" x="1132.759766"/>
      <use xlink:href="#DejaVuSans-76" x="1194.039062"/>
      <use xlink:href="#DejaVuSans-61" x="1253.21875"/>
      <use xlink:href="#DejaVuSans-6e" x="1314.498047"/>
      <use xlink:href="#DejaVuSans-6e" x="1377.876953"/>
      <use xlink:href="#DejaVuSans-61" x="1441.255859"/>
      <use xlink:href="#DejaVuSans-73" x="1502.535156"/>
     </g>
    </g>
   </g>
  </g>
 </g>
 <defs>
  <clipPath id="p1374ea3e7e">
   <rect x="43.78125" y="24.202625" width="279" height="108.72"/>
  </clipPath>
 </defs>
 <defs>
  <pattern id="h3719a908c8" patternUnits="userSpaceOnUse" x="0" y="0" width="72" height="72">
   <rect x="0" y="0" width="73" height="73" fill="#ffffff"/>
   <path d="M -36 36 
L 36 -36 
M -33.6 38.4 
L 38.4 -33.6 
M -31.2 40.8 
L 40.8 -31.2 
M -28.8 43.2 
L 43.2 -28.8 
M -26.4 45.6 
L 45.6 -26.4 
M -24 48 
L 48 -24 
M -21.6 50.4 
L 50.4 -21.6 
M -19.2 52.8 
L 52.8 -19.2 
M -16.8 55.2 
L 55.2 -16.8 
M -14.4 57.6 
L 57.6 -14.4 
M -12 60 
L 60 -12 
M -9.6 62.4 
L 62.4 -9.6 
M -7.2 64.8 
L 64.8 -7.2 
M -4.8 67.2 
L 67.2 -4.8 
M -2.4 69.6 
L 69.6 -2.4 
M 0 72 
L 72 0 
M 2.4 74.4 
L 74.4 2.4 
M 4.8 76.8 
L 76.8 4.8 
M 7.2 79.2 
L 79.2 7.2 
M 9.6 81.6 
L 81.6 9.6 
M 12 84 
L 84 12 
M 14.4 86.4 
L 86.4 14.4 
M 16.8 88.8 
L 88.8 16.8 
M 19.2 91.2 
L 91.2 19.2 
M 21.6 93.6 
L 93.6 21.6 
M 24 96 
L 96 24 
M 26.4 98.4 
L 98.4 26.4 
M 28.8 100.8 
L 100.8 28.8 
M 31.2 103.2 
L 103.2 31.2 
M 33.6 105.6 
L 105.6 33.6 
M 36 108 
L 108 36 
" style="fill: #000000; stroke: #000000; stroke-width: 1.0; stroke-linecap: butt; stroke-linejoin: miter"/>
  </pattern>
 </defs>
</svg>
