<?xml version="1.0" encoding="utf-8" standalone="no"?>
<!DOCTYPE svg PUBLIC "-//W3C//DTD SVG 1.1//EN"
  "http://www.w3.org/Graphics/SVG/1.1/DTD/svg11.dtd">
<svg xmlns:xlink="http://www.w3.org/1999/xlink" width="423.603125pt" height="168.594375pt" viewBox="0 0 423.603125 168.594375" xmlns="http://www.w3.org/2000/svg" version="1.1">
 <metadata>
  <rdf:RDF xmlns:dc="http://purl.org/dc/elements/1.1/" xmlns:cc="http://creativecommons.org/ns#" xmlns:rdf="http://www.w3.org/1999/02/22-rdf-syntax-ns#">
   <cc:Work>
    <dc:type rdf:resource="http://purl.org/dc/dcmitype/StillImage"/>
    <dc:date>2024-07-31T10:55:57.130700</dc:date>
    <dc:format>image/svg+xml</dc:format>
    <dc:creator>
     <cc:Agent>
      <dc:title>Matplotlib v3.7.0, https://matplotlib.org/</dc:title>
     </cc:Agent>
    </dc:creator>
   </cc:Work>
  </rdf:RDF>
 </metadata>
 <defs>
  <style type="text/css">*{stroke-linejoin: round; stroke-linecap: butt}</style>
 </defs>
 <g id="figure_1">
  <g id="patch_1">
   <path d="M 0 168.594375 
L 423.603125 168.594375 
L 423.603125 0 
L 0 0 
z
" style="fill: #ffffff"/>
  </g>
  <g id="axes_1">
   <g id="patch_2">
    <path d="M 43.78125 131.038125 
L 322.78125 131.038125 
L 322.78125 22.318125 
L 43.78125 22.318125 
z
" style="fill: #ffffff"/>
   </g>
   <g id="PolyCollection_1">
    <path d="M 43.78125 125.424097 
L 43.78125 131.038125 
L 48.510064 131.038125 
L 53.238877 131.038125 
L 57.967691 131.038125 
L 62.696504 131.038125 
L 67.425318 131.038125 
L 72.154131 131.038125 
L 76.882945 131.038125 
L 81.611758 131.038125 
L 86.340572 131.038125 
L 91.069386 131.038125 
L 95.798199 131.038125 
L 100.527013 131.038125 
L 105.255826 131.038125 
L 109.98464 131.038125 
L 114.713453 131.038125 
L 119.442267 131.038125 
L 124.171081 131.038125 
L 128.899894 131.038125 
L 133.628708 131.038125 
L 138.357521 131.038125 
L 143.086335 131.038125 
L 147.815148 131.038125 
L 152.543962 131.038125 
L 157.272775 131.038125 
L 162.001589 131.038125 
L 166.730403 131.038125 
L 171.459216 131.038125 
L 176.18803 131.038125 
L 180.916843 131.038125 
L 185.645657 131.038125 
L 190.37447 131.038125 
L 195.103284 131.038125 
L 199.832097 131.038125 
L 204.560911 131.038125 
L 209.289725 131.038125 
L 214.018538 131.038125 
L 218.747352 131.038125 
L 223.476165 131.038125 
L 228.204979 131.038125 
L 232.933792 131.038125 
L 237.662606 131.038125 
L 242.391419 131.038125 
L 247.120233 131.038125 
L 251.849047 131.038125 
L 256.57786 131.038125 
L 261.306674 131.038125 
L 266.035487 131.038125 
L 270.764301 131.038125 
L 275.493114 131.038125 
L 280.221928 131.038125 
L 284.950742 131.038125 
L 289.679555 131.038125 
L 294.408369 131.038125 
L 299.137182 131.038125 
L 303.865996 131.038125 
L 308.594809 131.038125 
L 313.323623 131.038125 
L 318.052436 131.038125 
L 322.78125 131.038125 
L 322.78125 125.441747 
L 322.78125 125.441747 
L 318.052436 124.379283 
L 313.323623 124.649582 
L 308.594809 123.980304 
L 303.865996 123.592606 
L 299.137182 123.9848 
L 294.408369 122.392493 
L 289.679555 122.75045 
L 284.950742 123.584483 
L 280.221928 122.054614 
L 275.493114 123.685461 
L 270.764301 123.445469 
L 266.035487 123.892704 
L 261.306674 120.148826 
L 256.57786 122.214843 
L 251.849047 124.257032 
L 247.120233 123.135508 
L 242.391419 124.136219 
L 237.662606 120.192188 
L 232.933792 122.734954 
L 228.204979 122.924398 
L 223.476165 123.355174 
L 218.747352 120.875686 
L 214.018538 121.734966 
L 209.289725 122.495397 
L 204.560911 123.555834 
L 199.832097 123.052703 
L 195.103284 123.742884 
L 190.37447 123.594425 
L 185.645657 124.006084 
L 180.916843 124.000473 
L 176.18803 124.526689 
L 171.459216 123.709438 
L 166.730403 124.816688 
L 162.001589 124.41405 
L 157.272775 124.998095 
L 152.543962 123.202117 
L 147.815148 123.039967 
L 143.086335 124.438812 
L 138.357521 126.033768 
L 133.628708 123.108052 
L 128.899894 124.164021 
L 124.171081 125.970419 
L 119.442267 123.164444 
L 114.713453 125.278268 
L 109.98464 125.405129 
L 105.255826 125.695676 
L 100.527013 123.38799 
L 95.798199 121.406712 
L 91.069386 125.342631 
L 86.340572 123.510603 
L 81.611758 125.924629 
L 76.882945 123.520076 
L 72.154131 125.63551 
L 67.425318 124.667587 
L 62.696504 125.391886 
L 57.967691 125.492052 
L 53.238877 125.453132 
L 48.510064 125.266499 
L 43.78125 125.424097 
z
" clip-path="url(#p3ed38e50ea)" style="fill: #0072b2; fill-opacity: 0.8"/>
   </g>
   <g id="PolyCollection_2">
    <path d="M 43.78125 123.687599 
L 43.78125 125.424097 
L 48.510064 125.266499 
L 53.238877 125.453132 
L 57.967691 125.492052 
L 62.696504 125.391886 
L 67.425318 124.667587 
L 72.154131 125.63551 
L 76.882945 123.520076 
L 81.611758 125.924629 
L 86.340572 123.510603 
L 91.069386 125.342631 
L 95.798199 121.406712 
L 100.527013 123.38799 
L 105.255826 125.695676 
L 109.98464 125.405129 
L 114.713453 125.278268 
L 119.442267 123.164444 
L 124.171081 125.970419 
L 128.899894 124.164021 
L 133.628708 123.108052 
L 138.357521 126.033768 
L 143.086335 124.438812 
L 147.815148 123.039967 
L 152.543962 123.202117 
L 157.272775 124.998095 
L 162.001589 124.41405 
L 166.730403 124.816688 
L 171.459216 123.709438 
L 176.18803 124.526689 
L 180.916843 124.000473 
L 185.645657 124.006084 
L 190.37447 123.594425 
L 195.103284 123.742884 
L 199.832097 123.052703 
L 204.560911 123.555834 
L 209.289725 122.495397 
L 214.018538 121.734966 
L 218.747352 120.875686 
L 223.476165 123.355174 
L 228.204979 122.924398 
L 232.933792 122.734954 
L 237.662606 120.192188 
L 242.391419 124.136219 
L 247.120233 123.135508 
L 251.849047 124.257032 
L 256.57786 122.214843 
L 261.306674 120.148826 
L 266.035487 123.892704 
L 270.764301 123.445469 
L 275.493114 123.685461 
L 280.221928 122.054614 
L 284.950742 123.584483 
L 289.679555 122.75045 
L 294.408369 122.392493 
L 299.137182 123.9848 
L 303.865996 123.592606 
L 308.594809 123.980304 
L 313.323623 124.649582 
L 318.052436 124.379283 
L 322.78125 125.441747 
L 322.78125 120.256714 
L 322.78125 120.256714 
L 318.052436 118.324331 
L 313.323623 118.948083 
L 308.594809 117.794549 
L 303.865996 117.18109 
L 299.137182 118.017278 
L 294.408369 115.202249 
L 289.679555 115.972804 
L 284.950742 117.590397 
L 280.221928 114.949382 
L 275.493114 117.967072 
L 270.764301 117.639288 
L 266.035487 118.521117 
L 261.306674 112.10003 
L 256.57786 115.799755 
L 251.849047 119.410103 
L 247.120233 117.580467 
L 242.391419 119.366346 
L 237.662606 112.786388 
L 232.933792 117.098248 
L 228.204979 117.447703 
L 223.476165 118.200766 
L 218.747352 114.098271 
L 214.018538 115.56567 
L 209.289725 116.8653 
L 204.560911 118.653601 
L 199.832097 117.85118 
L 195.103284 119.019361 
L 190.37447 118.80343 
L 185.645657 119.507287 
L 180.916843 119.52561 
L 176.18803 120.410218 
L 171.459216 119.103626 
L 166.730403 120.962527 
L 162.001589 120.373613 
L 157.272775 121.370337 
L 152.543962 118.56854 
L 147.815148 118.381558 
L 143.086335 120.653275 
L 138.357521 123.207046 
L 133.628708 118.696695 
L 128.899894 120.399002 
L 124.171081 123.236643 
L 119.442267 118.9815 
L 114.713453 122.265104 
L 109.98464 122.544483 
L 105.255826 123.074407 
L 100.527013 119.761568 
L 95.798199 116.991898 
L 91.069386 122.820194 
L 86.340572 120.287095 
L 81.611758 123.813449 
L 76.882945 120.525394 
L 72.154131 123.559825 
L 67.425318 122.307041 
L 62.696504 123.374263 
L 57.967691 123.580529 
L 53.238877 123.596174 
L 48.510064 123.415509 
L 43.78125 123.687599 
z
" clip-path="url(#p3ed38e50ea)" style="fill: #009e73; fill-opacity: 0.8"/>
   </g>
   <g id="PolyCollection_3">
    <path d="M 43.78125 109.04282 
L 43.78125 123.687599 
L 48.510064 123.415509 
L 53.238877 123.596174 
L 57.967691 123.580529 
L 62.696504 123.374263 
L 67.425318 122.307041 
L 72.154131 123.559825 
L 76.882945 120.525394 
L 81.611758 123.813449 
L 86.340572 120.287095 
L 91.069386 122.820194 
L 95.798199 116.991898 
L 100.527013 119.761568 
L 105.255826 123.074407 
L 109.98464 122.544483 
L 114.713453 122.265104 
L 119.442267 118.9815 
L 124.171081 123.236643 
L 128.899894 120.399002 
L 133.628708 118.696695 
L 138.357521 123.207046 
L 143.086335 120.653275 
L 147.815148 118.381558 
L 152.543962 118.56854 
L 157.272775 121.370337 
L 162.001589 120.373613 
L 166.730403 120.962527 
L 171.459216 119.103626 
L 176.18803 120.410218 
L 180.916843 119.52561 
L 185.645657 119.507287 
L 190.37447 118.80343 
L 195.103284 119.019361 
L 199.832097 117.85118 
L 204.560911 118.653601 
L 209.289725 116.8653 
L 214.018538 115.56567 
L 218.747352 114.098271 
L 223.476165 118.200766 
L 228.204979 117.447703 
L 232.933792 117.098248 
L 237.662606 112.786388 
L 242.391419 119.366346 
L 247.120233 117.580467 
L 251.849047 119.410103 
L 256.57786 115.799755 
L 261.306674 112.10003 
L 266.035487 118.521117 
L 270.764301 117.639288 
L 275.493114 117.967072 
L 280.221928 114.949382 
L 284.950742 117.590397 
L 289.679555 115.972804 
L 294.408369 115.202249 
L 299.137182 118.017278 
L 303.865996 117.18109 
L 308.594809 117.794549 
L 313.323623 118.948083 
L 318.052436 118.324331 
L 322.78125 120.256714 
L 322.78125 109.29489 
L 322.78125 109.29489 
L 318.052436 115.713197 
L 313.323623 114.818337 
L 308.594809 115.056823 
L 303.865996 111.92222 
L 299.137182 111.440299 
L 294.408369 113.577295 
L 289.679555 109.231067 
L 284.950742 108.14452 
L 280.221928 109.983504 
L 275.493114 106.18883 
L 270.764301 107.0594 
L 266.035487 106.797601 
L 261.306674 108.415961 
L 256.57786 112.418065 
L 251.849047 113.384267 
L 247.120233 109.985918 
L 242.391419 105.752324 
L 237.662606 107.792593 
L 232.933792 106.719469 
L 228.204979 102.518354 
L 223.476165 103.307766 
L 218.747352 108.80084 
L 214.018538 105.326435 
L 209.289725 101.616949 
L 204.560911 101.090362 
L 199.832097 99.126824 
L 195.103284 104.185359 
L 190.37447 104.706691 
L 185.645657 103.117985 
L 180.916843 103.389939 
L 176.18803 102.280837 
L 171.459216 99.523912 
L 166.730403 104.557301 
L 162.001589 102.190805 
L 157.272775 104.089134 
L 152.543962 98.899683 
L 147.815148 99.632284 
L 143.086335 103.196811 
L 138.357521 108.993285 
L 133.628708 97.257686 
L 128.899894 101.319094 
L 124.171081 108.906548 
L 119.442267 100.291823 
L 114.713453 106.36476 
L 109.98464 106.754615 
L 105.255826 108.665621 
L 100.527013 100.560537 
L 95.798199 94.225071 
L 91.069386 107.875409 
L 86.340572 100.861496 
L 81.611758 109.56816 
L 76.882945 102.370503 
L 72.154131 108.766854 
L 67.425318 105.912218 
L 62.696504 108.423167 
L 57.967691 108.810067 
L 53.238877 108.80686 
L 48.510064 108.304832 
L 43.78125 109.04282 
z
" clip-path="url(#p3ed38e50ea)" style="fill: #d55e00; fill-opacity: 0.8"/>
   </g>
   <g id="PolyCollection_4">
    <path d="M 43.78125 109.04282 
L 43.78125 109.04282 
L 48.510064 108.304832 
L 53.238877 108.80686 
L 57.967691 108.810067 
L 62.696504 108.423167 
L 67.425318 105.912218 
L 72.154131 108.766854 
L 76.882945 102.370503 
L 81.611758 109.56816 
L 86.340572 100.861496 
L 91.069386 107.875409 
L 95.798199 94.225071 
L 100.527013 100.560537 
L 105.255826 108.665621 
L 109.98464 106.754615 
L 114.713453 106.36476 
L 119.442267 100.291823 
L 124.171081 108.906548 
L 128.899894 101.319094 
L 133.628708 97.257686 
L 138.357521 108.993285 
L 143.086335 103.196811 
L 147.815148 99.632284 
L 152.543962 98.899683 
L 157.272775 104.089134 
L 162.001589 102.190805 
L 166.730403 104.557301 
L 171.459216 99.523912 
L 176.18803 102.280837 
L 180.916843 103.389939 
L 185.645657 103.117985 
L 190.37447 104.706691 
L 195.103284 104.185359 
L 199.832097 99.126824 
L 204.560911 101.090362 
L 209.289725 101.616949 
L 214.018538 105.326435 
L 218.747352 108.80084 
L 223.476165 103.307766 
L 228.204979 102.518354 
L 232.933792 106.719469 
L 237.662606 107.792593 
L 242.391419 105.752324 
L 247.120233 109.985918 
L 251.849047 113.384267 
L 256.57786 112.418065 
L 261.306674 108.415961 
L 266.035487 106.797601 
L 270.764301 107.0594 
L 275.493114 106.18883 
L 280.221928 109.983504 
L 284.950742 108.14452 
L 289.679555 109.231067 
L 294.408369 113.577295 
L 299.137182 111.440299 
L 303.865996 111.92222 
L 308.594809 115.056823 
L 313.323623 114.818337 
L 318.052436 115.713197 
L 322.78125 109.29489 
L 322.78125 98.425314 
L 322.78125 98.425314 
L 318.052436 115.532937 
L 313.323623 112.982092 
L 308.594809 114.965837 
L 303.865996 111.434028 
L 299.137182 105.836519 
L 294.408369 113.577295 
L 289.679555 108.666631 
L 284.950742 102.394045 
L 280.221928 109.831684 
L 275.493114 102.643767 
L 270.764301 105.44918 
L 266.035487 97.404411 
L 261.306674 106.585299 
L 256.57786 112.196205 
L 251.849047 112.058225 
L 247.120233 109.785812 
L 242.391419 94.654286 
L 237.662606 107.635383 
L 232.933792 105.856528 
L 228.204979 100.039608 
L 223.476165 91.806516 
L 218.747352 108.785634 
L 214.018538 105.300002 
L 209.289725 101.281828 
L 204.560911 98.364911 
L 199.832097 92.064366 
L 195.103284 101.920939 
L 190.37447 104.641473 
L 185.645657 100.245554 
L 180.916843 102.648676 
L 176.18803 91.478955 
L 171.459216 90.416775 
L 166.730403 97.659231 
L 162.001589 93.35077 
L 157.272775 87.469063 
L 152.543962 93.018165 
L 147.815148 98.422889 
L 143.086335 95.333349 
L 138.357521 90.889359 
L 133.628708 89.033027 
L 128.899894 88.127657 
L 124.171081 88.843126 
L 119.442267 98.394528 
L 114.713453 92.519442 
L 109.98464 87.44401 
L 105.255826 92.522832 
L 100.527013 93.071837 
L 95.798199 90.394058 
L 91.069386 96.079984 
L 86.340572 97.546118 
L 81.611758 85.333858 
L 76.882945 101.806948 
L 72.154131 97.705921 
L 67.425318 105.881373 
L 62.696504 108.421368 
L 57.967691 108.442464 
L 53.238877 107.506081 
L 48.510064 108.304594 
L 43.78125 109.04282 
z
" clip-path="url(#p3ed38e50ea)" style="fill: #cc79a7; fill-opacity: 0.8"/>
   </g>
   <g id="PolyCollection_5">
    <path d="M 43.78125 85.063824 
L 43.78125 109.04282 
L 48.510064 108.304594 
L 53.238877 107.506081 
L 57.967691 108.442464 
L 62.696504 108.421368 
L 67.425318 105.881373 
L 72.154131 97.705921 
L 76.882945 101.806948 
L 81.611758 85.333858 
L 86.340572 97.546118 
L 91.069386 96.079984 
L 95.798199 90.394058 
L 100.527013 93.071837 
L 105.255826 92.522832 
L 109.98464 87.44401 
L 114.713453 92.519442 
L 119.442267 98.394528 
L 124.171081 88.843126 
L 128.899894 88.127657 
L 133.628708 89.033027 
L 138.357521 90.889359 
L 143.086335 95.333349 
L 147.815148 98.422889 
L 152.543962 93.018165 
L 157.272775 87.469063 
L 162.001589 93.35077 
L 166.730403 97.659231 
L 171.459216 90.416775 
L 176.18803 91.478955 
L 180.916843 102.648676 
L 185.645657 100.245554 
L 190.37447 104.641473 
L 195.103284 101.920939 
L 199.832097 92.064366 
L 204.560911 98.364911 
L 209.289725 101.281828 
L 214.018538 105.300002 
L 218.747352 108.785634 
L 223.476165 91.806516 
L 228.204979 100.039608 
L 232.933792 105.856528 
L 237.662606 107.635383 
L 242.391419 94.654286 
L 247.120233 109.785812 
L 251.849047 112.058225 
L 256.57786 112.196205 
L 261.306674 106.585299 
L 266.035487 97.404411 
L 270.764301 105.44918 
L 275.493114 102.643767 
L 280.221928 109.831684 
L 284.950742 102.394045 
L 289.679555 108.666631 
L 294.408369 113.577295 
L 299.137182 105.836519 
L 303.865996 111.434028 
L 308.594809 114.965837 
L 313.323623 112.982092 
L 318.052436 115.532937 
L 322.78125 98.425314 
L 322.78125 45.661066 
L 322.78125 45.661066 
L 318.052436 47.356363 
L 313.323623 47.2617 
L 308.594809 47.534244 
L 303.865996 47.323766 
L 299.137182 46.776235 
L 294.408369 47.364118 
L 289.679555 47.325782 
L 284.950742 46.832797 
L 280.221928 47.349789 
L 275.493114 47.082606 
L 270.764301 47.299425 
L 266.035487 46.95439 
L 261.306674 46.967435 
L 256.57786 47.335042 
L 251.849047 47.7082 
L 247.120233 47.367515 
L 242.391419 46.719757 
L 237.662606 47.341823 
L 232.933792 47.522651 
L 228.204979 47.421015 
L 223.476165 46.14771 
L 218.747352 47.521171 
L 214.018538 48.176189 
L 209.289725 49.522856 
L 204.560911 50.432581 
L 199.832097 49.132309 
L 195.103284 49.980093 
L 190.37447 50.19313 
L 185.645657 51.461296 
L 180.916843 51.527233 
L 176.18803 51.936468 
L 171.459216 51.237916 
L 166.730403 51.956509 
L 162.001589 51.709551 
L 157.272775 51.782373 
L 152.543962 51.591092 
L 147.815148 51.532198 
L 143.086335 52.576037 
L 138.357521 53.10683 
L 133.628708 52.709707 
L 128.899894 52.6092 
L 124.171081 52.878176 
L 119.442267 52.473373 
L 114.713453 54.554912 
L 109.98464 54.385833 
L 105.255826 54.632086 
L 100.527013 54.679353 
L 95.798199 53.434468 
L 91.069386 59.173229 
L 86.340572 58.807938 
L 81.611758 58.994223 
L 76.882945 58.907362 
L 72.154131 72.730424 
L 67.425318 72.928646 
L 62.696504 79.976903 
L 57.967691 83.254721 
L 53.238877 83.253204 
L 48.510064 83.258562 
L 43.78125 85.063824 
z
" clip-path="url(#p3ed38e50ea)" style="fill: #f0e442; fill-opacity: 0.8"/>
   </g>
   <g id="PolyCollection_6">
    <path d="M 43.78125 22.318125 
L 43.78125 85.063824 
L 48.510064 83.258562 
L 53.238877 83.253204 
L 57.967691 83.254721 
L 62.696504 79.976903 
L 67.425318 72.928646 
L 72.154131 72.730424 
L 76.882945 58.907362 
L 81.611758 58.994223 
L 86.340572 58.807938 
L 91.069386 59.173229 
L 95.798199 53.434468 
L 100.527013 54.679353 
L 105.255826 54.632086 
L 109.98464 54.385833 
L 114.713453 54.554912 
L 119.442267 52.473373 
L 124.171081 52.878176 
L 128.899894 52.6092 
L 133.628708 52.709707 
L 138.357521 53.10683 
L 143.086335 52.576037 
L 147.815148 51.532198 
L 152.543962 51.591092 
L 157.272775 51.782373 
L 162.001589 51.709551 
L 166.730403 51.956509 
L 171.459216 51.237916 
L 176.18803 51.936468 
L 180.916843 51.527233 
L 185.645657 51.461296 
L 190.37447 50.19313 
L 195.103284 49.980093 
L 199.832097 49.132309 
L 204.560911 50.432581 
L 209.289725 49.522856 
L 214.018538 48.176189 
L 218.747352 47.521171 
L 223.476165 46.14771 
L 228.204979 47.421015 
L 232.933792 47.522651 
L 237.662606 47.341823 
L 242.391419 46.719757 
L 247.120233 47.367515 
L 251.849047 47.7082 
L 256.57786 47.335042 
L 261.306674 46.967435 
L 266.035487 46.95439 
L 270.764301 47.299425 
L 275.493114 47.082606 
L 280.221928 47.349789 
L 284.950742 46.832797 
L 289.679555 47.325782 
L 294.408369 47.364118 
L 299.137182 46.776235 
L 303.865996 47.323766 
L 308.594809 47.534244 
L 313.323623 47.2617 
L 318.052436 47.356363 
L 322.78125 45.661066 
L 322.78125 22.318125 
L 322.78125 22.318125 
L 318.052436 22.318125 
L 313.323623 22.318125 
L 308.594809 22.318125 
L 303.865996 22.318125 
L 299.137182 22.318125 
L 294.408369 22.318125 
L 289.679555 22.318125 
L 284.950742 22.318125 
L 280.221928 22.318125 
L 275.493114 22.318125 
L 270.764301 22.318125 
L 266.035487 22.318125 
L 261.306674 22.318125 
L 256.57786 22.318125 
L 251.849047 22.318125 
L 247.120233 22.318125 
L 242.391419 22.318125 
L 237.662606 22.318125 
L 232.933792 22.318125 
L 228.204979 22.318125 
L 223.476165 22.318125 
L 218.747352 22.318125 
L 214.018538 22.318125 
L 209.289725 22.318125 
L 204.560911 22.318125 
L 199.832097 22.318125 
L 195.103284 22.318125 
L 190.37447 22.318125 
L 185.645657 22.318125 
L 180.916843 22.318125 
L 176.18803 22.318125 
L 171.459216 22.318125 
L 166.730403 22.318125 
L 162.001589 22.318125 
L 157.272775 22.318125 
L 152.543962 22.318125 
L 147.815148 22.318125 
L 143.086335 22.318125 
L 138.357521 22.318125 
L 133.628708 22.318125 
L 128.899894 22.318125 
L 124.171081 22.318125 
L 119.442267 22.318125 
L 114.713453 22.318125 
L 109.98464 22.318125 
L 105.255826 22.318125 
L 100.527013 22.318125 
L 95.798199 22.318125 
L 91.069386 22.318125 
L 86.340572 22.318125 
L 81.611758 22.318125 
L 76.882945 22.318125 
L 72.154131 22.318125 
L 67.425318 22.318125 
L 62.696504 22.318125 
L 57.967691 22.318125 
L 53.238877 22.318125 
L 48.510064 22.318125 
L 43.78125 22.318125 
z
" clip-path="url(#p3ed38e50ea)" style="fill: #56b4e9; fill-opacity: 0.8"/>
   </g>
   <g id="patch_3">
    <path d="M 108.093114 131.038125 
L 111.876165 131.038125 
L 111.876165 112.02836 
L 108.093114 112.02836 
z
" clip-path="url(#p3ed38e50ea)"/>
   </g>
   <g id="patch_4">
    <path d="M 226.313453 131.038125 
L 230.096504 131.038125 
L 230.096504 111.700839 
L 226.313453 111.700839 
z
" clip-path="url(#p3ed38e50ea)"/>
   </g>
   <g id="patch_5">
    <path d="M 287.78803 131.038125 
L 291.571081 131.038125 
L 291.571081 106.803837 
L 287.78803 106.803837 
z
" clip-path="url(#p3ed38e50ea)"/>
   </g>
   <g id="patch_6">
    <path d="M 108.093114 108.358996 
L 111.876165 108.358996 
L 111.876165 22.318125 
L 108.093114 22.318125 
z
" clip-path="url(#p3ed38e50ea)" style="fill: #0000ff"/>
   </g>
   <g id="patch_7">
    <path d="M 226.313453 107.349328 
L 230.096504 107.349328 
L 230.096504 22.318125 
L 226.313453 22.318125 
z
" clip-path="url(#p3ed38e50ea)" style="fill: #0000ff"/>
   </g>
   <g id="patch_8">
    <path d="M 287.78803 101.867306 
L 291.571081 101.867306 
L 291.571081 22.318125 
L 287.78803 22.318125 
z
" clip-path="url(#p3ed38e50ea)" style="fill: #0000ff"/>
   </g>
   <g id="matplotlib.axis_1">
    <g id="xtick_1">
     <g id="line2d_1">
      <defs>
       <path id="mb7bddccbca" d="M 0 0 
L 0 3.5 
" style="stroke: #000000; stroke-width: 0.8"/>
      </defs>
      <g>
       <use xlink:href="#mb7bddccbca" x="86.340572" y="131.038125" style="stroke: #000000; stroke-width: 0.8"/>
      </g>
     </g>
     <g id="text_1">
      <!-- 1970 -->
      <g transform="translate(73.615572 145.636562) scale(0.1 -0.1)">
       <defs>
        <path id="DejaVuSans-31" d="M 794 531 
L 1825 531 
L 1825 4091 
L 703 3866 
L 703 4441 
L 1819 4666 
L 2450 4666 
L 2450 531 
L 3481 531 
L 3481 0 
L 794 0 
L 794 531 
z
" transform="scale(0.015625)"/>
        <path id="DejaVuSans-39" d="M 703 97 
L 703 672 
Q 941 559 1184 500 
Q 1428 441 1663 441 
Q 2288 441 2617 861 
Q 2947 1281 2994 2138 
Q 2813 1869 2534 1725 
Q 2256 1581 1919 1581 
Q 1219 1581 811 2004 
Q 403 2428 403 3163 
Q 403 3881 828 4315 
Q 1253 4750 1959 4750 
Q 2769 4750 3195 4129 
Q 3622 3509 3622 2328 
Q 3622 1225 3098 567 
Q 2575 -91 1691 -91 
Q 1453 -91 1209 -44 
Q 966 3 703 97 
z
M 1959 2075 
Q 2384 2075 2632 2365 
Q 2881 2656 2881 3163 
Q 2881 3666 2632 3958 
Q 2384 4250 1959 4250 
Q 1534 4250 1286 3958 
Q 1038 3666 1038 3163 
Q 1038 2656 1286 2365 
Q 1534 2075 1959 2075 
z
" transform="scale(0.015625)"/>
        <path id="DejaVuSans-37" d="M 525 4666 
L 3525 4666 
L 3525 4397 
L 1831 0 
L 1172 0 
L 2766 4134 
L 525 4134 
L 525 4666 
z
" transform="scale(0.015625)"/>
        <path id="DejaVuSans-30" d="M 2034 4250 
Q 1547 4250 1301 3770 
Q 1056 3291 1056 2328 
Q 1056 1369 1301 889 
Q 1547 409 2034 409 
Q 2525 409 2770 889 
Q 3016 1369 3016 2328 
Q 3016 3291 2770 3770 
Q 2525 4250 2034 4250 
z
M 2034 4750 
Q 2819 4750 3233 4129 
Q 3647 3509 3647 2328 
Q 3647 1150 3233 529 
Q 2819 -91 2034 -91 
Q 1250 -91 836 529 
Q 422 1150 422 2328 
Q 422 3509 836 4129 
Q 1250 4750 2034 4750 
z
" transform="scale(0.015625)"/>
       </defs>
       <use xlink:href="#DejaVuSans-31"/>
       <use xlink:href="#DejaVuSans-39" x="63.623047"/>
       <use xlink:href="#DejaVuSans-37" x="127.246094"/>
       <use xlink:href="#DejaVuSans-30" x="190.869141"/>
      </g>
     </g>
    </g>
    <g id="xtick_2">
     <g id="line2d_2">
      <g>
       <use xlink:href="#mb7bddccbca" x="133.628708" y="131.038125" style="stroke: #000000; stroke-width: 0.8"/>
      </g>
     </g>
     <g id="text_2">
      <!-- 1980 -->
      <g transform="translate(120.903708 145.636562) scale(0.1 -0.1)">
       <defs>
        <path id="DejaVuSans-38" d="M 2034 2216 
Q 1584 2216 1326 1975 
Q 1069 1734 1069 1313 
Q 1069 891 1326 650 
Q 1584 409 2034 409 
Q 2484 409 2743 651 
Q 3003 894 3003 1313 
Q 3003 1734 2745 1975 
Q 2488 2216 2034 2216 
z
M 1403 2484 
Q 997 2584 770 2862 
Q 544 3141 544 3541 
Q 544 4100 942 4425 
Q 1341 4750 2034 4750 
Q 2731 4750 3128 4425 
Q 3525 4100 3525 3541 
Q 3525 3141 3298 2862 
Q 3072 2584 2669 2484 
Q 3125 2378 3379 2068 
Q 3634 1759 3634 1313 
Q 3634 634 3220 271 
Q 2806 -91 2034 -91 
Q 1263 -91 848 271 
Q 434 634 434 1313 
Q 434 1759 690 2068 
Q 947 2378 1403 2484 
z
M 1172 3481 
Q 1172 3119 1398 2916 
Q 1625 2713 2034 2713 
Q 2441 2713 2670 2916 
Q 2900 3119 2900 3481 
Q 2900 3844 2670 4047 
Q 2441 4250 2034 4250 
Q 1625 4250 1398 4047 
Q 1172 3844 1172 3481 
z
" transform="scale(0.015625)"/>
       </defs>
       <use xlink:href="#DejaVuSans-31"/>
       <use xlink:href="#DejaVuSans-39" x="63.623047"/>
       <use xlink:href="#DejaVuSans-38" x="127.246094"/>
       <use xlink:href="#DejaVuSans-30" x="190.869141"/>
      </g>
     </g>
    </g>
    <g id="xtick_3">
     <g id="line2d_3">
      <g>
       <use xlink:href="#mb7bddccbca" x="180.916843" y="131.038125" style="stroke: #000000; stroke-width: 0.8"/>
      </g>
     </g>
     <g id="text_3">
      <!-- 1990 -->
      <g transform="translate(168.191843 145.636562) scale(0.1 -0.1)">
       <use xlink:href="#DejaVuSans-31"/>
       <use xlink:href="#DejaVuSans-39" x="63.623047"/>
       <use xlink:href="#DejaVuSans-39" x="127.246094"/>
       <use xlink:href="#DejaVuSans-30" x="190.869141"/>
      </g>
     </g>
    </g>
    <g id="xtick_4">
     <g id="line2d_4">
      <g>
       <use xlink:href="#mb7bddccbca" x="228.204979" y="131.038125" style="stroke: #000000; stroke-width: 0.8"/>
      </g>
     </g>
     <g id="text_4">
      <!-- 2000 -->
      <g transform="translate(215.479979 145.636562) scale(0.1 -0.1)">
       <defs>
        <path id="DejaVuSans-32" d="M 1228 531 
L 3431 531 
L 3431 0 
L 469 0 
L 469 531 
Q 828 903 1448 1529 
Q 2069 2156 2228 2338 
Q 2531 2678 2651 2914 
Q 2772 3150 2772 3378 
Q 2772 3750 2511 3984 
Q 2250 4219 1831 4219 
Q 1534 4219 1204 4116 
Q 875 4013 500 3803 
L 500 4441 
Q 881 4594 1212 4672 
Q 1544 4750 1819 4750 
Q 2544 4750 2975 4387 
Q 3406 4025 3406 3419 
Q 3406 3131 3298 2873 
Q 3191 2616 2906 2266 
Q 2828 2175 2409 1742 
Q 1991 1309 1228 531 
z
" transform="scale(0.015625)"/>
       </defs>
       <use xlink:href="#DejaVuSans-32"/>
       <use xlink:href="#DejaVuSans-30" x="63.623047"/>
       <use xlink:href="#DejaVuSans-30" x="127.246094"/>
       <use xlink:href="#DejaVuSans-30" x="190.869141"/>
      </g>
     </g>
    </g>
    <g id="xtick_5">
     <g id="line2d_5">
      <g>
       <use xlink:href="#mb7bddccbca" x="275.493114" y="131.038125" style="stroke: #000000; stroke-width: 0.8"/>
      </g>
     </g>
     <g id="text_5">
      <!-- 2010 -->
      <g transform="translate(262.768114 145.636562) scale(0.1 -0.1)">
       <use xlink:href="#DejaVuSans-32"/>
       <use xlink:href="#DejaVuSans-30" x="63.623047"/>
       <use xlink:href="#DejaVuSans-31" x="127.246094"/>
       <use xlink:href="#DejaVuSans-30" x="190.869141"/>
      </g>
     </g>
    </g>
    <g id="xtick_6">
     <g id="line2d_6">
      <g>
       <use xlink:href="#mb7bddccbca" x="322.78125" y="131.038125" style="stroke: #000000; stroke-width: 0.8"/>
      </g>
     </g>
     <g id="text_6">
      <!-- 2020 -->
      <g transform="translate(310.05625 145.636562) scale(0.1 -0.1)">
       <use xlink:href="#DejaVuSans-32"/>
       <use xlink:href="#DejaVuSans-30" x="63.623047"/>
       <use xlink:href="#DejaVuSans-32" x="127.246094"/>
       <use xlink:href="#DejaVuSans-30" x="190.869141"/>
      </g>
     </g>
    </g>
    <g id="text_7">
     <!-- Year -->
     <g transform="translate(172.69375 159.314687) scale(0.1 -0.1)">
      <defs>
       <path id="DejaVuSans-59" d="M -13 4666 
L 666 4666 
L 1959 2747 
L 3244 4666 
L 3922 4666 
L 2272 2222 
L 2272 0 
L 1638 0 
L 1638 2222 
L -13 4666 
z
" transform="scale(0.015625)"/>
       <path id="DejaVuSans-65" d="M 3597 1894 
L 3597 1613 
L 953 1613 
Q 991 1019 1311 708 
Q 1631 397 2203 397 
Q 2534 397 2845 478 
Q 3156 559 3463 722 
L 3463 178 
Q 3153 47 2828 -22 
Q 2503 -91 2169 -91 
Q 1331 -91 842 396 
Q 353 884 353 1716 
Q 353 2575 817 3079 
Q 1281 3584 2069 3584 
Q 2775 3584 3186 3129 
Q 3597 2675 3597 1894 
z
M 3022 2063 
Q 3016 2534 2758 2815 
Q 2500 3097 2075 3097 
Q 1594 3097 1305 2825 
Q 1016 2553 972 2059 
L 3022 2063 
z
" transform="scale(0.015625)"/>
       <path id="DejaVuSans-61" d="M 2194 1759 
Q 1497 1759 1228 1600 
Q 959 1441 959 1056 
Q 959 750 1161 570 
Q 1363 391 1709 391 
Q 2188 391 2477 730 
Q 2766 1069 2766 1631 
L 2766 1759 
L 2194 1759 
z
M 3341 1997 
L 3341 0 
L 2766 0 
L 2766 531 
Q 2569 213 2275 61 
Q 1981 -91 1556 -91 
Q 1019 -91 701 211 
Q 384 513 384 1019 
Q 384 1609 779 1909 
Q 1175 2209 1959 2209 
L 2766 2209 
L 2766 2266 
Q 2766 2663 2505 2880 
Q 2244 3097 1772 3097 
Q 1472 3097 1187 3025 
Q 903 2953 641 2809 
L 641 3341 
Q 956 3463 1253 3523 
Q 1550 3584 1831 3584 
Q 2591 3584 2966 3190 
Q 3341 2797 3341 1997 
z
" transform="scale(0.015625)"/>
       <path id="DejaVuSans-72" d="M 2631 2963 
Q 2534 3019 2420 3045 
Q 2306 3072 2169 3072 
Q 1681 3072 1420 2755 
Q 1159 2438 1159 1844 
L 1159 0 
L 581 0 
L 581 3500 
L 1159 3500 
L 1159 2956 
Q 1341 3275 1631 3429 
Q 1922 3584 2338 3584 
Q 2397 3584 2469 3576 
Q 2541 3569 2628 3553 
L 2631 2963 
z
" transform="scale(0.015625)"/>
      </defs>
      <use xlink:href="#DejaVuSans-59"/>
      <use xlink:href="#DejaVuSans-65" x="47.833984"/>
      <use xlink:href="#DejaVuSans-61" x="109.357422"/>
      <use xlink:href="#DejaVuSans-72" x="170.636719"/>
     </g>
    </g>
   </g>
   <g id="matplotlib.axis_2">
    <g id="ytick_1">
     <g id="line2d_7">
      <defs>
       <path id="mae94422f00" d="M 0 0 
L -3.5 0 
" style="stroke: #000000; stroke-width: 0.8"/>
      </defs>
      <g>
       <use xlink:href="#mae94422f00" x="43.78125" y="131.038125" style="stroke: #000000; stroke-width: 0.8"/>
      </g>
     </g>
     <g id="text_8">
      <!-- 0.0 -->
      <g transform="translate(20.878125 134.837344) scale(0.1 -0.1)">
       <defs>
        <path id="DejaVuSans-2e" d="M 684 794 
L 1344 794 
L 1344 0 
L 684 0 
L 684 794 
z
" transform="scale(0.015625)"/>
       </defs>
       <use xlink:href="#DejaVuSans-30"/>
       <use xlink:href="#DejaVuSans-2e" x="63.623047"/>
       <use xlink:href="#DejaVuSans-30" x="95.410156"/>
      </g>
     </g>
    </g>
    <g id="ytick_2">
     <g id="line2d_8">
      <g>
       <use xlink:href="#mae94422f00" x="43.78125" y="109.294125" style="stroke: #000000; stroke-width: 0.8"/>
      </g>
     </g>
     <g id="text_9">
      <!-- 0.2 -->
      <g transform="translate(20.878125 113.093344) scale(0.1 -0.1)">
       <use xlink:href="#DejaVuSans-30"/>
       <use xlink:href="#DejaVuSans-2e" x="63.623047"/>
       <use xlink:href="#DejaVuSans-32" x="95.410156"/>
      </g>
     </g>
    </g>
    <g id="ytick_3">
     <g id="line2d_9">
      <g>
       <use xlink:href="#mae94422f00" x="43.78125" y="87.550125" style="stroke: #000000; stroke-width: 0.8"/>
      </g>
     </g>
     <g id="text_10">
      <!-- 0.4 -->
      <g transform="translate(20.878125 91.349344) scale(0.1 -0.1)">
       <defs>
        <path id="DejaVuSans-34" d="M 2419 4116 
L 825 1625 
L 2419 1625 
L 2419 4116 
z
M 2253 4666 
L 3047 4666 
L 3047 1625 
L 3713 1625 
L 3713 1100 
L 3047 1100 
L 3047 0 
L 2419 0 
L 2419 1100 
L 313 1100 
L 313 1709 
L 2253 4666 
z
" transform="scale(0.015625)"/>
       </defs>
       <use xlink:href="#DejaVuSans-30"/>
       <use xlink:href="#DejaVuSans-2e" x="63.623047"/>
       <use xlink:href="#DejaVuSans-34" x="95.410156"/>
      </g>
     </g>
    </g>
    <g id="ytick_4">
     <g id="line2d_10">
      <g>
       <use xlink:href="#mae94422f00" x="43.78125" y="65.806125" style="stroke: #000000; stroke-width: 0.8"/>
      </g>
     </g>
     <g id="text_11">
      <!-- 0.6 -->
      <g transform="translate(20.878125 69.605344) scale(0.1 -0.1)">
       <defs>
        <path id="DejaVuSans-36" d="M 2113 2584 
Q 1688 2584 1439 2293 
Q 1191 2003 1191 1497 
Q 1191 994 1439 701 
Q 1688 409 2113 409 
Q 2538 409 2786 701 
Q 3034 994 3034 1497 
Q 3034 2003 2786 2293 
Q 2538 2584 2113 2584 
z
M 3366 4563 
L 3366 3988 
Q 3128 4100 2886 4159 
Q 2644 4219 2406 4219 
Q 1781 4219 1451 3797 
Q 1122 3375 1075 2522 
Q 1259 2794 1537 2939 
Q 1816 3084 2150 3084 
Q 2853 3084 3261 2657 
Q 3669 2231 3669 1497 
Q 3669 778 3244 343 
Q 2819 -91 2113 -91 
Q 1303 -91 875 529 
Q 447 1150 447 2328 
Q 447 3434 972 4092 
Q 1497 4750 2381 4750 
Q 2619 4750 2861 4703 
Q 3103 4656 3366 4563 
z
" transform="scale(0.015625)"/>
       </defs>
       <use xlink:href="#DejaVuSans-30"/>
       <use xlink:href="#DejaVuSans-2e" x="63.623047"/>
       <use xlink:href="#DejaVuSans-36" x="95.410156"/>
      </g>
     </g>
    </g>
    <g id="ytick_5">
     <g id="line2d_11">
      <g>
       <use xlink:href="#mae94422f00" x="43.78125" y="44.062125" style="stroke: #000000; stroke-width: 0.8"/>
      </g>
     </g>
     <g id="text_12">
      <!-- 0.8 -->
      <g transform="translate(20.878125 47.861344) scale(0.1 -0.1)">
       <use xlink:href="#DejaVuSans-30"/>
       <use xlink:href="#DejaVuSans-2e" x="63.623047"/>
       <use xlink:href="#DejaVuSans-38" x="95.410156"/>
      </g>
     </g>
    </g>
    <g id="ytick_6">
     <g id="line2d_12">
      <g>
       <use xlink:href="#mae94422f00" x="43.78125" y="22.318125" style="stroke: #000000; stroke-width: 0.8"/>
      </g>
     </g>
     <g id="text_13">
      <!-- 1.0 -->
      <g transform="translate(20.878125 26.117344) scale(0.1 -0.1)">
       <use xlink:href="#DejaVuSans-31"/>
       <use xlink:href="#DejaVuSans-2e" x="63.623047"/>
       <use xlink:href="#DejaVuSans-30" x="95.410156"/>
      </g>
     </g>
    </g>
    <g id="text_14">
     <!-- Area (ha) -->
     <g transform="translate(14.798438 99.905469) rotate(-90) scale(0.1 -0.1)">
      <defs>
       <path id="DejaVuSans-41" d="M 2188 4044 
L 1331 1722 
L 3047 1722 
L 2188 4044 
z
M 1831 4666 
L 2547 4666 
L 4325 0 
L 3669 0 
L 3244 1197 
L 1141 1197 
L 716 0 
L 50 0 
L 1831 4666 
z
" transform="scale(0.015625)"/>
       <path id="DejaVuSans-20" transform="scale(0.015625)"/>
       <path id="DejaVuSans-28" d="M 1984 4856 
Q 1566 4138 1362 3434 
Q 1159 2731 1159 2009 
Q 1159 1288 1364 580 
Q 1569 -128 1984 -844 
L 1484 -844 
Q 1016 -109 783 600 
Q 550 1309 550 2009 
Q 550 2706 781 3412 
Q 1013 4119 1484 4856 
L 1984 4856 
z
" transform="scale(0.015625)"/>
       <path id="DejaVuSans-68" d="M 3513 2113 
L 3513 0 
L 2938 0 
L 2938 2094 
Q 2938 2591 2744 2837 
Q 2550 3084 2163 3084 
Q 1697 3084 1428 2787 
Q 1159 2491 1159 1978 
L 1159 0 
L 581 0 
L 581 4863 
L 1159 4863 
L 1159 2956 
Q 1366 3272 1645 3428 
Q 1925 3584 2291 3584 
Q 2894 3584 3203 3211 
Q 3513 2838 3513 2113 
z
" transform="scale(0.015625)"/>
       <path id="DejaVuSans-29" d="M 513 4856 
L 1013 4856 
Q 1481 4119 1714 3412 
Q 1947 2706 1947 2009 
Q 1947 1309 1714 600 
Q 1481 -109 1013 -844 
L 513 -844 
Q 928 -128 1133 580 
Q 1338 1288 1338 2009 
Q 1338 2731 1133 3434 
Q 928 4138 513 4856 
z
" transform="scale(0.015625)"/>
      </defs>
      <use xlink:href="#DejaVuSans-41"/>
      <use xlink:href="#DejaVuSans-72" x="68.408203"/>
      <use xlink:href="#DejaVuSans-65" x="107.271484"/>
      <use xlink:href="#DejaVuSans-61" x="168.794922"/>
      <use xlink:href="#DejaVuSans-20" x="230.074219"/>
      <use xlink:href="#DejaVuSans-28" x="261.861328"/>
      <use xlink:href="#DejaVuSans-68" x="300.875"/>
      <use xlink:href="#DejaVuSans-61" x="364.253906"/>
      <use xlink:href="#DejaVuSans-29" x="425.533203"/>
     </g>
    </g>
   </g>
   <g id="patch_9">
    <path d="M 43.78125 131.038125 
L 43.78125 22.318125 
" style="fill: none; stroke: #000000; stroke-width: 0.8; stroke-linejoin: miter; stroke-linecap: square"/>
   </g>
   <g id="patch_10">
    <path d="M 322.78125 131.038125 
L 322.78125 22.318125 
" style="fill: none; stroke: #000000; stroke-width: 0.8; stroke-linejoin: miter; stroke-linecap: square"/>
   </g>
   <g id="patch_11">
    <path d="M 43.78125 131.038125 
L 322.78125 131.038125 
" style="fill: none; stroke: #000000; stroke-width: 0.8; stroke-linejoin: miter; stroke-linecap: square"/>
   </g>
   <g id="patch_12">
    <path d="M 43.78125 22.318125 
L 322.78125 22.318125 
" style="fill: none; stroke: #000000; stroke-width: 0.8; stroke-linejoin: miter; stroke-linecap: square"/>
   </g>
   <g id="text_15">
    <!-- national -->
    <g transform="translate(158.965313 16.318125) scale(0.12 -0.12)">
     <defs>
      <path id="DejaVuSans-6e" d="M 3513 2113 
L 3513 0 
L 2938 0 
L 2938 2094 
Q 2938 2591 2744 2837 
Q 2550 3084 2163 3084 
Q 1697 3084 1428 2787 
Q 1159 2491 1159 1978 
L 1159 0 
L 581 0 
L 581 3500 
L 1159 3500 
L 1159 2956 
Q 1366 3272 1645 3428 
Q 1925 3584 2291 3584 
Q 2894 3584 3203 3211 
Q 3513 2838 3513 2113 
z
" transform="scale(0.015625)"/>
      <path id="DejaVuSans-74" d="M 1172 4494 
L 1172 3500 
L 2356 3500 
L 2356 3053 
L 1172 3053 
L 1172 1153 
Q 1172 725 1289 603 
Q 1406 481 1766 481 
L 2356 481 
L 2356 0 
L 1766 0 
Q 1100 0 847 248 
Q 594 497 594 1153 
L 594 3053 
L 172 3053 
L 172 3500 
L 594 3500 
L 594 4494 
L 1172 4494 
z
" transform="scale(0.015625)"/>
      <path id="DejaVuSans-69" d="M 603 3500 
L 1178 3500 
L 1178 0 
L 603 0 
L 603 3500 
z
M 603 4863 
L 1178 4863 
L 1178 4134 
L 603 4134 
L 603 4863 
z
" transform="scale(0.015625)"/>
      <path id="DejaVuSans-6f" d="M 1959 3097 
Q 1497 3097 1228 2736 
Q 959 2375 959 1747 
Q 959 1119 1226 758 
Q 1494 397 1959 397 
Q 2419 397 2687 759 
Q 2956 1122 2956 1747 
Q 2956 2369 2687 2733 
Q 2419 3097 1959 3097 
z
M 1959 3584 
Q 2709 3584 3137 3096 
Q 3566 2609 3566 1747 
Q 3566 888 3137 398 
Q 2709 -91 1959 -91 
Q 1206 -91 779 398 
Q 353 888 353 1747 
Q 353 2609 779 3096 
Q 1206 3584 1959 3584 
z
" transform="scale(0.015625)"/>
      <path id="DejaVuSans-6c" d="M 603 4863 
L 1178 4863 
L 1178 0 
L 603 0 
L 603 4863 
z
" transform="scale(0.015625)"/>
     </defs>
     <use xlink:href="#DejaVuSans-6e"/>
     <use xlink:href="#DejaVuSans-61" x="63.378906"/>
     <use xlink:href="#DejaVuSans-74" x="124.658203"/>
     <use xlink:href="#DejaVuSans-69" x="163.867188"/>
     <use xlink:href="#DejaVuSans-6f" x="191.650391"/>
     <use xlink:href="#DejaVuSans-6e" x="252.832031"/>
     <use xlink:href="#DejaVuSans-61" x="316.210938"/>
     <use xlink:href="#DejaVuSans-6c" x="377.490234"/>
    </g>
   </g>
   <g id="legend_1">
    <g id="patch_13">
     <path d="M 329.78125 111.618625 
L 414.403125 111.618625 
Q 416.403125 111.618625 416.403125 109.618625 
L 416.403125 21.993625 
Q 416.403125 19.993625 414.403125 19.993625 
L 329.78125 19.993625 
Q 327.78125 19.993625 327.78125 21.993625 
L 327.78125 109.618625 
Q 327.78125 111.618625 329.78125 111.618625 
z
" style="fill: #ffffff; opacity: 0.8; stroke: #cccccc; stroke-linejoin: miter"/>
    </g>
    <g id="patch_14">
     <path d="M 331.78125 31.592062 
L 351.78125 31.592062 
L 351.78125 24.592062 
L 331.78125 24.592062 
z
" style="fill: #0072b2; fill-opacity: 0.8"/>
    </g>
    <g id="text_16">
     <!-- crop_subs -->
     <g transform="translate(359.78125 31.592062) scale(0.1 -0.1)">
      <defs>
       <path id="DejaVuSans-63" d="M 3122 3366 
L 3122 2828 
Q 2878 2963 2633 3030 
Q 2388 3097 2138 3097 
Q 1578 3097 1268 2742 
Q 959 2388 959 1747 
Q 959 1106 1268 751 
Q 1578 397 2138 397 
Q 2388 397 2633 464 
Q 2878 531 3122 666 
L 3122 134 
Q 2881 22 2623 -34 
Q 2366 -91 2075 -91 
Q 1284 -91 818 406 
Q 353 903 353 1747 
Q 353 2603 823 3093 
Q 1294 3584 2113 3584 
Q 2378 3584 2631 3529 
Q 2884 3475 3122 3366 
z
" transform="scale(0.015625)"/>
       <path id="DejaVuSans-70" d="M 1159 525 
L 1159 -1331 
L 581 -1331 
L 581 3500 
L 1159 3500 
L 1159 2969 
Q 1341 3281 1617 3432 
Q 1894 3584 2278 3584 
Q 2916 3584 3314 3078 
Q 3713 2572 3713 1747 
Q 3713 922 3314 415 
Q 2916 -91 2278 -91 
Q 1894 -91 1617 61 
Q 1341 213 1159 525 
z
M 3116 1747 
Q 3116 2381 2855 2742 
Q 2594 3103 2138 3103 
Q 1681 3103 1420 2742 
Q 1159 2381 1159 1747 
Q 1159 1113 1420 752 
Q 1681 391 2138 391 
Q 2594 391 2855 752 
Q 3116 1113 3116 1747 
z
" transform="scale(0.015625)"/>
       <path id="DejaVuSans-5f" d="M 3263 -1063 
L 3263 -1509 
L -63 -1509 
L -63 -1063 
L 3263 -1063 
z
" transform="scale(0.015625)"/>
       <path id="DejaVuSans-73" d="M 2834 3397 
L 2834 2853 
Q 2591 2978 2328 3040 
Q 2066 3103 1784 3103 
Q 1356 3103 1142 2972 
Q 928 2841 928 2578 
Q 928 2378 1081 2264 
Q 1234 2150 1697 2047 
L 1894 2003 
Q 2506 1872 2764 1633 
Q 3022 1394 3022 966 
Q 3022 478 2636 193 
Q 2250 -91 1575 -91 
Q 1294 -91 989 -36 
Q 684 19 347 128 
L 347 722 
Q 666 556 975 473 
Q 1284 391 1588 391 
Q 1994 391 2212 530 
Q 2431 669 2431 922 
Q 2431 1156 2273 1281 
Q 2116 1406 1581 1522 
L 1381 1569 
Q 847 1681 609 1914 
Q 372 2147 372 2553 
Q 372 3047 722 3315 
Q 1072 3584 1716 3584 
Q 2034 3584 2315 3537 
Q 2597 3491 2834 3397 
z
" transform="scale(0.015625)"/>
       <path id="DejaVuSans-75" d="M 544 1381 
L 544 3500 
L 1119 3500 
L 1119 1403 
Q 1119 906 1312 657 
Q 1506 409 1894 409 
Q 2359 409 2629 706 
Q 2900 1003 2900 1516 
L 2900 3500 
L 3475 3500 
L 3475 0 
L 2900 0 
L 2900 538 
Q 2691 219 2414 64 
Q 2138 -91 1772 -91 
Q 1169 -91 856 284 
Q 544 659 544 1381 
z
M 1991 3584 
L 1991 3584 
z
" transform="scale(0.015625)"/>
       <path id="DejaVuSans-62" d="M 3116 1747 
Q 3116 2381 2855 2742 
Q 2594 3103 2138 3103 
Q 1681 3103 1420 2742 
Q 1159 2381 1159 1747 
Q 1159 1113 1420 752 
Q 1681 391 2138 391 
Q 2594 391 2855 752 
Q 3116 1113 3116 1747 
z
M 1159 2969 
Q 1341 3281 1617 3432 
Q 1894 3584 2278 3584 
Q 2916 3584 3314 3078 
Q 3713 2572 3713 1747 
Q 3713 922 3314 415 
Q 2916 -91 2278 -91 
Q 1894 -91 1617 61 
Q 1341 213 1159 525 
L 1159 0 
L 581 0 
L 581 4863 
L 1159 4863 
L 1159 2969 
z
" transform="scale(0.015625)"/>
      </defs>
      <use xlink:href="#DejaVuSans-63"/>
      <use xlink:href="#DejaVuSans-72" x="54.980469"/>
      <use xlink:href="#DejaVuSans-6f" x="93.84375"/>
      <use xlink:href="#DejaVuSans-70" x="155.025391"/>
      <use xlink:href="#DejaVuSans-5f" x="218.501953"/>
      <use xlink:href="#DejaVuSans-73" x="268.501953"/>
      <use xlink:href="#DejaVuSans-75" x="320.601562"/>
      <use xlink:href="#DejaVuSans-62" x="383.980469"/>
      <use xlink:href="#DejaVuSans-73" x="447.457031"/>
     </g>
    </g>
    <g id="patch_15">
     <path d="M 331.78125 46.548312 
L 351.78125 46.548312 
L 351.78125 39.548312 
L 331.78125 39.548312 
z
" style="fill: #009e73; fill-opacity: 0.8"/>
    </g>
    <g id="text_17">
     <!-- crop_mark -->
     <g transform="translate(359.78125 46.548312) scale(0.1 -0.1)">
      <defs>
       <path id="DejaVuSans-6d" d="M 3328 2828 
Q 3544 3216 3844 3400 
Q 4144 3584 4550 3584 
Q 5097 3584 5394 3201 
Q 5691 2819 5691 2113 
L 5691 0 
L 5113 0 
L 5113 2094 
Q 5113 2597 4934 2840 
Q 4756 3084 4391 3084 
Q 3944 3084 3684 2787 
Q 3425 2491 3425 1978 
L 3425 0 
L 2847 0 
L 2847 2094 
Q 2847 2600 2669 2842 
Q 2491 3084 2119 3084 
Q 1678 3084 1418 2786 
Q 1159 2488 1159 1978 
L 1159 0 
L 581 0 
L 581 3500 
L 1159 3500 
L 1159 2956 
Q 1356 3278 1631 3431 
Q 1906 3584 2284 3584 
Q 2666 3584 2933 3390 
Q 3200 3197 3328 2828 
z
" transform="scale(0.015625)"/>
       <path id="DejaVuSans-6b" d="M 581 4863 
L 1159 4863 
L 1159 1991 
L 2875 3500 
L 3609 3500 
L 1753 1863 
L 3688 0 
L 2938 0 
L 1159 1709 
L 1159 0 
L 581 0 
L 581 4863 
z
" transform="scale(0.015625)"/>
      </defs>
      <use xlink:href="#DejaVuSans-63"/>
      <use xlink:href="#DejaVuSans-72" x="54.980469"/>
      <use xlink:href="#DejaVuSans-6f" x="93.84375"/>
      <use xlink:href="#DejaVuSans-70" x="155.025391"/>
      <use xlink:href="#DejaVuSans-5f" x="218.501953"/>
      <use xlink:href="#DejaVuSans-6d" x="268.501953"/>
      <use xlink:href="#DejaVuSans-61" x="365.914062"/>
      <use xlink:href="#DejaVuSans-72" x="427.193359"/>
      <use xlink:href="#DejaVuSans-6b" x="468.306641"/>
     </g>
    </g>
    <g id="patch_16">
     <path d="M 331.78125 61.504562 
L 351.78125 61.504562 
L 351.78125 54.504562 
L 331.78125 54.504562 
z
" style="fill: #d55e00; fill-opacity: 0.8"/>
    </g>
    <g id="text_18">
     <!-- fal -->
     <g transform="translate(359.78125 61.504562) scale(0.1 -0.1)">
      <defs>
       <path id="DejaVuSans-66" d="M 2375 4863 
L 2375 4384 
L 1825 4384 
Q 1516 4384 1395 4259 
Q 1275 4134 1275 3809 
L 1275 3500 
L 2222 3500 
L 2222 3053 
L 1275 3053 
L 1275 0 
L 697 0 
L 697 3053 
L 147 3053 
L 147 3500 
L 697 3500 
L 697 3744 
Q 697 4328 969 4595 
Q 1241 4863 1831 4863 
L 2375 4863 
z
" transform="scale(0.015625)"/>
      </defs>
      <use xlink:href="#DejaVuSans-66"/>
      <use xlink:href="#DejaVuSans-61" x="35.205078"/>
      <use xlink:href="#DejaVuSans-6c" x="96.484375"/>
     </g>
    </g>
    <g id="patch_17">
     <path d="M 331.78125 76.182687 
L 351.78125 76.182687 
L 351.78125 69.182687 
L 331.78125 69.182687 
z
" style="fill: #cc79a7; fill-opacity: 0.8"/>
    </g>
    <g id="text_19">
     <!-- un -->
     <g transform="translate(359.78125 76.182687) scale(0.1 -0.1)">
      <use xlink:href="#DejaVuSans-75"/>
      <use xlink:href="#DejaVuSans-6e" x="63.378906"/>
     </g>
    </g>
    <g id="patch_18">
     <path d="M 331.78125 90.860812 
L 351.78125 90.860812 
L 351.78125 83.860812 
L 331.78125 83.860812 
z
" style="fill: #f0e442; fill-opacity: 0.8"/>
    </g>
    <g id="text_20">
     <!-- past -->
     <g transform="translate(359.78125 90.860812) scale(0.1 -0.1)">
      <use xlink:href="#DejaVuSans-70"/>
      <use xlink:href="#DejaVuSans-61" x="63.476562"/>
      <use xlink:href="#DejaVuSans-73" x="124.755859"/>
      <use xlink:href="#DejaVuSans-74" x="176.855469"/>
     </g>
    </g>
    <g id="patch_19">
     <path d="M 331.78125 105.538937 
L 351.78125 105.538937 
L 351.78125 98.538937 
L 331.78125 98.538937 
z
" style="fill: #56b4e9; fill-opacity: 0.8"/>
    </g>
    <g id="text_21">
     <!-- veg -->
     <g transform="translate(359.78125 105.538937) scale(0.1 -0.1)">
      <defs>
       <path id="DejaVuSans-76" d="M 191 3500 
L 800 3500 
L 1894 563 
L 2988 3500 
L 3597 3500 
L 2284 0 
L 1503 0 
L 191 3500 
z
" transform="scale(0.015625)"/>
       <path id="DejaVuSans-67" d="M 2906 1791 
Q 2906 2416 2648 2759 
Q 2391 3103 1925 3103 
Q 1463 3103 1205 2759 
Q 947 2416 947 1791 
Q 947 1169 1205 825 
Q 1463 481 1925 481 
Q 2391 481 2648 825 
Q 2906 1169 2906 1791 
z
M 3481 434 
Q 3481 -459 3084 -895 
Q 2688 -1331 1869 -1331 
Q 1566 -1331 1297 -1286 
Q 1028 -1241 775 -1147 
L 775 -588 
Q 1028 -725 1275 -790 
Q 1522 -856 1778 -856 
Q 2344 -856 2625 -561 
Q 2906 -266 2906 331 
L 2906 616 
Q 2728 306 2450 153 
Q 2172 0 1784 0 
Q 1141 0 747 490 
Q 353 981 353 1791 
Q 353 2603 747 3093 
Q 1141 3584 1784 3584 
Q 2172 3584 2450 3431 
Q 2728 3278 2906 2969 
L 2906 3500 
L 3481 3500 
L 3481 434 
z
" transform="scale(0.015625)"/>
      </defs>
      <use xlink:href="#DejaVuSans-76"/>
      <use xlink:href="#DejaVuSans-65" x="59.179688"/>
      <use xlink:href="#DejaVuSans-67" x="120.703125"/>
     </g>
    </g>
   </g>
  </g>
 </g>
 <defs>
  <clipPath id="p3ed38e50ea">
   <rect x="43.78125" y="22.318125" width="279" height="108.72"/>
  </clipPath>
 </defs>
</svg>
