<?xml version="1.0" encoding="utf-8" standalone="no"?>
<!DOCTYPE svg PUBLIC "-//W3C//DTD SVG 1.1//EN"
  "http://www.w3.org/Graphics/SVG/1.1/DTD/svg11.dtd">
<svg xmlns:xlink="http://www.w3.org/1999/xlink" width="423.603125pt" height="168.594375pt" viewBox="0 0 423.603125 168.594375" xmlns="http://www.w3.org/2000/svg" version="1.1">
 <metadata>
  <rdf:RDF xmlns:dc="http://purl.org/dc/elements/1.1/" xmlns:cc="http://creativecommons.org/ns#" xmlns:rdf="http://www.w3.org/1999/02/22-rdf-syntax-ns#">
   <cc:Work>
    <dc:type rdf:resource="http://purl.org/dc/dcmitype/StillImage"/>
    <dc:date>2024-07-29T17:07:37.322094</dc:date>
    <dc:format>image/svg+xml</dc:format>
    <dc:creator>
     <cc:Agent>
      <dc:title>Matplotlib v3.7.0, https://matplotlib.org/</dc:title>
     </cc:Agent>
    </dc:creator>
   </cc:Work>
  </rdf:RDF>
 </metadata>
 <defs>
  <style type="text/css">*{stroke-linejoin: round; stroke-linecap: butt}</style>
 </defs>
 <g id="figure_1">
  <g id="patch_1">
   <path d="M 0 168.594375 
L 423.603125 168.594375 
L 423.603125 0 
L 0 0 
z
" style="fill: #ffffff"/>
  </g>
  <g id="axes_1">
   <g id="patch_2">
    <path d="M 43.78125 131.038125 
L 322.78125 131.038125 
L 322.78125 22.318125 
L 43.78125 22.318125 
z
" style="fill: #ffffff"/>
   </g>
   <g id="PolyCollection_1">
    <path d="M 43.78125 111.188245 
L 43.78125 131.038125 
L 50.269622 131.038125 
L 56.757994 131.038125 
L 63.246366 131.038125 
L 69.734738 131.038125 
L 76.22311 131.038125 
L 82.711483 131.038125 
L 89.199855 131.038125 
L 95.688227 131.038125 
L 102.176599 131.038125 
L 108.664971 131.038125 
L 115.153343 131.038125 
L 121.641715 131.038125 
L 128.130087 131.038125 
L 134.618459 131.038125 
L 141.106831 131.038125 
L 147.595203 131.038125 
L 154.083576 131.038125 
L 160.571948 131.038125 
L 167.06032 131.038125 
L 173.548692 131.038125 
L 180.037064 131.038125 
L 186.525436 131.038125 
L 193.013808 131.038125 
L 199.50218 131.038125 
L 205.990552 131.038125 
L 212.478924 131.038125 
L 218.967297 131.038125 
L 225.455669 131.038125 
L 231.944041 131.038125 
L 238.432413 131.038125 
L 244.920785 131.038125 
L 251.409157 131.038125 
L 257.897529 131.038125 
L 264.385901 131.038125 
L 270.874273 131.038125 
L 277.362645 131.038125 
L 283.851017 131.038125 
L 290.33939 131.038125 
L 296.827762 131.038125 
L 303.316134 131.038125 
L 309.804506 131.038125 
L 316.292878 131.038125 
L 322.78125 131.038125 
L 322.78125 110.706012 
L 322.78125 110.706012 
L 316.292878 110.517203 
L 309.804506 111.042623 
L 303.316134 113.286273 
L 296.827762 109.671564 
L 290.33939 109.403527 
L 283.851017 109.568824 
L 277.362645 108.587674 
L 270.874273 108.694749 
L 264.385901 108.674226 
L 257.897529 108.510654 
L 251.409157 107.843134 
L 244.920785 107.681158 
L 238.432413 107.178268 
L 231.944041 107.566487 
L 225.455669 107.219313 
L 218.967297 107.688371 
L 212.478924 106.09192 
L 205.990552 105.858461 
L 199.50218 105.798936 
L 193.013808 106.572941 
L 186.525436 105.167155 
L 180.037064 104.850533 
L 173.548692 104.46998 
L 167.06032 105.054003 
L 160.571948 106.560934 
L 154.083576 107.529817 
L 147.595203 103.079995 
L 141.106831 103.048107 
L 134.618459 102.597641 
L 128.130087 102.559633 
L 121.641715 102.677154 
L 115.153343 102.020033 
L 108.664971 101.683179 
L 102.176599 101.454303 
L 95.688227 101.529625 
L 89.199855 101.430948 
L 82.711483 101.289394 
L 76.22311 101.350106 
L 69.734738 101.421632 
L 63.246366 101.784072 
L 56.757994 103.325641 
L 50.269622 105.937059 
L 43.78125 111.188245 
z
" clip-path="url(#p399ba659b9)" style="fill: #0072b2; fill-opacity: 0.8"/>
   </g>
   <g id="PolyCollection_2">
    <path d="M 43.78125 103.3184 
L 43.78125 111.188245 
L 50.269622 105.937059 
L 56.757994 103.325641 
L 63.246366 101.784072 
L 69.734738 101.421632 
L 76.22311 101.350106 
L 82.711483 101.289394 
L 89.199855 101.430948 
L 95.688227 101.529625 
L 102.176599 101.454303 
L 108.664971 101.683179 
L 115.153343 102.020033 
L 121.641715 102.677154 
L 128.130087 102.559633 
L 134.618459 102.597641 
L 141.106831 103.048107 
L 147.595203 103.079995 
L 154.083576 107.529817 
L 160.571948 106.560934 
L 167.06032 105.054003 
L 173.548692 104.46998 
L 180.037064 104.850533 
L 186.525436 105.167155 
L 193.013808 106.572941 
L 199.50218 105.798936 
L 205.990552 105.858461 
L 212.478924 106.09192 
L 218.967297 107.688371 
L 225.455669 107.219313 
L 231.944041 107.566487 
L 238.432413 107.178268 
L 244.920785 107.681158 
L 251.409157 107.843134 
L 257.897529 108.510654 
L 264.385901 108.674226 
L 270.874273 108.694749 
L 277.362645 108.587674 
L 283.851017 109.568824 
L 290.33939 109.403527 
L 296.827762 109.671564 
L 303.316134 113.286273 
L 309.804506 111.042623 
L 316.292878 110.517203 
L 322.78125 110.706012 
L 322.78125 89.43582 
L 322.78125 89.43582 
L 316.292878 89.525617 
L 309.804506 91.05688 
L 303.316134 95.952444 
L 296.827762 89.296793 
L 290.33939 89.242208 
L 283.851017 89.997768 
L 277.362645 88.564185 
L 270.874273 89.194661 
L 264.385901 89.580498 
L 257.897529 89.694306 
L 251.409157 88.887908 
L 244.920785 89.027649 
L 238.432413 88.561205 
L 231.944041 89.691514 
L 225.455669 89.52553 
L 218.967297 90.780078 
L 212.478924 88.492114 
L 205.990552 88.566033 
L 199.50218 88.929025 
L 193.013808 90.655286 
L 186.525436 88.792505 
L 180.037064 88.719188 
L 173.548692 88.537735 
L 167.06032 89.883223 
L 160.571948 92.641159 
L 154.083576 94.502834 
L 147.595203 87.976865 
L 141.106831 88.293305 
L 134.618459 87.960935 
L 128.130087 88.240339 
L 121.641715 88.73907 
L 115.153343 88.069806 
L 108.664971 87.871299 
L 102.176599 87.812992 
L 95.688227 88.186988 
L 89.199855 88.29606 
L 82.711483 88.329375 
L 76.22311 88.642987 
L 69.734738 88.953775 
L 63.246366 89.664307 
L 56.757994 92.020604 
L 50.269622 95.840601 
L 43.78125 103.3184 
z
" clip-path="url(#p399ba659b9)" style="fill: #009e73; fill-opacity: 0.8"/>
   </g>
   <g id="PolyCollection_3">
    <path d="M 43.78125 101.010938 
L 43.78125 103.3184 
L 50.269622 95.840601 
L 56.757994 92.020604 
L 63.246366 89.664307 
L 69.734738 88.953775 
L 76.22311 88.642987 
L 82.711483 88.329375 
L 89.199855 88.29606 
L 95.688227 88.186988 
L 102.176599 87.812992 
L 108.664971 87.871299 
L 115.153343 88.069806 
L 121.641715 88.73907 
L 128.130087 88.240339 
L 134.618459 87.960935 
L 141.106831 88.293305 
L 147.595203 87.976865 
L 154.083576 94.502834 
L 160.571948 92.641159 
L 167.06032 89.883223 
L 173.548692 88.537735 
L 180.037064 88.719188 
L 186.525436 88.792505 
L 193.013808 90.655286 
L 199.50218 88.929025 
L 205.990552 88.566033 
L 212.478924 88.492114 
L 218.967297 90.780078 
L 225.455669 89.52553 
L 231.944041 89.691514 
L 238.432413 88.561205 
L 244.920785 89.027649 
L 251.409157 88.887908 
L 257.897529 89.694306 
L 264.385901 89.580498 
L 270.874273 89.194661 
L 277.362645 88.564185 
L 283.851017 89.997768 
L 290.33939 89.242208 
L 296.827762 89.296793 
L 303.316134 95.952444 
L 309.804506 91.05688 
L 316.292878 89.525617 
L 322.78125 89.43582 
L 322.78125 87.212463 
L 322.78125 87.212463 
L 316.292878 87.480029 
L 309.804506 88.29025 
L 303.316134 87.105373 
L 296.827762 87.124024 
L 290.33939 87.187087 
L 283.851017 87.130629 
L 277.362645 87.183314 
L 270.874273 87.131497 
L 264.385901 87.104853 
L 257.897529 87.100798 
L 251.409157 87.110086 
L 244.920785 87.1582 
L 238.432413 87.264094 
L 231.944041 87.137479 
L 225.455669 87.242564 
L 218.967297 87.114018 
L 212.478924 87.142969 
L 205.990552 87.235518 
L 199.50218 87.383471 
L 193.013808 87.124494 
L 186.525436 87.18405 
L 180.037064 87.362852 
L 173.548692 87.769051 
L 167.06032 88.327339 
L 160.571948 87.144401 
L 154.083576 87.121697 
L 147.595203 87.181292 
L 141.106831 87.170235 
L 134.618459 87.24133 
L 128.130087 87.251108 
L 121.641715 87.156618 
L 115.153343 87.203685 
L 108.664971 87.249769 
L 102.176599 87.305744 
L 95.688227 87.311291 
L 89.199855 87.423351 
L 82.711483 87.568315 
L 76.22311 87.573113 
L 69.734738 87.937363 
L 63.246366 88.945675 
L 56.757994 91.347944 
L 50.269622 94.907952 
L 43.78125 101.010938 
z
" clip-path="url(#p399ba659b9)" style="fill: #d55e00; fill-opacity: 0.8"/>
   </g>
   <g id="PolyCollection_4">
    <path d="M 43.78125 94.558373 
L 43.78125 101.010938 
L 50.269622 94.907952 
L 56.757994 91.347944 
L 63.246366 88.945675 
L 69.734738 87.937363 
L 76.22311 87.573113 
L 82.711483 87.568315 
L 89.199855 87.423351 
L 95.688227 87.311291 
L 102.176599 87.305744 
L 108.664971 87.249769 
L 115.153343 87.203685 
L 121.641715 87.156618 
L 128.130087 87.251108 
L 134.618459 87.24133 
L 141.106831 87.170235 
L 147.595203 87.181292 
L 154.083576 87.121697 
L 160.571948 87.144401 
L 167.06032 88.327339 
L 173.548692 87.769051 
L 180.037064 87.362852 
L 186.525436 87.18405 
L 193.013808 87.124494 
L 199.50218 87.383471 
L 205.990552 87.235518 
L 212.478924 87.142969 
L 218.967297 87.114018 
L 225.455669 87.242564 
L 231.944041 87.137479 
L 238.432413 87.264094 
L 244.920785 87.1582 
L 251.409157 87.110086 
L 257.897529 87.100798 
L 264.385901 87.104853 
L 270.874273 87.131497 
L 277.362645 87.183314 
L 283.851017 87.130629 
L 290.33939 87.187087 
L 296.827762 87.124024 
L 303.316134 87.105373 
L 309.804506 88.29025 
L 316.292878 87.480029 
L 322.78125 87.212463 
L 322.78125 87.200794 
L 322.78125 87.200794 
L 316.292878 87.480029 
L 309.804506 88.29025 
L 303.316134 87.079562 
L 296.827762 87.11594 
L 290.33939 87.187087 
L 283.851017 87.042339 
L 277.362645 87.183314 
L 270.874273 87.131497 
L 264.385901 87.104853 
L 257.897529 87.087333 
L 251.409157 87.110086 
L 244.920785 87.044828 
L 238.432413 87.264094 
L 231.944041 87.12172 
L 225.455669 87.242564 
L 218.967297 87.067758 
L 212.478924 87.141971 
L 205.990552 87.234275 
L 199.50218 87.383471 
L 193.013808 87.070316 
L 186.525436 87.181399 
L 180.037064 87.237443 
L 173.548692 87.769051 
L 167.06032 88.327339 
L 160.571948 87.144401 
L 154.083576 87.058614 
L 147.595203 87.181292 
L 141.106831 87.099729 
L 134.618459 87.24133 
L 128.130087 87.251108 
L 121.641715 87.155378 
L 115.153343 87.19985 
L 108.664971 87.219526 
L 102.176599 87.305744 
L 95.688227 87.31114 
L 89.199855 87.390958 
L 82.711483 87.568315 
L 76.22311 87.573113 
L 69.734738 87.912159 
L 63.246366 88.914637 
L 56.757994 91.344622 
L 50.269622 94.907952 
L 43.78125 94.558373 
z
" clip-path="url(#p399ba659b9)" style="fill: #cc79a7; fill-opacity: 0.8"/>
   </g>
   <g id="PolyCollection_5">
    <path d="M 43.78125 83.250417 
L 43.78125 94.558373 
L 50.269622 94.907952 
L 56.757994 91.344622 
L 63.246366 88.914637 
L 69.734738 87.912159 
L 76.22311 87.573113 
L 82.711483 87.568315 
L 89.199855 87.390958 
L 95.688227 87.31114 
L 102.176599 87.305744 
L 108.664971 87.219526 
L 115.153343 87.19985 
L 121.641715 87.155378 
L 128.130087 87.251108 
L 134.618459 87.24133 
L 141.106831 87.099729 
L 147.595203 87.181292 
L 154.083576 87.058614 
L 160.571948 87.144401 
L 167.06032 88.327339 
L 173.548692 87.769051 
L 180.037064 87.237443 
L 186.525436 87.181399 
L 193.013808 87.070316 
L 199.50218 87.383471 
L 205.990552 87.234275 
L 212.478924 87.141971 
L 218.967297 87.067758 
L 225.455669 87.242564 
L 231.944041 87.12172 
L 238.432413 87.264094 
L 244.920785 87.044828 
L 251.409157 87.110086 
L 257.897529 87.087333 
L 264.385901 87.104853 
L 270.874273 87.131497 
L 277.362645 87.183314 
L 283.851017 87.042339 
L 290.33939 87.187087 
L 296.827762 87.11594 
L 303.316134 87.079562 
L 309.804506 88.29025 
L 316.292878 87.480029 
L 322.78125 87.200794 
L 322.78125 87.087988 
L 322.78125 87.087988 
L 316.292878 87.09494 
L 309.804506 87.09494 
L 303.316134 87.079562 
L 296.827762 87.090124 
L 290.33939 87.09494 
L 283.851017 87.042336 
L 277.362645 87.09494 
L 270.874273 87.09494 
L 264.385901 87.09494 
L 257.897529 87.086917 
L 251.409157 87.09494 
L 244.920785 87.027392 
L 238.432413 87.09494 
L 231.944041 87.085551 
L 225.455669 87.09494 
L 218.967297 87.067378 
L 212.478924 87.094346 
L 205.990552 87.0942 
L 199.50218 87.09494 
L 193.013808 87.06266 
L 186.525436 87.093361 
L 180.037064 87.02022 
L 173.548692 87.09494 
L 167.06032 87.100057 
L 160.571948 87.09494 
L 154.083576 87.057354 
L 147.595203 87.09494 
L 141.106831 87.052932 
L 134.618459 87.100966 
L 128.130087 87.09494 
L 121.641715 87.094202 
L 115.153343 87.092656 
L 108.664971 87.076921 
L 102.176599 87.09494 
L 95.688227 87.094851 
L 89.199855 87.075641 
L 82.711483 87.109142 
L 76.22311 87.09494 
L 69.734738 87.079923 
L 63.246366 87.076448 
L 56.757994 87.092961 
L 50.269622 87.09494 
L 43.78125 83.250417 
z
" clip-path="url(#p399ba659b9)" style="fill: #f0e442; fill-opacity: 0.8"/>
   </g>
   <g id="PolyCollection_6">
    <path d="M 43.78125 22.318125 
L 43.78125 83.250417 
L 50.269622 87.09494 
L 56.757994 87.092961 
L 63.246366 87.076448 
L 69.734738 87.079923 
L 76.22311 87.09494 
L 82.711483 87.109142 
L 89.199855 87.075641 
L 95.688227 87.094851 
L 102.176599 87.09494 
L 108.664971 87.076921 
L 115.153343 87.092656 
L 121.641715 87.094202 
L 128.130087 87.09494 
L 134.618459 87.100966 
L 141.106831 87.052932 
L 147.595203 87.09494 
L 154.083576 87.057354 
L 160.571948 87.09494 
L 167.06032 87.100057 
L 173.548692 87.09494 
L 180.037064 87.02022 
L 186.525436 87.093361 
L 193.013808 87.06266 
L 199.50218 87.09494 
L 205.990552 87.0942 
L 212.478924 87.094346 
L 218.967297 87.067378 
L 225.455669 87.09494 
L 231.944041 87.085551 
L 238.432413 87.09494 
L 244.920785 87.027392 
L 251.409157 87.09494 
L 257.897529 87.086917 
L 264.385901 87.09494 
L 270.874273 87.09494 
L 277.362645 87.09494 
L 283.851017 87.042336 
L 290.33939 87.09494 
L 296.827762 87.090124 
L 303.316134 87.079562 
L 309.804506 87.09494 
L 316.292878 87.09494 
L 322.78125 87.087988 
L 322.78125 22.318125 
L 322.78125 22.318125 
L 316.292878 22.318125 
L 309.804506 22.318125 
L 303.316134 22.318125 
L 296.827762 22.318125 
L 290.33939 22.318125 
L 283.851017 22.318125 
L 277.362645 22.318125 
L 270.874273 22.318125 
L 264.385901 22.318125 
L 257.897529 22.318125 
L 251.409157 22.318125 
L 244.920785 22.318125 
L 238.432413 22.318125 
L 231.944041 22.318125 
L 225.455669 22.318125 
L 218.967297 22.318125 
L 212.478924 22.318125 
L 205.990552 22.318125 
L 199.50218 22.318125 
L 193.013808 22.318125 
L 186.525436 22.318125 
L 180.037064 22.318125 
L 173.548692 22.318125 
L 167.06032 22.318125 
L 160.571948 22.318125 
L 154.083576 22.318125 
L 147.595203 22.318125 
L 141.106831 22.318125 
L 134.618459 22.318125 
L 128.130087 22.318125 
L 121.641715 22.318125 
L 115.153343 22.318125 
L 108.664971 22.318125 
L 102.176599 22.318125 
L 95.688227 22.318125 
L 89.199855 22.318125 
L 82.711483 22.318125 
L 76.22311 22.318125 
L 69.734738 22.318125 
L 63.246366 22.318125 
L 56.757994 22.318125 
L 50.269622 22.318125 
L 43.78125 22.318125 
z
" clip-path="url(#p399ba659b9)" style="fill: #56b4e9; fill-opacity: 0.8"/>
   </g>
   <g id="patch_3">
    <path d="M 47.674273 131.038125 
L 52.864971 131.038125 
L 52.864971 56.639396 
L 47.674273 56.639396 
z
" clip-path="url(#p399ba659b9)"/>
   </g>
   <g id="patch_4">
    <path d="M 209.883576 131.038125 
L 215.074273 131.038125 
L 215.074273 57.650465 
L 209.883576 57.650465 
z
" clip-path="url(#p399ba659b9)"/>
   </g>
   <g id="patch_5">
    <path d="M 294.232413 131.038125 
L 299.42311 131.038125 
L 299.42311 60.240617 
L 294.232413 60.240617 
z
" clip-path="url(#p399ba659b9)"/>
   </g>
   <g id="patch_6">
    <path d="M 47.674273 51.962493 
L 52.864971 51.962493 
L 52.864971 22.318125 
L 47.674273 22.318125 
z
" clip-path="url(#p399ba659b9)" style="fill: #0000ff"/>
   </g>
   <g id="patch_7">
    <path d="M 209.883576 52.337331 
L 215.074273 52.337331 
L 215.074273 22.318125 
L 209.883576 22.318125 
z
" clip-path="url(#p399ba659b9)" style="fill: #0000ff"/>
   </g>
   <g id="patch_8">
    <path d="M 294.232413 53.134301 
L 299.42311 53.134301 
L 299.42311 22.318125 
L 294.232413 22.318125 
z
" clip-path="url(#p399ba659b9)" style="fill: #0000ff"/>
   </g>
   <g id="matplotlib.axis_1">
    <g id="xtick_1">
     <g id="line2d_1">
      <defs>
       <path id="m58f4d35fb3" d="M 0 0 
L 0 3.5 
" style="stroke: #000000; stroke-width: 0.8"/>
      </defs>
      <g>
       <use xlink:href="#m58f4d35fb3" x="50.269622" y="131.038125" style="stroke: #000000; stroke-width: 0.8"/>
      </g>
     </g>
     <g id="text_1">
      <!-- 1975 -->
      <g transform="translate(37.544622 145.636562) scale(0.1 -0.1)">
       <defs>
        <path id="DejaVuSans-31" d="M 794 531 
L 1825 531 
L 1825 4091 
L 703 3866 
L 703 4441 
L 1819 4666 
L 2450 4666 
L 2450 531 
L 3481 531 
L 3481 0 
L 794 0 
L 794 531 
z
" transform="scale(0.015625)"/>
        <path id="DejaVuSans-39" d="M 703 97 
L 703 672 
Q 941 559 1184 500 
Q 1428 441 1663 441 
Q 2288 441 2617 861 
Q 2947 1281 2994 2138 
Q 2813 1869 2534 1725 
Q 2256 1581 1919 1581 
Q 1219 1581 811 2004 
Q 403 2428 403 3163 
Q 403 3881 828 4315 
Q 1253 4750 1959 4750 
Q 2769 4750 3195 4129 
Q 3622 3509 3622 2328 
Q 3622 1225 3098 567 
Q 2575 -91 1691 -91 
Q 1453 -91 1209 -44 
Q 966 3 703 97 
z
M 1959 2075 
Q 2384 2075 2632 2365 
Q 2881 2656 2881 3163 
Q 2881 3666 2632 3958 
Q 2384 4250 1959 4250 
Q 1534 4250 1286 3958 
Q 1038 3666 1038 3163 
Q 1038 2656 1286 2365 
Q 1534 2075 1959 2075 
z
" transform="scale(0.015625)"/>
        <path id="DejaVuSans-37" d="M 525 4666 
L 3525 4666 
L 3525 4397 
L 1831 0 
L 1172 0 
L 2766 4134 
L 525 4134 
L 525 4666 
z
" transform="scale(0.015625)"/>
        <path id="DejaVuSans-35" d="M 691 4666 
L 3169 4666 
L 3169 4134 
L 1269 4134 
L 1269 2991 
Q 1406 3038 1543 3061 
Q 1681 3084 1819 3084 
Q 2600 3084 3056 2656 
Q 3513 2228 3513 1497 
Q 3513 744 3044 326 
Q 2575 -91 1722 -91 
Q 1428 -91 1123 -41 
Q 819 9 494 109 
L 494 744 
Q 775 591 1075 516 
Q 1375 441 1709 441 
Q 2250 441 2565 725 
Q 2881 1009 2881 1497 
Q 2881 1984 2565 2268 
Q 2250 2553 1709 2553 
Q 1456 2553 1204 2497 
Q 953 2441 691 2322 
L 691 4666 
z
" transform="scale(0.015625)"/>
       </defs>
       <use xlink:href="#DejaVuSans-31"/>
       <use xlink:href="#DejaVuSans-39" x="63.623047"/>
       <use xlink:href="#DejaVuSans-37" x="127.246094"/>
       <use xlink:href="#DejaVuSans-35" x="190.869141"/>
      </g>
     </g>
    </g>
    <g id="xtick_2">
     <g id="line2d_2">
      <g>
       <use xlink:href="#m58f4d35fb3" x="82.711483" y="131.038125" style="stroke: #000000; stroke-width: 0.8"/>
      </g>
     </g>
     <g id="text_2">
      <!-- 1980 -->
      <g transform="translate(69.986483 145.636562) scale(0.1 -0.1)">
       <defs>
        <path id="DejaVuSans-38" d="M 2034 2216 
Q 1584 2216 1326 1975 
Q 1069 1734 1069 1313 
Q 1069 891 1326 650 
Q 1584 409 2034 409 
Q 2484 409 2743 651 
Q 3003 894 3003 1313 
Q 3003 1734 2745 1975 
Q 2488 2216 2034 2216 
z
M 1403 2484 
Q 997 2584 770 2862 
Q 544 3141 544 3541 
Q 544 4100 942 4425 
Q 1341 4750 2034 4750 
Q 2731 4750 3128 4425 
Q 3525 4100 3525 3541 
Q 3525 3141 3298 2862 
Q 3072 2584 2669 2484 
Q 3125 2378 3379 2068 
Q 3634 1759 3634 1313 
Q 3634 634 3220 271 
Q 2806 -91 2034 -91 
Q 1263 -91 848 271 
Q 434 634 434 1313 
Q 434 1759 690 2068 
Q 947 2378 1403 2484 
z
M 1172 3481 
Q 1172 3119 1398 2916 
Q 1625 2713 2034 2713 
Q 2441 2713 2670 2916 
Q 2900 3119 2900 3481 
Q 2900 3844 2670 4047 
Q 2441 4250 2034 4250 
Q 1625 4250 1398 4047 
Q 1172 3844 1172 3481 
z
" transform="scale(0.015625)"/>
        <path id="DejaVuSans-30" d="M 2034 4250 
Q 1547 4250 1301 3770 
Q 1056 3291 1056 2328 
Q 1056 1369 1301 889 
Q 1547 409 2034 409 
Q 2525 409 2770 889 
Q 3016 1369 3016 2328 
Q 3016 3291 2770 3770 
Q 2525 4250 2034 4250 
z
M 2034 4750 
Q 2819 4750 3233 4129 
Q 3647 3509 3647 2328 
Q 3647 1150 3233 529 
Q 2819 -91 2034 -91 
Q 1250 -91 836 529 
Q 422 1150 422 2328 
Q 422 3509 836 4129 
Q 1250 4750 2034 4750 
z
" transform="scale(0.015625)"/>
       </defs>
       <use xlink:href="#DejaVuSans-31"/>
       <use xlink:href="#DejaVuSans-39" x="63.623047"/>
       <use xlink:href="#DejaVuSans-38" x="127.246094"/>
       <use xlink:href="#DejaVuSans-30" x="190.869141"/>
      </g>
     </g>
    </g>
    <g id="xtick_3">
     <g id="line2d_3">
      <g>
       <use xlink:href="#m58f4d35fb3" x="115.153343" y="131.038125" style="stroke: #000000; stroke-width: 0.8"/>
      </g>
     </g>
     <g id="text_3">
      <!-- 1985 -->
      <g transform="translate(102.428343 145.636562) scale(0.1 -0.1)">
       <use xlink:href="#DejaVuSans-31"/>
       <use xlink:href="#DejaVuSans-39" x="63.623047"/>
       <use xlink:href="#DejaVuSans-38" x="127.246094"/>
       <use xlink:href="#DejaVuSans-35" x="190.869141"/>
      </g>
     </g>
    </g>
    <g id="xtick_4">
     <g id="line2d_4">
      <g>
       <use xlink:href="#m58f4d35fb3" x="147.595203" y="131.038125" style="stroke: #000000; stroke-width: 0.8"/>
      </g>
     </g>
     <g id="text_4">
      <!-- 1990 -->
      <g transform="translate(134.870203 145.636562) scale(0.1 -0.1)">
       <use xlink:href="#DejaVuSans-31"/>
       <use xlink:href="#DejaVuSans-39" x="63.623047"/>
       <use xlink:href="#DejaVuSans-39" x="127.246094"/>
       <use xlink:href="#DejaVuSans-30" x="190.869141"/>
      </g>
     </g>
    </g>
    <g id="xtick_5">
     <g id="line2d_5">
      <g>
       <use xlink:href="#m58f4d35fb3" x="180.037064" y="131.038125" style="stroke: #000000; stroke-width: 0.8"/>
      </g>
     </g>
     <g id="text_5">
      <!-- 1995 -->
      <g transform="translate(167.312064 145.636562) scale(0.1 -0.1)">
       <use xlink:href="#DejaVuSans-31"/>
       <use xlink:href="#DejaVuSans-39" x="63.623047"/>
       <use xlink:href="#DejaVuSans-39" x="127.246094"/>
       <use xlink:href="#DejaVuSans-35" x="190.869141"/>
      </g>
     </g>
    </g>
    <g id="xtick_6">
     <g id="line2d_6">
      <g>
       <use xlink:href="#m58f4d35fb3" x="212.478924" y="131.038125" style="stroke: #000000; stroke-width: 0.8"/>
      </g>
     </g>
     <g id="text_6">
      <!-- 2000 -->
      <g transform="translate(199.753924 145.636562) scale(0.1 -0.1)">
       <defs>
        <path id="DejaVuSans-32" d="M 1228 531 
L 3431 531 
L 3431 0 
L 469 0 
L 469 531 
Q 828 903 1448 1529 
Q 2069 2156 2228 2338 
Q 2531 2678 2651 2914 
Q 2772 3150 2772 3378 
Q 2772 3750 2511 3984 
Q 2250 4219 1831 4219 
Q 1534 4219 1204 4116 
Q 875 4013 500 3803 
L 500 4441 
Q 881 4594 1212 4672 
Q 1544 4750 1819 4750 
Q 2544 4750 2975 4387 
Q 3406 4025 3406 3419 
Q 3406 3131 3298 2873 
Q 3191 2616 2906 2266 
Q 2828 2175 2409 1742 
Q 1991 1309 1228 531 
z
" transform="scale(0.015625)"/>
       </defs>
       <use xlink:href="#DejaVuSans-32"/>
       <use xlink:href="#DejaVuSans-30" x="63.623047"/>
       <use xlink:href="#DejaVuSans-30" x="127.246094"/>
       <use xlink:href="#DejaVuSans-30" x="190.869141"/>
      </g>
     </g>
    </g>
    <g id="xtick_7">
     <g id="line2d_7">
      <g>
       <use xlink:href="#m58f4d35fb3" x="244.920785" y="131.038125" style="stroke: #000000; stroke-width: 0.8"/>
      </g>
     </g>
     <g id="text_7">
      <!-- 2005 -->
      <g transform="translate(232.195785 145.636562) scale(0.1 -0.1)">
       <use xlink:href="#DejaVuSans-32"/>
       <use xlink:href="#DejaVuSans-30" x="63.623047"/>
       <use xlink:href="#DejaVuSans-30" x="127.246094"/>
       <use xlink:href="#DejaVuSans-35" x="190.869141"/>
      </g>
     </g>
    </g>
    <g id="xtick_8">
     <g id="line2d_8">
      <g>
       <use xlink:href="#m58f4d35fb3" x="277.362645" y="131.038125" style="stroke: #000000; stroke-width: 0.8"/>
      </g>
     </g>
     <g id="text_8">
      <!-- 2010 -->
      <g transform="translate(264.637645 145.636562) scale(0.1 -0.1)">
       <use xlink:href="#DejaVuSans-32"/>
       <use xlink:href="#DejaVuSans-30" x="63.623047"/>
       <use xlink:href="#DejaVuSans-31" x="127.246094"/>
       <use xlink:href="#DejaVuSans-30" x="190.869141"/>
      </g>
     </g>
    </g>
    <g id="xtick_9">
     <g id="line2d_9">
      <g>
       <use xlink:href="#m58f4d35fb3" x="309.804506" y="131.038125" style="stroke: #000000; stroke-width: 0.8"/>
      </g>
     </g>
     <g id="text_9">
      <!-- 2015 -->
      <g transform="translate(297.079506 145.636562) scale(0.1 -0.1)">
       <use xlink:href="#DejaVuSans-32"/>
       <use xlink:href="#DejaVuSans-30" x="63.623047"/>
       <use xlink:href="#DejaVuSans-31" x="127.246094"/>
       <use xlink:href="#DejaVuSans-35" x="190.869141"/>
      </g>
     </g>
    </g>
    <g id="text_10">
     <!-- Year -->
     <g transform="translate(172.69375 159.314687) scale(0.1 -0.1)">
      <defs>
       <path id="DejaVuSans-59" d="M -13 4666 
L 666 4666 
L 1959 2747 
L 3244 4666 
L 3922 4666 
L 2272 2222 
L 2272 0 
L 1638 0 
L 1638 2222 
L -13 4666 
z
" transform="scale(0.015625)"/>
       <path id="DejaVuSans-65" d="M 3597 1894 
L 3597 1613 
L 953 1613 
Q 991 1019 1311 708 
Q 1631 397 2203 397 
Q 2534 397 2845 478 
Q 3156 559 3463 722 
L 3463 178 
Q 3153 47 2828 -22 
Q 2503 -91 2169 -91 
Q 1331 -91 842 396 
Q 353 884 353 1716 
Q 353 2575 817 3079 
Q 1281 3584 2069 3584 
Q 2775 3584 3186 3129 
Q 3597 2675 3597 1894 
z
M 3022 2063 
Q 3016 2534 2758 2815 
Q 2500 3097 2075 3097 
Q 1594 3097 1305 2825 
Q 1016 2553 972 2059 
L 3022 2063 
z
" transform="scale(0.015625)"/>
       <path id="DejaVuSans-61" d="M 2194 1759 
Q 1497 1759 1228 1600 
Q 959 1441 959 1056 
Q 959 750 1161 570 
Q 1363 391 1709 391 
Q 2188 391 2477 730 
Q 2766 1069 2766 1631 
L 2766 1759 
L 2194 1759 
z
M 3341 1997 
L 3341 0 
L 2766 0 
L 2766 531 
Q 2569 213 2275 61 
Q 1981 -91 1556 -91 
Q 1019 -91 701 211 
Q 384 513 384 1019 
Q 384 1609 779 1909 
Q 1175 2209 1959 2209 
L 2766 2209 
L 2766 2266 
Q 2766 2663 2505 2880 
Q 2244 3097 1772 3097 
Q 1472 3097 1187 3025 
Q 903 2953 641 2809 
L 641 3341 
Q 956 3463 1253 3523 
Q 1550 3584 1831 3584 
Q 2591 3584 2966 3190 
Q 3341 2797 3341 1997 
z
" transform="scale(0.015625)"/>
       <path id="DejaVuSans-72" d="M 2631 2963 
Q 2534 3019 2420 3045 
Q 2306 3072 2169 3072 
Q 1681 3072 1420 2755 
Q 1159 2438 1159 1844 
L 1159 0 
L 581 0 
L 581 3500 
L 1159 3500 
L 1159 2956 
Q 1341 3275 1631 3429 
Q 1922 3584 2338 3584 
Q 2397 3584 2469 3576 
Q 2541 3569 2628 3553 
L 2631 2963 
z
" transform="scale(0.015625)"/>
      </defs>
      <use xlink:href="#DejaVuSans-59"/>
      <use xlink:href="#DejaVuSans-65" x="47.833984"/>
      <use xlink:href="#DejaVuSans-61" x="109.357422"/>
      <use xlink:href="#DejaVuSans-72" x="170.636719"/>
     </g>
    </g>
   </g>
   <g id="matplotlib.axis_2">
    <g id="ytick_1">
     <g id="line2d_10">
      <defs>
       <path id="m601ab8ba83" d="M 0 0 
L -3.5 0 
" style="stroke: #000000; stroke-width: 0.8"/>
      </defs>
      <g>
       <use xlink:href="#m601ab8ba83" x="43.78125" y="131.038125" style="stroke: #000000; stroke-width: 0.8"/>
      </g>
     </g>
     <g id="text_11">
      <!-- 0.0 -->
      <g transform="translate(20.878125 134.837344) scale(0.1 -0.1)">
       <defs>
        <path id="DejaVuSans-2e" d="M 684 794 
L 1344 794 
L 1344 0 
L 684 0 
L 684 794 
z
" transform="scale(0.015625)"/>
       </defs>
       <use xlink:href="#DejaVuSans-30"/>
       <use xlink:href="#DejaVuSans-2e" x="63.623047"/>
       <use xlink:href="#DejaVuSans-30" x="95.410156"/>
      </g>
     </g>
    </g>
    <g id="ytick_2">
     <g id="line2d_11">
      <g>
       <use xlink:href="#m601ab8ba83" x="43.78125" y="109.294125" style="stroke: #000000; stroke-width: 0.8"/>
      </g>
     </g>
     <g id="text_12">
      <!-- 0.2 -->
      <g transform="translate(20.878125 113.093344) scale(0.1 -0.1)">
       <use xlink:href="#DejaVuSans-30"/>
       <use xlink:href="#DejaVuSans-2e" x="63.623047"/>
       <use xlink:href="#DejaVuSans-32" x="95.410156"/>
      </g>
     </g>
    </g>
    <g id="ytick_3">
     <g id="line2d_12">
      <g>
       <use xlink:href="#m601ab8ba83" x="43.78125" y="87.550125" style="stroke: #000000; stroke-width: 0.8"/>
      </g>
     </g>
     <g id="text_13">
      <!-- 0.4 -->
      <g transform="translate(20.878125 91.349344) scale(0.1 -0.1)">
       <defs>
        <path id="DejaVuSans-34" d="M 2419 4116 
L 825 1625 
L 2419 1625 
L 2419 4116 
z
M 2253 4666 
L 3047 4666 
L 3047 1625 
L 3713 1625 
L 3713 1100 
L 3047 1100 
L 3047 0 
L 2419 0 
L 2419 1100 
L 313 1100 
L 313 1709 
L 2253 4666 
z
" transform="scale(0.015625)"/>
       </defs>
       <use xlink:href="#DejaVuSans-30"/>
       <use xlink:href="#DejaVuSans-2e" x="63.623047"/>
       <use xlink:href="#DejaVuSans-34" x="95.410156"/>
      </g>
     </g>
    </g>
    <g id="ytick_4">
     <g id="line2d_13">
      <g>
       <use xlink:href="#m601ab8ba83" x="43.78125" y="65.806125" style="stroke: #000000; stroke-width: 0.8"/>
      </g>
     </g>
     <g id="text_14">
      <!-- 0.6 -->
      <g transform="translate(20.878125 69.605344) scale(0.1 -0.1)">
       <defs>
        <path id="DejaVuSans-36" d="M 2113 2584 
Q 1688 2584 1439 2293 
Q 1191 2003 1191 1497 
Q 1191 994 1439 701 
Q 1688 409 2113 409 
Q 2538 409 2786 701 
Q 3034 994 3034 1497 
Q 3034 2003 2786 2293 
Q 2538 2584 2113 2584 
z
M 3366 4563 
L 3366 3988 
Q 3128 4100 2886 4159 
Q 2644 4219 2406 4219 
Q 1781 4219 1451 3797 
Q 1122 3375 1075 2522 
Q 1259 2794 1537 2939 
Q 1816 3084 2150 3084 
Q 2853 3084 3261 2657 
Q 3669 2231 3669 1497 
Q 3669 778 3244 343 
Q 2819 -91 2113 -91 
Q 1303 -91 875 529 
Q 447 1150 447 2328 
Q 447 3434 972 4092 
Q 1497 4750 2381 4750 
Q 2619 4750 2861 4703 
Q 3103 4656 3366 4563 
z
" transform="scale(0.015625)"/>
       </defs>
       <use xlink:href="#DejaVuSans-30"/>
       <use xlink:href="#DejaVuSans-2e" x="63.623047"/>
       <use xlink:href="#DejaVuSans-36" x="95.410156"/>
      </g>
     </g>
    </g>
    <g id="ytick_5">
     <g id="line2d_14">
      <g>
       <use xlink:href="#m601ab8ba83" x="43.78125" y="44.062125" style="stroke: #000000; stroke-width: 0.8"/>
      </g>
     </g>
     <g id="text_15">
      <!-- 0.8 -->
      <g transform="translate(20.878125 47.861344) scale(0.1 -0.1)">
       <use xlink:href="#DejaVuSans-30"/>
       <use xlink:href="#DejaVuSans-2e" x="63.623047"/>
       <use xlink:href="#DejaVuSans-38" x="95.410156"/>
      </g>
     </g>
    </g>
    <g id="ytick_6">
     <g id="line2d_15">
      <g>
       <use xlink:href="#m601ab8ba83" x="43.78125" y="22.318125" style="stroke: #000000; stroke-width: 0.8"/>
      </g>
     </g>
     <g id="text_16">
      <!-- 1.0 -->
      <g transform="translate(20.878125 26.117344) scale(0.1 -0.1)">
       <use xlink:href="#DejaVuSans-31"/>
       <use xlink:href="#DejaVuSans-2e" x="63.623047"/>
       <use xlink:href="#DejaVuSans-30" x="95.410156"/>
      </g>
     </g>
    </g>
    <g id="text_17">
     <!-- Area (ha) -->
     <g transform="translate(14.798438 99.905469) rotate(-90) scale(0.1 -0.1)">
      <defs>
       <path id="DejaVuSans-41" d="M 2188 4044 
L 1331 1722 
L 3047 1722 
L 2188 4044 
z
M 1831 4666 
L 2547 4666 
L 4325 0 
L 3669 0 
L 3244 1197 
L 1141 1197 
L 716 0 
L 50 0 
L 1831 4666 
z
" transform="scale(0.015625)"/>
       <path id="DejaVuSans-20" transform="scale(0.015625)"/>
       <path id="DejaVuSans-28" d="M 1984 4856 
Q 1566 4138 1362 3434 
Q 1159 2731 1159 2009 
Q 1159 1288 1364 580 
Q 1569 -128 1984 -844 
L 1484 -844 
Q 1016 -109 783 600 
Q 550 1309 550 2009 
Q 550 2706 781 3412 
Q 1013 4119 1484 4856 
L 1984 4856 
z
" transform="scale(0.015625)"/>
       <path id="DejaVuSans-68" d="M 3513 2113 
L 3513 0 
L 2938 0 
L 2938 2094 
Q 2938 2591 2744 2837 
Q 2550 3084 2163 3084 
Q 1697 3084 1428 2787 
Q 1159 2491 1159 1978 
L 1159 0 
L 581 0 
L 581 4863 
L 1159 4863 
L 1159 2956 
Q 1366 3272 1645 3428 
Q 1925 3584 2291 3584 
Q 2894 3584 3203 3211 
Q 3513 2838 3513 2113 
z
" transform="scale(0.015625)"/>
       <path id="DejaVuSans-29" d="M 513 4856 
L 1013 4856 
Q 1481 4119 1714 3412 
Q 1947 2706 1947 2009 
Q 1947 1309 1714 600 
Q 1481 -109 1013 -844 
L 513 -844 
Q 928 -128 1133 580 
Q 1338 1288 1338 2009 
Q 1338 2731 1133 3434 
Q 928 4138 513 4856 
z
" transform="scale(0.015625)"/>
      </defs>
      <use xlink:href="#DejaVuSans-41"/>
      <use xlink:href="#DejaVuSans-72" x="68.408203"/>
      <use xlink:href="#DejaVuSans-65" x="107.271484"/>
      <use xlink:href="#DejaVuSans-61" x="168.794922"/>
      <use xlink:href="#DejaVuSans-20" x="230.074219"/>
      <use xlink:href="#DejaVuSans-28" x="261.861328"/>
      <use xlink:href="#DejaVuSans-68" x="300.875"/>
      <use xlink:href="#DejaVuSans-61" x="364.253906"/>
      <use xlink:href="#DejaVuSans-29" x="425.533203"/>
     </g>
    </g>
   </g>
   <g id="patch_9">
    <path d="M 43.78125 131.038125 
L 43.78125 22.318125 
" style="fill: none; stroke: #000000; stroke-width: 0.8; stroke-linejoin: miter; stroke-linecap: square"/>
   </g>
   <g id="patch_10">
    <path d="M 322.78125 131.038125 
L 322.78125 22.318125 
" style="fill: none; stroke: #000000; stroke-width: 0.8; stroke-linejoin: miter; stroke-linecap: square"/>
   </g>
   <g id="patch_11">
    <path d="M 43.78125 131.038125 
L 322.78125 131.038125 
" style="fill: none; stroke: #000000; stroke-width: 0.8; stroke-linejoin: miter; stroke-linecap: square"/>
   </g>
   <g id="patch_12">
    <path d="M 43.78125 22.318125 
L 322.78125 22.318125 
" style="fill: none; stroke: #000000; stroke-width: 0.8; stroke-linejoin: miter; stroke-linecap: square"/>
   </g>
   <g id="text_18">
    <!-- Thies -->
    <g transform="translate(167.329688 16.318125) scale(0.12 -0.12)">
     <defs>
      <path id="DejaVuSans-54" d="M -19 4666 
L 3928 4666 
L 3928 4134 
L 2272 4134 
L 2272 0 
L 1638 0 
L 1638 4134 
L -19 4134 
L -19 4666 
z
" transform="scale(0.015625)"/>
      <path id="DejaVuSans-69" d="M 603 3500 
L 1178 3500 
L 1178 0 
L 603 0 
L 603 3500 
z
M 603 4863 
L 1178 4863 
L 1178 4134 
L 603 4134 
L 603 4863 
z
" transform="scale(0.015625)"/>
      <path id="DejaVuSans-73" d="M 2834 3397 
L 2834 2853 
Q 2591 2978 2328 3040 
Q 2066 3103 1784 3103 
Q 1356 3103 1142 2972 
Q 928 2841 928 2578 
Q 928 2378 1081 2264 
Q 1234 2150 1697 2047 
L 1894 2003 
Q 2506 1872 2764 1633 
Q 3022 1394 3022 966 
Q 3022 478 2636 193 
Q 2250 -91 1575 -91 
Q 1294 -91 989 -36 
Q 684 19 347 128 
L 347 722 
Q 666 556 975 473 
Q 1284 391 1588 391 
Q 1994 391 2212 530 
Q 2431 669 2431 922 
Q 2431 1156 2273 1281 
Q 2116 1406 1581 1522 
L 1381 1569 
Q 847 1681 609 1914 
Q 372 2147 372 2553 
Q 372 3047 722 3315 
Q 1072 3584 1716 3584 
Q 2034 3584 2315 3537 
Q 2597 3491 2834 3397 
z
" transform="scale(0.015625)"/>
     </defs>
     <use xlink:href="#DejaVuSans-54"/>
     <use xlink:href="#DejaVuSans-68" x="61.083984"/>
     <use xlink:href="#DejaVuSans-69" x="124.462891"/>
     <use xlink:href="#DejaVuSans-65" x="152.246094"/>
     <use xlink:href="#DejaVuSans-73" x="213.769531"/>
    </g>
   </g>
   <g id="legend_1">
    <g id="patch_13">
     <path d="M 329.78125 111.618625 
L 414.403125 111.618625 
Q 416.403125 111.618625 416.403125 109.618625 
L 416.403125 21.993625 
Q 416.403125 19.993625 414.403125 19.993625 
L 329.78125 19.993625 
Q 327.78125 19.993625 327.78125 21.993625 
L 327.78125 109.618625 
Q 327.78125 111.618625 329.78125 111.618625 
z
" style="fill: #ffffff; opacity: 0.8; stroke: #cccccc; stroke-linejoin: miter"/>
    </g>
    <g id="patch_14">
     <path d="M 331.78125 31.592062 
L 351.78125 31.592062 
L 351.78125 24.592062 
L 331.78125 24.592062 
z
" style="fill: #0072b2; fill-opacity: 0.8"/>
    </g>
    <g id="text_19">
     <!-- crop_subs -->
     <g transform="translate(359.78125 31.592062) scale(0.1 -0.1)">
      <defs>
       <path id="DejaVuSans-63" d="M 3122 3366 
L 3122 2828 
Q 2878 2963 2633 3030 
Q 2388 3097 2138 3097 
Q 1578 3097 1268 2742 
Q 959 2388 959 1747 
Q 959 1106 1268 751 
Q 1578 397 2138 397 
Q 2388 397 2633 464 
Q 2878 531 3122 666 
L 3122 134 
Q 2881 22 2623 -34 
Q 2366 -91 2075 -91 
Q 1284 -91 818 406 
Q 353 903 353 1747 
Q 353 2603 823 3093 
Q 1294 3584 2113 3584 
Q 2378 3584 2631 3529 
Q 2884 3475 3122 3366 
z
" transform="scale(0.015625)"/>
       <path id="DejaVuSans-6f" d="M 1959 3097 
Q 1497 3097 1228 2736 
Q 959 2375 959 1747 
Q 959 1119 1226 758 
Q 1494 397 1959 397 
Q 2419 397 2687 759 
Q 2956 1122 2956 1747 
Q 2956 2369 2687 2733 
Q 2419 3097 1959 3097 
z
M 1959 3584 
Q 2709 3584 3137 3096 
Q 3566 2609 3566 1747 
Q 3566 888 3137 398 
Q 2709 -91 1959 -91 
Q 1206 -91 779 398 
Q 353 888 353 1747 
Q 353 2609 779 3096 
Q 1206 3584 1959 3584 
z
" transform="scale(0.015625)"/>
       <path id="DejaVuSans-70" d="M 1159 525 
L 1159 -1331 
L 581 -1331 
L 581 3500 
L 1159 3500 
L 1159 2969 
Q 1341 3281 1617 3432 
Q 1894 3584 2278 3584 
Q 2916 3584 3314 3078 
Q 3713 2572 3713 1747 
Q 3713 922 3314 415 
Q 2916 -91 2278 -91 
Q 1894 -91 1617 61 
Q 1341 213 1159 525 
z
M 3116 1747 
Q 3116 2381 2855 2742 
Q 2594 3103 2138 3103 
Q 1681 3103 1420 2742 
Q 1159 2381 1159 1747 
Q 1159 1113 1420 752 
Q 1681 391 2138 391 
Q 2594 391 2855 752 
Q 3116 1113 3116 1747 
z
" transform="scale(0.015625)"/>
       <path id="DejaVuSans-5f" d="M 3263 -1063 
L 3263 -1509 
L -63 -1509 
L -63 -1063 
L 3263 -1063 
z
" transform="scale(0.015625)"/>
       <path id="DejaVuSans-75" d="M 544 1381 
L 544 3500 
L 1119 3500 
L 1119 1403 
Q 1119 906 1312 657 
Q 1506 409 1894 409 
Q 2359 409 2629 706 
Q 2900 1003 2900 1516 
L 2900 3500 
L 3475 3500 
L 3475 0 
L 2900 0 
L 2900 538 
Q 2691 219 2414 64 
Q 2138 -91 1772 -91 
Q 1169 -91 856 284 
Q 544 659 544 1381 
z
M 1991 3584 
L 1991 3584 
z
" transform="scale(0.015625)"/>
       <path id="DejaVuSans-62" d="M 3116 1747 
Q 3116 2381 2855 2742 
Q 2594 3103 2138 3103 
Q 1681 3103 1420 2742 
Q 1159 2381 1159 1747 
Q 1159 1113 1420 752 
Q 1681 391 2138 391 
Q 2594 391 2855 752 
Q 3116 1113 3116 1747 
z
M 1159 2969 
Q 1341 3281 1617 3432 
Q 1894 3584 2278 3584 
Q 2916 3584 3314 3078 
Q 3713 2572 3713 1747 
Q 3713 922 3314 415 
Q 2916 -91 2278 -91 
Q 1894 -91 1617 61 
Q 1341 213 1159 525 
L 1159 0 
L 581 0 
L 581 4863 
L 1159 4863 
L 1159 2969 
z
" transform="scale(0.015625)"/>
      </defs>
      <use xlink:href="#DejaVuSans-63"/>
      <use xlink:href="#DejaVuSans-72" x="54.980469"/>
      <use xlink:href="#DejaVuSans-6f" x="93.84375"/>
      <use xlink:href="#DejaVuSans-70" x="155.025391"/>
      <use xlink:href="#DejaVuSans-5f" x="218.501953"/>
      <use xlink:href="#DejaVuSans-73" x="268.501953"/>
      <use xlink:href="#DejaVuSans-75" x="320.601562"/>
      <use xlink:href="#DejaVuSans-62" x="383.980469"/>
      <use xlink:href="#DejaVuSans-73" x="447.457031"/>
     </g>
    </g>
    <g id="patch_15">
     <path d="M 331.78125 46.548312 
L 351.78125 46.548312 
L 351.78125 39.548312 
L 331.78125 39.548312 
z
" style="fill: #009e73; fill-opacity: 0.8"/>
    </g>
    <g id="text_20">
     <!-- crop_mark -->
     <g transform="translate(359.78125 46.548312) scale(0.1 -0.1)">
      <defs>
       <path id="DejaVuSans-6d" d="M 3328 2828 
Q 3544 3216 3844 3400 
Q 4144 3584 4550 3584 
Q 5097 3584 5394 3201 
Q 5691 2819 5691 2113 
L 5691 0 
L 5113 0 
L 5113 2094 
Q 5113 2597 4934 2840 
Q 4756 3084 4391 3084 
Q 3944 3084 3684 2787 
Q 3425 2491 3425 1978 
L 3425 0 
L 2847 0 
L 2847 2094 
Q 2847 2600 2669 2842 
Q 2491 3084 2119 3084 
Q 1678 3084 1418 2786 
Q 1159 2488 1159 1978 
L 1159 0 
L 581 0 
L 581 3500 
L 1159 3500 
L 1159 2956 
Q 1356 3278 1631 3431 
Q 1906 3584 2284 3584 
Q 2666 3584 2933 3390 
Q 3200 3197 3328 2828 
z
" transform="scale(0.015625)"/>
       <path id="DejaVuSans-6b" d="M 581 4863 
L 1159 4863 
L 1159 1991 
L 2875 3500 
L 3609 3500 
L 1753 1863 
L 3688 0 
L 2938 0 
L 1159 1709 
L 1159 0 
L 581 0 
L 581 4863 
z
" transform="scale(0.015625)"/>
      </defs>
      <use xlink:href="#DejaVuSans-63"/>
      <use xlink:href="#DejaVuSans-72" x="54.980469"/>
      <use xlink:href="#DejaVuSans-6f" x="93.84375"/>
      <use xlink:href="#DejaVuSans-70" x="155.025391"/>
      <use xlink:href="#DejaVuSans-5f" x="218.501953"/>
      <use xlink:href="#DejaVuSans-6d" x="268.501953"/>
      <use xlink:href="#DejaVuSans-61" x="365.914062"/>
      <use xlink:href="#DejaVuSans-72" x="427.193359"/>
      <use xlink:href="#DejaVuSans-6b" x="468.306641"/>
     </g>
    </g>
    <g id="patch_16">
     <path d="M 331.78125 61.504562 
L 351.78125 61.504562 
L 351.78125 54.504562 
L 331.78125 54.504562 
z
" style="fill: #d55e00; fill-opacity: 0.8"/>
    </g>
    <g id="text_21">
     <!-- fal -->
     <g transform="translate(359.78125 61.504562) scale(0.1 -0.1)">
      <defs>
       <path id="DejaVuSans-66" d="M 2375 4863 
L 2375 4384 
L 1825 4384 
Q 1516 4384 1395 4259 
Q 1275 4134 1275 3809 
L 1275 3500 
L 2222 3500 
L 2222 3053 
L 1275 3053 
L 1275 0 
L 697 0 
L 697 3053 
L 147 3053 
L 147 3500 
L 697 3500 
L 697 3744 
Q 697 4328 969 4595 
Q 1241 4863 1831 4863 
L 2375 4863 
z
" transform="scale(0.015625)"/>
       <path id="DejaVuSans-6c" d="M 603 4863 
L 1178 4863 
L 1178 0 
L 603 0 
L 603 4863 
z
" transform="scale(0.015625)"/>
      </defs>
      <use xlink:href="#DejaVuSans-66"/>
      <use xlink:href="#DejaVuSans-61" x="35.205078"/>
      <use xlink:href="#DejaVuSans-6c" x="96.484375"/>
     </g>
    </g>
    <g id="patch_17">
     <path d="M 331.78125 76.182687 
L 351.78125 76.182687 
L 351.78125 69.182687 
L 331.78125 69.182687 
z
" style="fill: #cc79a7; fill-opacity: 0.8"/>
    </g>
    <g id="text_22">
     <!-- un -->
     <g transform="translate(359.78125 76.182687) scale(0.1 -0.1)">
      <defs>
       <path id="DejaVuSans-6e" d="M 3513 2113 
L 3513 0 
L 2938 0 
L 2938 2094 
Q 2938 2591 2744 2837 
Q 2550 3084 2163 3084 
Q 1697 3084 1428 2787 
Q 1159 2491 1159 1978 
L 1159 0 
L 581 0 
L 581 3500 
L 1159 3500 
L 1159 2956 
Q 1366 3272 1645 3428 
Q 1925 3584 2291 3584 
Q 2894 3584 3203 3211 
Q 3513 2838 3513 2113 
z
" transform="scale(0.015625)"/>
      </defs>
      <use xlink:href="#DejaVuSans-75"/>
      <use xlink:href="#DejaVuSans-6e" x="63.378906"/>
     </g>
    </g>
    <g id="patch_18">
     <path d="M 331.78125 90.860812 
L 351.78125 90.860812 
L 351.78125 83.860812 
L 331.78125 83.860812 
z
" style="fill: #f0e442; fill-opacity: 0.8"/>
    </g>
    <g id="text_23">
     <!-- past -->
     <g transform="translate(359.78125 90.860812) scale(0.1 -0.1)">
      <defs>
       <path id="DejaVuSans-74" d="M 1172 4494 
L 1172 3500 
L 2356 3500 
L 2356 3053 
L 1172 3053 
L 1172 1153 
Q 1172 725 1289 603 
Q 1406 481 1766 481 
L 2356 481 
L 2356 0 
L 1766 0 
Q 1100 0 847 248 
Q 594 497 594 1153 
L 594 3053 
L 172 3053 
L 172 3500 
L 594 3500 
L 594 4494 
L 1172 4494 
z
" transform="scale(0.015625)"/>
      </defs>
      <use xlink:href="#DejaVuSans-70"/>
      <use xlink:href="#DejaVuSans-61" x="63.476562"/>
      <use xlink:href="#DejaVuSans-73" x="124.755859"/>
      <use xlink:href="#DejaVuSans-74" x="176.855469"/>
     </g>
    </g>
    <g id="patch_19">
     <path d="M 331.78125 105.538937 
L 351.78125 105.538937 
L 351.78125 98.538937 
L 331.78125 98.538937 
z
" style="fill: #56b4e9; fill-opacity: 0.8"/>
    </g>
    <g id="text_24">
     <!-- veg -->
     <g transform="translate(359.78125 105.538937) scale(0.1 -0.1)">
      <defs>
       <path id="DejaVuSans-76" d="M 191 3500 
L 800 3500 
L 1894 563 
L 2988 3500 
L 3597 3500 
L 2284 0 
L 1503 0 
L 191 3500 
z
" transform="scale(0.015625)"/>
       <path id="DejaVuSans-67" d="M 2906 1791 
Q 2906 2416 2648 2759 
Q 2391 3103 1925 3103 
Q 1463 3103 1205 2759 
Q 947 2416 947 1791 
Q 947 1169 1205 825 
Q 1463 481 1925 481 
Q 2391 481 2648 825 
Q 2906 1169 2906 1791 
z
M 3481 434 
Q 3481 -459 3084 -895 
Q 2688 -1331 1869 -1331 
Q 1566 -1331 1297 -1286 
Q 1028 -1241 775 -1147 
L 775 -588 
Q 1028 -725 1275 -790 
Q 1522 -856 1778 -856 
Q 2344 -856 2625 -561 
Q 2906 -266 2906 331 
L 2906 616 
Q 2728 306 2450 153 
Q 2172 0 1784 0 
Q 1141 0 747 490 
Q 353 981 353 1791 
Q 353 2603 747 3093 
Q 1141 3584 1784 3584 
Q 2172 3584 2450 3431 
Q 2728 3278 2906 2969 
L 2906 3500 
L 3481 3500 
L 3481 434 
z
" transform="scale(0.015625)"/>
      </defs>
      <use xlink:href="#DejaVuSans-76"/>
      <use xlink:href="#DejaVuSans-65" x="59.179688"/>
      <use xlink:href="#DejaVuSans-67" x="120.703125"/>
     </g>
    </g>
   </g>
  </g>
 </g>
 <defs>
  <clipPath id="p399ba659b9">
   <rect x="43.78125" y="22.318125" width="279" height="108.72"/>
  </clipPath>
 </defs>
</svg>
